<svg width="48" height="48" viewBox="0 0 48 48" fill="none" xmlns="http://www.w3.org/2000/svg">
<rect width="48" height="48" rx="24" fill="#FFC107"/>
<path d="M32.2686 18.0429V15.2871C32.2686 14.5562 31.9783 13.8552 31.4615 13.3384C30.9447 12.8216 30.2437 12.5313 29.5128 12.5312H12.978C12.2471 12.5313 11.5461 12.8216 11.0293 13.3384C10.5125 13.8552 10.2222 14.5562 10.2222 15.2871V24.9324C10.2222 25.6633 10.5125 26.3642 11.0293 26.881C11.5461 27.3979 12.2471 27.6882 12.978 27.6882H24.0012M21.2454 33.1998V27.7433V32.0837M17.1117 33.1998H24.0012" stroke="white" stroke-width="2" stroke-linecap="round" stroke-linejoin="round"/>
<path d="M35.0185 23.5537H32.2626C30.7407 23.5537 29.5068 24.7875 29.5068 26.3095V34.5769C29.5068 36.0989 30.7407 37.3328 32.2626 37.3328H35.0185C36.5404 37.3328 37.7743 36.0989 37.7743 34.5769V26.3095C37.7743 24.7875 36.5404 23.5537 35.0185 23.5537Z" stroke="white" stroke-width="2" stroke-linecap="round" stroke-linejoin="round"/>
</svg>
