<svg width="48" height="48" viewBox="0 0 48 48" fill="none" xmlns="http://www.w3.org/2000/svg">
<rect width="48" height="48" rx="24" fill="#FFC107"/>
<path d="M43.7655 21.4202L39.7159 13.2415C39.5855 12.978 39.405 12.7429 39.1846 12.5498C38.9642 12.3568 38.7083 12.2094 38.4314 12.1161C38.1546 12.0228 37.8622 11.9855 37.5711 12.0062C37.28 12.0269 36.9958 12.1054 36.7346 12.237L32.6771 14.2844L24.2429 12.0319C24.0836 11.9902 23.9164 11.9902 23.7571 12.0319L15.3229 14.2844L11.2669 12.237C11.0058 12.1051 10.7214 12.0265 10.4301 12.0056C10.1388 11.9848 9.84626 12.022 9.56924 12.1153C9.29222 12.2086 9.03613 12.3561 8.81562 12.5493C8.59511 12.7426 8.41449 12.9778 8.2841 13.2415L4.23448 21.4202C3.97101 21.9522 3.92769 22.568 4.11405 23.1322C4.30041 23.6964 4.70118 24.1629 5.22823 24.4289L9.5382 26.6046L18.3661 32.9681C18.4618 33.0377 18.5694 33.0888 18.6836 33.1187L28.8434 35.6821C28.9207 35.7017 29.0002 35.7113 29.0799 35.7109C29.3324 35.7107 29.5745 35.6093 29.753 35.429L38.5332 26.5677L42.7718 24.4289C43.2988 24.1629 43.6996 23.6964 43.8859 23.1322C44.0723 22.568 44.029 21.9522 43.7655 21.4202ZM35.352 27.0532L29.6688 22.4584C29.4856 22.3103 29.2546 22.2358 29.0202 22.2491C28.7858 22.2624 28.5645 22.3626 28.3989 22.5304C25.4382 25.5408 22.1284 25.1611 20.0186 23.7993C19.9772 23.7735 19.9421 23.7384 19.9162 23.6967C19.8904 23.655 19.8743 23.6079 19.8694 23.559C19.8638 23.5141 19.8681 23.4686 19.8821 23.4256C19.8961 23.3827 19.9195 23.3434 19.9504 23.3107L26.9257 16.4857H32.3009L36.8108 25.5889L35.352 27.0532ZM5.92036 22.524C5.89411 22.4437 5.90039 22.3562 5.93782 22.2805L9.98904 14.1002C10.0157 14.0469 10.0565 14.0021 10.107 13.971C10.1575 13.9398 10.2156 13.9236 10.2748 13.924C10.3238 13.924 10.3722 13.9355 10.4161 13.9576L13.9418 15.7359L9.60487 24.4962L6.07911 22.7179C6.04106 22.6981 6.00738 22.6707 5.9801 22.6373C5.95282 22.604 5.9325 22.5655 5.92036 22.524ZM28.7878 33.6859L19.3265 31.2987L11.2463 25.4735L15.8785 16.1253L24 13.956L26.3494 14.584C26.1698 14.6191 26.0042 14.7066 25.8732 14.8356L18.6185 21.9409C18.3829 22.1785 18.2033 22.4664 18.0929 22.7835C17.9824 23.1005 17.944 23.4386 17.9804 23.7727C18.0168 24.1068 18.1272 24.4283 18.3033 24.7135C18.4794 24.9988 18.7168 25.2404 18.9979 25.4206C22.2078 27.4905 26.1018 27.1012 29.1259 24.477L34.001 28.4214L28.7878 33.6859ZM42.0796 22.524C42.0666 22.564 42.0458 22.601 42.0186 22.6329C41.9913 22.6648 41.9582 22.6909 41.9209 22.7099L38.3951 24.4962L34.0582 15.7359L37.5839 13.9576C37.6213 13.9387 37.662 13.9274 37.7036 13.9244C37.7453 13.9213 37.7872 13.9267 37.8268 13.94C37.8664 13.9532 37.9031 13.9741 37.9347 14.0016C37.9663 14.0291 37.9922 14.0626 38.011 14.1002L42.0622 22.2805C42.0996 22.3562 42.1059 22.4437 42.0796 22.524ZM24.3 38.827C24.2389 39.0743 24.083 39.2869 23.8666 39.4182C23.6502 39.5495 23.391 39.5886 23.1459 39.5271L16.5215 37.8561C16.4072 37.8266 16.2994 37.7755 16.204 37.7055L12.0178 34.692C11.8121 34.5433 11.6734 34.3182 11.6322 34.0663C11.591 33.8143 11.6506 33.5562 11.798 33.3486C11.9453 33.1411 12.1683 33.0011 12.418 32.9595C12.6676 32.9178 12.9234 32.978 13.129 33.1267L17.1596 36.0313L23.6063 37.6575C23.728 37.6882 23.8425 37.7428 23.9431 37.8183C24.0438 37.8937 24.1288 37.9885 24.1931 38.0971C24.2574 38.2058 24.2998 38.3262 24.3179 38.4515C24.336 38.5767 24.3294 38.7043 24.2984 38.827H24.3Z" fill="white"/>
</svg>
