<svg width="48" height="48" viewBox="0 0 48 48" fill="none" xmlns="http://www.w3.org/2000/svg">
<rect width="48" height="48" rx="24" fill="#FFC107"/>
<path d="M17.8472 28.3519L22.7734 31.1961L30.0016 24.5382C31.0174 23.603 31.791 22.4354 32.2561 21.1354C32.7211 19.8354 32.8638 18.442 32.6719 17.0748L31.8392 11.1506C31.8213 11.0222 31.7742 10.8995 31.7017 10.792C31.6292 10.6844 31.5332 10.5948 31.4209 10.53C31.3085 10.4651 31.1829 10.4268 31.0535 10.4177C30.9242 10.4087 30.7944 10.4293 30.6742 10.478L25.1274 12.719C23.8473 13.2364 22.712 14.0566 21.8187 15.1094C20.9255 16.1622 20.301 17.416 19.999 18.7632L17.8472 28.3519ZM17.8472 28.3519L12.7305 28.6819C12.7305 28.6819 13.1116 22.3336 19.1996 21.7434M15.7141 32.0466C14.2921 34.5097 16.0441 37.1633 16.0441 37.1633C16.0441 37.1633 19.2183 37.3538 20.6403 34.8907M28.3512 27.0271C30.884 32.5946 25.5768 36.0987 25.5768 36.0987L23.3042 31.5025" stroke="white" stroke-width="2" stroke-linecap="round" stroke-linejoin="round"/>
<path d="M24.5773 22.3849C23.924 22.0077 23.4474 21.3865 23.2521 20.6579C23.0569 19.9293 23.1591 19.153 23.5363 18.4997C23.9134 17.8465 24.5346 17.3698 25.2633 17.1746C25.9919 16.9793 26.7682 17.0815 27.4214 17.4587C28.0747 17.8358 28.5514 18.4571 28.7466 19.1857C28.9418 19.9143 28.8396 20.6906 28.4625 21.3439C28.0853 21.9971 27.4641 22.4738 26.7355 22.669C26.0069 22.8642 25.2306 22.762 24.5773 22.3849Z" stroke="white" stroke-width="2" stroke-linecap="round" stroke-linejoin="round"/>
</svg>
