<svg width="48" height="48" viewBox="0 0 48 48" fill="none" xmlns="http://www.w3.org/2000/svg">
<rect width="48" height="48" rx="24" fill="#FFC107"/>
<mask id="path-2-outside-1_1_2428" maskUnits="userSpaceOnUse" x="9.66666" y="11.4443" width="30" height="25" fill="black">
<rect fill="white" x="9.66666" y="11.4443" width="30" height="25"/>
<path d="M27.264 22.0113C27.1513 22.0105 27.0429 22.0524 26.9625 22.1278C26.882 22.2032 26.836 22.306 26.8345 22.4137V25.4209C26.836 25.5289 26.8822 25.6318 26.963 25.7073C27.0437 25.7827 27.1525 25.8244 27.2654 25.8234H36.7417C36.8546 25.8244 36.9634 25.7827 37.0441 25.7073C37.1249 25.6318 37.1711 25.5289 37.1726 25.4209V22.4137C37.1711 22.3057 37.1249 22.2028 37.0441 22.1273C36.9634 22.0519 36.8546 22.0102 36.7417 22.0113H27.264ZM33.0752 12.4457C34.3865 12.5055 35.3294 12.7529 35.9267 13.2777C36.517 13.7971 36.8199 14.5489 36.8796 15.544V18.3949C36.8766 18.6377 36.7729 18.8695 36.5913 19.0392C36.4098 19.209 36.1651 19.3029 35.9111 19.3004C35.7852 19.3018 35.6603 19.2795 35.5434 19.2348C35.4265 19.1901 35.32 19.1238 35.2299 19.0397C35.1399 18.9556 35.068 18.8554 35.0184 18.7448C34.9689 18.6342 34.9426 18.5153 34.9411 18.3949L34.9426 15.5957C34.9113 15.0791 34.7819 14.7582 34.597 14.5951C34.4178 14.4374 33.8716 14.296 33.0283 14.2552H14.4313C13.6675 14.2824 13.1712 14.4211 12.9308 14.6182C12.7459 14.7691 12.6066 15.1851 12.6051 15.9043L12.6009 31.9058C12.672 32.6046 12.8327 33.0709 13.0389 33.3034C13.1954 33.4802 13.6803 33.6569 14.3943 33.7439H33.0482C33.9214 33.7602 34.4363 33.6351 34.6098 33.4679C34.8018 33.2817 34.9411 32.7922 34.9411 31.9915V29.2113C34.9411 28.7123 35.3749 28.3058 35.9111 28.3058C36.4459 28.3058 36.8796 28.7123 36.8796 29.2113V31.9915C36.8796 33.2151 36.6179 34.13 36.005 34.7241C35.3735 35.3359 34.3694 35.5806 33.0283 35.5534L14.2791 35.5493C13.0034 35.408 12.0889 35.0735 11.5442 34.4576C11.0507 33.9002 10.7762 33.1049 10.6667 31.9928V15.9029C10.6695 14.712 10.9682 13.8161 11.6537 13.256C12.2823 12.7394 13.1897 12.4878 14.3943 12.4443L33.0752 12.4457ZM36.7417 20.2004C38.0501 20.2004 39.1111 21.1915 39.1111 22.4137V25.4209C39.1111 26.6431 38.0501 27.6342 36.7417 27.6342H27.2654C25.957 27.6342 24.896 26.6418 24.896 25.4209V22.4137C24.896 21.1915 25.957 20.2004 27.2654 20.2004H36.7417ZM29.6348 22.8379C28.9806 22.8379 28.4501 23.3273 28.4501 23.9295C28.4501 24.5318 28.9806 25.0212 29.6348 25.0212C30.2891 25.0212 30.8195 24.5318 30.8195 23.9295C30.8195 23.3273 30.2891 22.8365 29.6348 22.8365"/>
</mask>
<path d="M27.264 22.0113C27.1513 22.0105 27.0429 22.0524 26.9625 22.1278C26.882 22.2032 26.836 22.306 26.8345 22.4137V25.4209C26.836 25.5289 26.8822 25.6318 26.963 25.7073C27.0437 25.7827 27.1525 25.8244 27.2654 25.8234H36.7417C36.8546 25.8244 36.9634 25.7827 37.0441 25.7073C37.1249 25.6318 37.1711 25.5289 37.1726 25.4209V22.4137C37.1711 22.3057 37.1249 22.2028 37.0441 22.1273C36.9634 22.0519 36.8546 22.0102 36.7417 22.0113H27.264ZM33.0752 12.4457C34.3865 12.5055 35.3294 12.7529 35.9267 13.2777C36.517 13.7971 36.8199 14.5489 36.8796 15.544V18.3949C36.8766 18.6377 36.7729 18.8695 36.5913 19.0392C36.4098 19.209 36.1651 19.3029 35.9111 19.3004C35.7852 19.3018 35.6603 19.2795 35.5434 19.2348C35.4265 19.1901 35.32 19.1238 35.2299 19.0397C35.1399 18.9556 35.068 18.8554 35.0184 18.7448C34.9689 18.6342 34.9426 18.5153 34.9411 18.3949L34.9426 15.5957C34.9113 15.0791 34.7819 14.7582 34.597 14.5951C34.4178 14.4374 33.8716 14.296 33.0283 14.2552H14.4313C13.6675 14.2824 13.1712 14.4211 12.9308 14.6182C12.7459 14.7691 12.6066 15.1851 12.6051 15.9043L12.6009 31.9058C12.672 32.6046 12.8327 33.0709 13.0389 33.3034C13.1954 33.4802 13.6803 33.6569 14.3943 33.7439H33.0482C33.9214 33.7602 34.4363 33.6351 34.6098 33.4679C34.8018 33.2817 34.9411 32.7922 34.9411 31.9915V29.2113C34.9411 28.7123 35.3749 28.3058 35.9111 28.3058C36.4459 28.3058 36.8796 28.7123 36.8796 29.2113V31.9915C36.8796 33.2151 36.6179 34.13 36.005 34.7241C35.3735 35.3359 34.3694 35.5806 33.0283 35.5534L14.2791 35.5493C13.0034 35.408 12.0889 35.0735 11.5442 34.4576C11.0507 33.9002 10.7762 33.1049 10.6667 31.9928V15.9029C10.6695 14.712 10.9682 13.8161 11.6537 13.256C12.2823 12.7394 13.1897 12.4878 14.3943 12.4443L33.0752 12.4457ZM36.7417 20.2004C38.0501 20.2004 39.1111 21.1915 39.1111 22.4137V25.4209C39.1111 26.6431 38.0501 27.6342 36.7417 27.6342H27.2654C25.957 27.6342 24.896 26.6418 24.896 25.4209V22.4137C24.896 21.1915 25.957 20.2004 27.2654 20.2004H36.7417ZM29.6348 22.8379C28.9806 22.8379 28.4501 23.3273 28.4501 23.9295C28.4501 24.5318 28.9806 25.0212 29.6348 25.0212C30.2891 25.0212 30.8195 24.5318 30.8195 23.9295C30.8195 23.3273 30.2891 22.8365 29.6348 22.8365" fill="white"/>
<path d="M27.264 22.0113L27.2621 22.3113H27.264V22.0113ZM26.8345 22.4137L26.5345 22.4095V22.4137H26.8345ZM26.8345 25.4209H26.5344L26.5345 25.4251L26.8345 25.4209ZM27.2654 25.8234V25.5233L27.2625 25.5234L27.2654 25.8234ZM36.7417 25.8234L36.7446 25.5234H36.7417V25.8234ZM37.1726 25.4209L37.4726 25.4251V25.4209H37.1726ZM37.1726 22.4137H37.4726L37.4726 22.4095L37.1726 22.4137ZM36.7417 22.0113V22.3113L36.7446 22.3112L36.7417 22.0113ZM33.0752 12.4457L33.0889 12.1457L33.0752 12.1457L33.0752 12.4457ZM35.9267 13.2777L36.1249 13.0525L36.1247 13.0523L35.9267 13.2777ZM36.8796 15.544H37.1796V15.535L37.1791 15.5261L36.8796 15.544ZM36.8796 18.3949L37.1796 18.3987V18.3949H36.8796ZM35.9111 19.3004L35.9141 19.0003L35.9077 19.0004L35.9111 19.3004ZM34.9411 18.3949L34.6411 18.3948L34.6412 18.3986L34.9411 18.3949ZM34.9426 15.5957L35.2426 15.5959L35.2426 15.5867L35.242 15.5776L34.9426 15.5957ZM34.597 14.5951L34.7955 14.3701L34.7952 14.3699L34.597 14.5951ZM33.0283 14.2552L33.0427 13.9556L33.0355 13.9552H33.0283V14.2552ZM14.4313 14.2552V13.955L14.4206 13.9554L14.4313 14.2552ZM12.9308 14.6182L13.1205 14.8506L13.1211 14.8502L12.9308 14.6182ZM12.6051 15.9043L12.3051 15.9037L12.3051 15.9042L12.6051 15.9043ZM12.6009 31.9058L12.3009 31.9058L12.3009 31.921L12.3024 31.9362L12.6009 31.9058ZM13.0389 33.3034L13.2636 33.1046L13.2633 33.1043L13.0389 33.3034ZM14.3943 33.7439L14.358 34.0417L14.3761 34.0439H14.3943V33.7439ZM33.0482 33.7439L33.0538 33.4439H33.0482V33.7439ZM34.6098 33.4679L34.8179 33.6839L34.8187 33.6833L34.6098 33.4679ZM36.005 34.7241L36.2137 34.9396L36.2138 34.9395L36.005 34.7241ZM33.0283 35.5534L33.0343 35.2534L33.0283 35.2534L33.0283 35.5534ZM14.2791 35.5493L14.2461 35.8475L14.2625 35.8493L14.279 35.8493L14.2791 35.5493ZM11.5442 34.4576L11.7689 34.2589L11.7688 34.2588L11.5442 34.4576ZM10.6667 31.9928H10.3667V32.0076L10.3681 32.0222L10.6667 31.9928ZM10.6667 15.9029L10.3667 15.9022V15.9029H10.6667ZM11.6537 13.256L11.8435 13.4883L11.8442 13.4877L11.6537 13.256ZM14.3943 12.4443L14.3943 12.1441L14.3835 12.1445L14.3943 12.4443ZM27.2659 21.7113C27.0783 21.7101 26.8952 21.7797 26.7573 21.9089L27.1676 22.3468C27.1906 22.3252 27.2244 22.311 27.2621 22.3113L27.2659 21.7113ZM26.7573 21.9089C26.619 22.0385 26.5372 22.2182 26.5345 22.4095L27.1344 22.4179C27.1348 22.3938 27.145 22.3679 27.1676 22.3468L26.7573 21.9089ZM26.5345 22.4137V25.4209H27.1345V22.4137H26.5345ZM26.5345 25.4251C26.5372 25.6169 26.6193 25.7968 26.7582 25.9265L27.1677 25.488C27.145 25.4668 27.1348 25.4409 27.1344 25.4168L26.5345 25.4251ZM26.7582 25.9265C26.8966 26.0558 27.0802 26.1252 27.2683 26.1233L27.2625 25.5234C27.2247 25.5237 27.1908 25.5096 27.1677 25.488L26.7582 25.9265ZM27.2654 26.1234H36.7417V25.5234H27.2654V26.1234ZM36.7388 26.1233C36.9268 26.1252 37.1105 26.0558 37.2489 25.9265L36.8394 25.488C36.8162 25.5096 36.7823 25.5237 36.7446 25.5234L36.7388 26.1233ZM37.2489 25.9265C37.3878 25.7968 37.4699 25.6169 37.4726 25.4251L36.8726 25.4168C36.8723 25.4409 36.8621 25.4668 36.8394 25.488L37.2489 25.9265ZM37.4726 25.4209V22.4137H36.8726V25.4209H37.4726ZM37.4726 22.4095C37.4699 22.2177 37.3878 22.0378 37.2489 21.9081L36.8394 22.3466C36.8621 22.3678 36.8723 22.3938 36.8726 22.4178L37.4726 22.4095ZM37.2489 21.9081C37.1105 21.7788 36.9268 21.7095 36.7388 21.7113L36.7446 22.3112C36.7823 22.3109 36.8162 22.325 36.8394 22.3466L37.2489 21.9081ZM36.7417 21.7113H27.264V22.3113H36.7417V21.7113ZM33.0615 12.7454C34.3563 12.8045 35.2112 13.0485 35.7287 13.5031L36.1247 13.0523C35.4476 12.4574 34.4166 12.2066 33.0889 12.146L33.0615 12.7454ZM35.7286 13.5029C36.2406 13.9535 36.5236 14.6187 36.5802 15.562L37.1791 15.5261C37.1162 14.479 36.7934 13.6406 36.1249 13.0525L35.7286 13.5029ZM36.5796 15.544V18.3949H37.1796V15.544H36.5796ZM36.5797 18.3912C36.5777 18.5501 36.5099 18.7047 36.3865 18.8201L36.7962 19.2584C37.036 19.0343 37.1756 18.7254 37.1796 18.3987L36.5797 18.3912ZM36.3865 18.8201C36.2626 18.9359 36.0929 19.0022 35.9141 19.0004L35.9081 19.6004C36.2373 19.6037 36.5569 19.4821 36.7962 19.2584L36.3865 18.8201ZM35.9077 19.0004C35.8194 19.0014 35.732 18.9858 35.6506 18.9546L35.4362 19.515C35.5886 19.5733 35.7511 19.6022 35.9145 19.6004L35.9077 19.0004ZM35.6506 18.9546C35.5693 18.9235 35.496 18.8777 35.4346 18.8204L35.0252 19.259C35.144 19.3699 35.2838 19.4567 35.4362 19.515L35.6506 18.9546ZM35.4346 18.8204C35.3733 18.7632 35.3252 18.6957 35.2922 18.6222L34.7447 18.8674C34.8108 19.0152 34.9064 19.1481 35.0252 19.259L35.4346 18.8204ZM35.2922 18.6222C35.2593 18.5487 35.2421 18.4703 35.2411 18.3912L34.6412 18.3986C34.6432 18.5603 34.6785 18.7196 34.7447 18.8674L35.2922 18.6222ZM35.2411 18.3951L35.2426 15.5959L34.6426 15.5955L34.6411 18.3948L35.2411 18.3951ZM35.242 15.5776C35.2091 15.0346 35.0709 14.6132 34.7955 14.3701L34.3985 14.82C34.4929 14.9033 34.6134 15.1236 34.6431 15.6138L35.242 15.5776ZM34.7952 14.3699C34.6451 14.2378 34.3989 14.1504 34.1282 14.0888C33.8423 14.0237 33.4767 13.9765 33.0427 13.9556L33.0138 14.5549C33.4232 14.5747 33.7524 14.6186 33.9951 14.6738C34.2532 14.7326 34.3696 14.7947 34.3988 14.8203L34.7952 14.3699ZM33.0283 13.9552H14.4313V14.5552H33.0283V13.9552ZM14.4206 13.9554C14.0243 13.9695 13.6873 14.0128 13.4117 14.082C13.1398 14.1503 12.9083 14.2487 12.7406 14.3862L13.1211 14.8502C13.1937 14.7906 13.3306 14.7211 13.5579 14.6639C13.7815 14.6078 14.0746 14.5681 14.442 14.555L14.4206 13.9554ZM12.7411 14.3858C12.5786 14.5185 12.475 14.7305 12.4098 14.9691C12.3426 15.2151 12.3059 15.527 12.3051 15.9037L12.9051 15.9049C12.9058 15.5625 12.9395 15.3067 12.9886 15.1272C13.0397 14.9403 13.0982 14.8688 13.1205 14.8506L12.7411 14.3858ZM12.3051 15.9042L12.3009 31.9058L12.9009 31.9059L12.9051 15.9044L12.3051 15.9042ZM12.3024 31.9362C12.3748 32.6479 12.5425 33.1958 12.8145 33.5025L13.2633 33.1043C13.1229 32.946 12.9691 32.5613 12.8993 31.8755L12.3024 31.9362ZM12.8143 33.5023C12.9472 33.6525 13.1717 33.7611 13.4122 33.8417C13.6659 33.9269 13.9863 33.9964 14.358 34.0417L14.4306 33.4461C14.0883 33.4044 13.8092 33.3421 13.6029 33.2729C13.3833 33.1992 13.2871 33.1311 13.2636 33.1046L12.8143 33.5023ZM14.3943 34.0439H33.0482V33.4439H14.3943V34.0439ZM33.0426 34.0438C33.4928 34.0523 33.862 34.0246 34.1483 33.9693C34.4204 33.9167 34.6657 33.8306 34.8179 33.6839L34.4016 33.2519C34.3803 33.2724 34.2815 33.3325 34.0345 33.3802C33.8016 33.4252 33.4768 33.4519 33.0538 33.444L33.0426 34.0438ZM34.8187 33.6833C34.9751 33.5315 35.0754 33.2966 35.1392 33.03C35.2051 32.7548 35.2411 32.4075 35.2411 31.9915H34.6411C34.6411 32.3763 34.6075 32.674 34.5557 32.8903C34.5019 33.1151 34.4364 33.2181 34.4009 33.2526L34.8187 33.6833ZM35.2411 31.9915V29.2113H34.6411V31.9915H35.2411ZM35.2411 29.2113C35.2411 28.8968 35.5212 28.6058 35.9111 28.6058V28.0058C35.2287 28.0058 34.6411 28.5279 34.6411 29.2113H35.2411ZM35.9111 28.6058C36.2993 28.6058 36.5796 28.8965 36.5796 29.2113H37.1796C37.1796 28.5281 36.5924 28.0058 35.9111 28.0058V28.6058ZM36.5796 29.2113V31.9915H37.1796V29.2113H36.5796ZM36.5796 31.9915C36.5796 33.1816 36.3237 33.9974 35.7962 34.5087L36.2138 34.9395C36.9121 34.2627 37.1796 33.2485 37.1796 31.9915H36.5796ZM35.7962 34.5087C35.2521 35.0358 34.3499 35.2802 33.0343 35.2535L33.0222 35.8534C34.3889 35.8811 35.4949 35.636 36.2137 34.9396L35.7962 34.5087ZM33.0283 35.2534L14.2792 35.2493L14.279 35.8493L33.0282 35.8534L33.0283 35.2534ZM14.3121 35.2512C13.0592 35.1123 12.2383 34.7897 11.7689 34.2589L11.3195 34.6564C11.9394 35.3573 12.9476 35.7036 14.2461 35.8475L14.3121 35.2512ZM11.7688 34.2588C11.3349 33.7687 11.0718 33.046 10.9652 31.9634L10.3681 32.0222C10.4805 33.1639 10.7664 34.0318 11.3196 34.6565L11.7688 34.2588ZM10.9667 31.9928V15.9029H10.3667V31.9928H10.9667ZM10.9667 15.9037C10.9694 14.7558 11.257 13.9675 11.8435 13.4883L11.4639 13.0237C10.6793 13.6647 10.3696 14.6682 10.3667 15.9022L10.9667 15.9037ZM11.8442 13.4877C12.3994 13.0314 13.2293 12.7866 14.4051 12.7441L14.3835 12.1445C13.15 12.1891 12.1652 12.4473 11.4632 13.0242L11.8442 13.4877ZM14.3943 12.7443L33.0752 12.7457L33.0752 12.1457L14.3943 12.1443L14.3943 12.7443ZM36.7417 20.5004C37.904 20.5004 38.8111 21.3761 38.8111 22.4137H39.4111C39.4111 21.0069 38.1962 19.9004 36.7417 19.9004V20.5004ZM38.8111 22.4137V25.4209H39.4111V22.4137H38.8111ZM38.8111 25.4209C38.8111 26.4585 37.904 27.3342 36.7417 27.3342V27.9342C38.1962 27.9342 39.4111 26.8278 39.4111 25.4209H38.8111ZM36.7417 27.3342H27.2654V27.9342H36.7417V27.3342ZM27.2654 27.3342C26.1032 27.3342 25.196 26.4573 25.196 25.4209H24.596C24.596 26.8263 25.8107 27.9342 27.2654 27.9342V27.3342ZM25.196 25.4209V22.4137H24.596V25.4209H25.196ZM25.196 22.4137C25.196 21.3761 26.1031 20.5004 27.2654 20.5004V19.9004C25.8109 19.9004 24.596 21.0069 24.596 22.4137H25.196ZM27.2654 20.5004H36.7417V19.9004H27.2654V20.5004ZM29.6348 22.5379C28.8384 22.5379 28.1501 23.1391 28.1501 23.9295H28.7501C28.7501 23.5155 29.1228 23.1379 29.6348 23.1379V22.5379ZM28.1501 23.9295C28.1501 24.72 28.8384 25.3212 29.6348 25.3212V24.7212C29.1228 24.7212 28.7501 24.3436 28.7501 23.9295H28.1501ZM29.6348 25.3212C30.4313 25.3212 31.1195 24.72 31.1195 23.9295H30.5195C30.5195 24.3436 30.1468 24.7212 29.6348 24.7212V25.3212ZM31.1195 23.9295C31.1195 23.1395 30.4318 22.5365 29.6348 22.5365V23.1365C30.1463 23.1365 30.5195 23.515 30.5195 23.9295H31.1195Z" fill="white" mask="url(#path-2-outside-1_1_2428)"/>
</svg>
