<svg width="136" height="40" viewBox="0 0 136 40" fill="none" xmlns="http://www.w3.org/2000/svg">
<g clip-path="url(#clip0_55_1854)">
<rect x="0.5" y="0.5" width="135" height="39" rx="7.5" stroke="#DBDBDB"/>
<path d="M28.1531 20.7181C28.1653 19.7732 28.4173 18.8467 28.8856 18.0249C29.3538 17.2031 30.0232 16.5126 30.8314 16.0176C30.318 15.2873 29.6406 14.6862 28.8532 14.2622C28.0658 13.8382 27.19 13.6029 26.2953 13.575C24.3869 13.3754 22.5367 14.7125 21.5641 14.7125C20.5728 14.7125 19.0754 13.5948 17.463 13.6278C16.4201 13.6614 15.4036 13.9635 14.5128 14.5047C13.6219 15.0459 12.8869 15.8077 12.3795 16.716C10.1815 20.5067 11.821 26.0777 13.9265 29.1418C14.9799 30.6421 16.2111 32.3181 17.8221 32.2587C19.3985 32.1936 19.9872 31.2574 21.8901 31.2574C23.7753 31.2574 24.3277 32.2587 25.9713 32.2209C27.6629 32.1936 28.7287 30.7138 29.7451 29.1992C30.502 28.1302 31.0845 26.9486 31.4708 25.6983C30.4881 25.2843 29.6494 24.5912 29.0595 23.7056C28.4695 22.82 28.1542 21.781 28.1531 20.7181Z" fill="#252F4A"/>
<path d="M25.0474 11.5591C25.9698 10.4562 26.4241 9.03863 26.3141 7.60742C24.905 7.75484 23.6034 8.42566 22.6686 9.48623C22.2116 10.0043 21.8616 10.6071 21.6385 11.26C21.4155 11.913 21.3238 12.6033 21.3688 13.2916C22.0736 13.2988 22.7709 13.1466 23.4081 12.8465C24.0453 12.5464 24.6058 12.1062 25.0474 11.5591Z" fill="#252F4A"/>
<path d="M48.0831 28.4595H42.7035L41.4116 32.2593H39.133L44.2285 18.2012H46.5958L51.6913 32.2593H49.3738L48.0831 28.4595ZM43.2606 26.7061H47.5249L45.4227 20.5394H45.3639L43.2606 26.7061Z" fill="#252F4A"/>
<path d="M62.6955 27.1368C62.6955 30.3218 60.9841 32.3682 58.4014 32.3682C57.7472 32.4023 57.0965 32.2522 56.524 31.935C55.9514 31.6179 55.4801 31.1466 55.1639 30.575H55.1151V35.6516H53.003V22.0115H55.0474V23.7162H55.0862C55.4169 23.1474 55.8962 22.6785 56.4731 22.3594C57.0501 22.0404 57.703 21.883 58.3626 21.9042C60.9741 21.9042 62.6955 23.9605 62.6955 27.1368ZM60.5246 27.1368C60.5246 25.0617 59.448 23.6974 57.8054 23.6974C56.1917 23.6974 55.1062 25.0904 55.1062 27.1368C55.1062 29.2019 56.1917 30.585 57.8054 30.585C59.448 30.585 60.5246 29.2307 60.5246 27.1368Z" fill="#252F4A"/>
<path d="M74.0241 27.1368C74.0241 30.3218 72.3127 32.3682 69.73 32.3682C69.0757 32.4023 68.4251 32.2522 67.8525 31.935C67.2799 31.6179 66.8086 31.1466 66.4925 30.575H66.4436V35.6516H64.3315V22.0115H66.3759V23.7162H66.4147C66.7454 23.1474 67.2247 22.6785 67.8016 22.3594C68.3786 22.0404 69.0315 21.883 69.6911 21.9042C72.3027 21.9042 74.0241 23.9605 74.0241 27.1368ZM71.8532 27.1368C71.8532 25.0617 70.7766 23.6974 69.134 23.6974C67.5202 23.6974 66.4347 25.0904 66.4347 27.1368C66.4347 29.2019 67.5202 30.585 69.134 30.585C70.7766 30.585 71.8532 29.2307 71.8532 27.1368Z" fill="#252F4A"/>
<path d="M81.505 28.3424C81.6615 29.7365 83.0211 30.6518 84.879 30.6518C86.6593 30.6518 87.94 29.7364 87.94 28.4794C87.94 27.3882 87.1676 26.7349 85.3385 26.2871L83.5094 25.8482C80.9179 25.2247 79.7147 24.0174 79.7147 22.0584C79.7147 19.6328 81.8368 17.9668 84.8501 17.9668C87.8324 17.9668 89.8768 19.6328 89.9456 22.0584H87.8135C87.6859 20.6555 86.5216 19.8086 84.8202 19.8086C83.1187 19.8086 81.9545 20.6654 81.9545 21.9125C81.9545 22.9064 82.6981 23.4912 84.5172 23.9389L86.0721 24.3192C88.9678 25.0013 90.1709 26.16 90.1709 28.2162C90.1709 30.8463 88.0676 32.4936 84.7225 32.4936C81.5926 32.4936 79.4794 30.885 79.3429 28.3423L81.505 28.3424Z" fill="#252F4A"/>
<path d="M94.7276 19.584V22.0095H96.6843V23.6756H94.7276V29.326C94.7276 30.2038 95.1194 30.6129 95.9795 30.6129C96.2118 30.6088 96.4437 30.5926 96.6743 30.5642V32.2203C96.2876 32.2923 95.8945 32.3249 95.5011 32.3176C93.4179 32.3176 92.6055 31.5382 92.6055 29.5504V23.6756H91.1094V22.0095H92.6055V19.584H94.7276Z" fill="#252F4A"/>
<path d="M97.8218 27.1341C97.8218 23.9093 99.7285 21.8828 102.702 21.8828C105.685 21.8828 107.583 23.9092 107.583 27.1341C107.583 30.3679 105.695 32.3855 102.702 32.3855C99.7096 32.3855 97.8218 30.3678 97.8218 27.1341ZM105.431 27.1341C105.431 24.9219 104.413 23.6163 102.702 23.6163C100.99 23.6163 99.9738 24.9319 99.9738 27.1341C99.9738 29.3552 100.99 30.6509 102.702 30.6509C104.413 30.6509 105.431 29.3552 105.431 27.1341Z" fill="#252F4A"/>
<path d="M109.323 22.0114H111.337V23.7559H111.386C111.522 23.2111 111.843 22.7295 112.293 22.3923C112.744 22.0551 113.298 21.8827 113.861 21.9041C114.104 21.9033 114.347 21.9296 114.585 21.9826V23.9505C114.277 23.857 113.957 23.814 113.636 23.8234C113.329 23.811 113.023 23.8648 112.739 23.9813C112.455 24.0978 112.2 24.2741 111.991 24.4981C111.782 24.7222 111.624 24.9886 111.528 25.2792C111.432 25.5697 111.4 25.8775 111.435 26.1815V32.2609H109.323L109.323 22.0114Z" fill="#252F4A"/>
<path d="M124.319 29.2479C124.035 31.1086 122.216 32.3855 119.888 32.3855C116.895 32.3855 115.037 30.3877 115.037 27.1828C115.037 23.9679 116.905 21.8828 119.8 21.8828C122.646 21.8828 124.437 23.8308 124.437 26.9385V27.6593H117.169V27.7864C117.136 28.1636 117.183 28.5436 117.308 28.9012C117.434 29.2587 117.634 29.5856 117.896 29.8602C118.157 30.1348 118.475 30.3508 118.827 30.4938C119.179 30.6367 119.557 30.7035 119.937 30.6896C120.436 30.7361 120.937 30.621 121.365 30.3612C121.794 30.1015 122.126 29.711 122.314 29.2479L124.319 29.2479ZM117.179 26.1889H122.324C122.342 25.8497 122.291 25.5103 122.172 25.192C122.053 24.8736 121.869 24.5832 121.632 24.3389C121.395 24.0947 121.11 23.9018 120.795 23.7725C120.479 23.6432 120.141 23.5803 119.8 23.5876C119.456 23.5855 119.115 23.6513 118.796 23.7812C118.478 23.9111 118.189 24.1025 117.945 24.3444C117.702 24.5862 117.509 24.8737 117.377 25.1903C117.246 25.5069 117.178 25.8463 117.179 26.1889Z" fill="#252F4A"/>
<path d="M42.9896 7.61899C43.4324 7.58734 43.8767 7.65398 44.2906 7.81409C44.7044 7.9742 45.0774 8.2238 45.3826 8.54489C45.6879 8.86597 45.9178 9.25054 46.0558 9.67084C46.1937 10.0911 46.2363 10.5367 46.1805 10.9754C46.1805 13.1334 45.0096 14.3739 42.9896 14.3739H40.5401V7.61899H42.9896ZM41.5934 13.4186H42.872C43.1884 13.4375 43.505 13.3858 43.7989 13.2673C44.0927 13.1489 44.3563 12.9667 44.5705 12.734C44.7848 12.5013 44.9442 12.2239 45.0372 11.9221C45.1303 11.6202 45.1546 11.3015 45.1084 10.9892C45.1512 10.6781 45.1245 10.3613 45.03 10.0617C44.9355 9.76209 44.7757 9.48699 44.562 9.25613C44.3482 9.02526 44.0859 8.84435 43.7937 8.72634C43.5015 8.60834 43.1868 8.55617 42.872 8.57357H41.5934V13.4186Z" fill="#252F4A"/>
<path d="M47.3716 11.8246C47.3395 11.4896 47.3779 11.1516 47.4846 10.8323C47.5912 10.513 47.7637 10.2194 47.9909 9.97036C48.2182 9.72133 48.4952 9.52235 48.8041 9.38618C49.1131 9.25002 49.4472 9.17969 49.7851 9.17969C50.1229 9.17969 50.457 9.25002 50.766 9.38618C51.075 9.52235 51.3519 9.72133 51.5792 9.97036C51.8064 10.2194 51.9789 10.513 52.0855 10.8323C52.1922 11.1516 52.2307 11.4896 52.1985 11.8246C52.2313 12.16 52.1933 12.4985 52.0869 12.8183C51.9805 13.1381 51.8082 13.4323 51.5809 13.6818C51.3536 13.9313 51.0764 14.1307 50.7671 14.2672C50.4578 14.4036 50.1233 14.4741 49.7851 14.4741C49.4468 14.4741 49.1123 14.4036 48.803 14.2672C48.4937 14.1307 48.2166 13.9313 47.9893 13.6818C47.762 13.4323 47.5896 13.1381 47.4832 12.8183C47.3769 12.4985 47.3388 12.16 47.3716 11.8246ZM51.1596 11.8246C51.1596 10.7197 50.6613 10.0735 49.7867 10.0735C48.9088 10.0735 48.415 10.7197 48.415 11.8247C48.415 12.9385 48.9088 13.5797 49.7867 13.5797C50.6613 13.5797 51.1596 12.9341 51.1596 11.8246Z" fill="#252F4A"/>
<path d="M58.611 14.375H57.5633L56.5056 10.6206H56.4257L55.3724 14.375H54.3346L52.924 9.27734H53.9484L54.8652 13.1672H54.9406L55.9928 9.27734H56.9617L58.0139 13.1672H58.0938L59.0061 9.27734H60.0161L58.611 14.375Z" fill="#252F4A"/>
<path d="M61.2086 9.27529H62.1809V10.0851H62.2563C62.3844 9.79425 62.6003 9.55043 62.8741 9.38763C63.1478 9.22483 63.4657 9.15116 63.7835 9.17689C64.0325 9.15824 64.2826 9.19564 64.5151 9.28632C64.7476 9.37699 64.9567 9.51862 65.1268 9.70071C65.2969 9.88279 65.4237 10.1007 65.4978 10.3382C65.5719 10.5757 65.5914 10.8268 65.5549 11.0729V14.3729H64.5449V11.3255C64.5449 10.5063 64.1875 10.0989 63.4406 10.0989C63.2715 10.0911 63.1027 10.1197 62.9458 10.1829C62.7889 10.2462 62.6476 10.3424 62.5315 10.4651C62.4155 10.5878 62.3274 10.734 62.2734 10.8938C62.2194 11.0536 62.2007 11.2231 62.2186 11.3907V14.373H61.2086L61.2086 9.27529Z" fill="#252F4A"/>
<path d="M67.1602 7.28711H68.1702V14.3747H67.1602V7.28711Z" fill="#252F4A"/>
<path d="M69.5764 11.8247C69.5443 11.4897 69.5828 11.1517 69.6894 10.8324C69.7961 10.513 69.9686 10.2194 70.1959 9.97038C70.4231 9.72133 70.7001 9.52235 71.0091 9.38619C71.3181 9.25002 71.6523 9.17969 71.9901 9.17969C72.328 9.17969 72.6621 9.25002 72.9711 9.38619C73.2801 9.52235 73.5571 9.72133 73.7844 9.97038C74.0116 10.2194 74.1841 10.513 74.2908 10.8324C74.3975 11.1517 74.436 11.4897 74.4038 11.8247C74.4366 12.1601 74.3985 12.4986 74.2921 12.8184C74.1857 13.1382 74.0133 13.4324 73.786 13.6819C73.5587 13.9314 73.2815 14.1308 72.9722 14.2672C72.6629 14.4037 72.3284 14.4742 71.9901 14.4742C71.6519 14.4742 71.3173 14.4037 71.0081 14.2672C70.6988 14.1308 70.4216 13.9314 70.1942 13.6819C69.9669 13.4324 69.7945 13.1382 69.6881 12.8184C69.5817 12.4986 69.5437 12.1601 69.5764 11.8247ZM73.3644 11.8247C73.3644 10.7198 72.8661 10.0736 71.9915 10.0736C71.1136 10.0736 70.6197 10.7198 70.6197 11.8248C70.6197 12.9386 71.1136 13.5798 71.9915 13.5798C72.8661 13.5798 73.3644 12.9341 73.3644 11.8247Z" fill="#252F4A"/>
<path d="M75.4662 12.9341C75.4662 12.0165 76.1521 11.4875 77.3696 11.4123L78.7559 11.3327V10.8927C78.7559 10.3543 78.3985 10.0503 77.7082 10.0503C77.1444 10.0503 76.7537 10.2565 76.6416 10.6169H75.6638C75.767 9.7413 76.5939 9.17969 77.7548 9.17969C79.0378 9.17969 79.7614 9.81591 79.7614 10.8927V14.3757H78.7892V13.6593H78.7093C78.5471 13.9163 78.3193 14.1258 78.0493 14.2664C77.7792 14.407 77.4765 14.4737 77.1721 14.4597C76.9573 14.482 76.7401 14.4591 76.5347 14.3927C76.3292 14.3262 76.1401 14.2177 75.9793 14.0739C75.8186 13.9302 75.6899 13.7545 75.6015 13.5582C75.5132 13.3618 75.4671 13.1493 75.4662 12.9341ZM78.7559 12.4985V12.0723L77.5062 12.1519C76.8014 12.1989 76.4817 12.4377 76.4817 12.8871C76.4817 13.3459 76.8813 13.6129 77.4307 13.6129C77.5917 13.6291 77.7543 13.6129 77.9089 13.5653C78.0635 13.5176 78.2068 13.4395 78.3305 13.3355C78.4541 13.2316 78.5555 13.1039 78.6286 12.9601C78.7017 12.8163 78.745 12.6593 78.7559 12.4985Z" fill="#252F4A"/>
<path d="M81.0874 11.8237C81.0874 10.2129 81.9187 9.19253 83.2117 9.19253C83.5315 9.17785 83.849 9.25415 84.1269 9.41253C84.4048 9.5709 84.6317 9.80479 84.7811 10.0869H84.8566V7.28711H85.8665V14.3747H84.8987V13.5693H84.8188C84.6579 13.8495 84.4231 14.0805 84.1398 14.2373C83.8565 14.3941 83.5356 14.4706 83.2117 14.4588C81.9098 14.4588 81.0874 13.4384 81.0874 11.8237ZM82.1307 11.8237C82.1307 12.9049 82.6424 13.5556 83.4981 13.5556C84.3494 13.5556 84.8755 12.8956 84.8755 11.8281C84.8755 10.7657 84.3438 10.0963 83.4981 10.0963C82.6479 10.0963 82.1307 10.7513 82.1307 11.8237Z" fill="#252F4A"/>
<path d="M90.0439 11.8246C90.0118 11.4896 90.0502 11.1516 90.1569 10.8323C90.2635 10.513 90.436 10.2194 90.6632 9.97036C90.8905 9.72133 91.1675 9.52235 91.4764 9.38618C91.7854 9.25002 92.1195 9.17969 92.4574 9.17969C92.7952 9.17969 93.1293 9.25002 93.4383 9.38618C93.7473 9.52235 94.0242 9.72133 94.2515 9.97036C94.4787 10.2194 94.6512 10.513 94.7578 10.8323C94.8645 11.1516 94.903 11.4896 94.8708 11.8246C94.9036 12.16 94.8656 12.4985 94.7592 12.8183C94.6528 13.1381 94.4804 13.4323 94.2531 13.6818C94.0259 13.9313 93.7487 14.1307 93.4394 14.2672C93.1301 14.4036 92.7956 14.4741 92.4574 14.4741C92.1191 14.4741 91.7846 14.4036 91.4753 14.2672C91.166 14.1307 90.8889 13.9313 90.6616 13.6818C90.4343 13.4323 90.2619 13.1381 90.1555 12.8183C90.0492 12.4985 90.0111 12.16 90.0439 11.8246ZM93.8319 11.8246C93.8319 10.7197 93.3336 10.0735 92.459 10.0735C91.5811 10.0735 91.0872 10.7197 91.0872 11.8247C91.0872 12.9385 91.5811 13.5797 92.459 13.5797C93.3336 13.5797 93.8319 12.9341 93.8319 11.8246Z" fill="#252F4A"/>
<path d="M96.228 9.27529H97.2003V10.0851H97.2758C97.4038 9.79425 97.6197 9.55043 97.8935 9.38763C98.1672 9.22483 98.4852 9.15116 98.803 9.17689C99.052 9.15824 99.302 9.19564 99.5345 9.28632C99.7671 9.37699 99.9761 9.51862 100.146 9.70071C100.316 9.88279 100.443 10.1007 100.517 10.3382C100.591 10.5757 100.611 10.8268 100.574 11.0729V14.3729H99.5643V11.3255C99.5643 10.5063 99.207 10.0989 98.46 10.0989C98.2909 10.0911 98.1222 10.1197 97.9653 10.1829C97.8084 10.2462 97.667 10.3424 97.551 10.4651C97.4349 10.5878 97.3468 10.734 97.2928 10.8938C97.2388 11.0536 97.2201 11.2231 97.238 11.3907V14.373H96.228V9.27529Z" fill="#252F4A"/>
<path d="M106.279 8.00781V9.30019H107.388V10.1476H106.279V12.7688C106.279 13.3028 106.5 13.5366 107.002 13.5366C107.131 13.5362 107.26 13.5285 107.388 13.5134V14.3514C107.206 14.3837 107.022 14.4009 106.838 14.4028C105.715 14.4028 105.268 14.0092 105.268 13.0264V10.1475H104.455V9.30014H105.268V8.00781H106.279Z" fill="#252F4A"/>
<path d="M108.77 7.28711H109.771V10.0963H109.851C109.985 9.80273 110.207 9.55753 110.486 9.39412C110.765 9.23071 111.088 9.15703 111.411 9.18312C111.659 9.16969 111.907 9.21089 112.137 9.30377C112.366 9.39664 112.573 9.53892 112.741 9.72043C112.91 9.90194 113.036 10.1182 113.11 10.3539C113.185 10.5895 113.207 10.8386 113.174 11.0835V14.3748H112.163V11.3317C112.163 10.5175 111.782 10.1051 111.068 10.1051C110.895 10.0909 110.72 10.1147 110.557 10.1748C110.393 10.2348 110.245 10.3297 110.122 10.4528C110 10.5759 109.905 10.7243 109.846 10.8874C109.787 11.0506 109.764 11.2247 109.78 11.3975V14.3747H108.77L108.77 7.28711Z" fill="#252F4A"/>
<path d="M119.066 12.9994C118.929 13.4653 118.632 13.8683 118.226 14.1379C117.821 14.4075 117.333 14.5266 116.849 14.4742C116.512 14.4831 116.176 14.4187 115.867 14.2857C115.557 14.1526 115.28 13.9541 115.055 13.7037C114.83 13.4534 114.663 13.1573 114.564 12.836C114.466 12.5146 114.439 12.1758 114.485 11.843C114.44 11.5092 114.467 11.1696 114.566 10.8474C114.664 10.5251 114.831 10.2276 115.054 9.9751C115.278 9.72256 115.554 9.52086 115.863 9.38364C116.171 9.24643 116.506 9.1769 116.844 9.17977C118.268 9.17977 119.127 10.1488 119.127 11.7496V12.1006H115.514V12.157C115.498 12.3441 115.521 12.5324 115.583 12.7098C115.644 12.8873 115.742 13.05 115.871 13.1875C115.999 13.325 116.155 13.4342 116.328 13.5083C116.501 13.5823 116.688 13.6195 116.876 13.6174C117.118 13.6463 117.363 13.6029 117.58 13.4929C117.796 13.3829 117.975 13.2111 118.094 12.9994L119.066 12.9994ZM115.513 11.3566H118.098C118.111 11.1855 118.088 11.0136 118.03 10.8521C117.972 10.6905 117.881 10.5428 117.762 10.4184C117.643 10.2941 117.5 10.1958 117.341 10.1299C117.182 10.0641 117.011 10.0321 116.839 10.036C116.664 10.0338 116.491 10.0665 116.329 10.1321C116.167 10.1977 116.02 10.2949 115.897 10.418C115.773 10.541 115.676 10.6875 115.61 10.8487C115.544 11.0099 115.511 11.1826 115.513 11.3566Z" fill="#252F4A"/>
</g>
<defs>
<clipPath id="clip0_55_1854">
<rect width="136" height="40" fill="white"/>
</clipPath>
</defs>
</svg>
