<svg width="130" height="38" viewBox="0 0 130 38" fill="none" xmlns="http://www.w3.org/2000/svg">
<g clip-path="url(#clip0_2_471)">
<rect x="0.5" y="0.5" width="129" height="37" rx="7.5" stroke="#DBDBDB"/>
<path d="M26.9114 19.6802C26.923 18.7826 27.1639 17.9024 27.6115 17.1217C28.0591 16.3409 28.699 15.685 29.4715 15.2148C28.9807 14.521 28.3333 13.9499 27.5806 13.5471C26.828 13.1443 25.9908 12.9208 25.1356 12.8943C23.3113 12.7047 21.5427 13.975 20.6131 13.975C19.6655 13.975 18.2342 12.9131 16.6929 12.9445C15.696 12.9764 14.7244 13.2634 13.8728 13.7775C13.0212 14.2917 12.3187 15.0154 11.8337 15.8782C9.73261 19.4794 11.2998 24.7718 13.3124 27.6827C14.3194 29.1081 15.4962 30.7003 17.0361 30.6438C18.543 30.5819 19.1058 29.6926 20.9247 29.6926C22.7267 29.6926 23.2547 30.6438 24.8259 30.6079C26.4428 30.5819 27.4615 29.1762 28.4332 27.7373C29.1567 26.7217 29.7134 25.5992 30.0827 24.4114C29.1434 24.0181 28.3417 23.3597 27.7777 22.5184C27.2138 21.677 26.9125 20.69 26.9114 19.6802Z" fill="#F3F9FF"/>
<path d="M23.941 10.9806C24.8227 9.93289 25.257 8.58621 25.1518 7.22656C23.8049 7.36661 22.5607 8.00389 21.6672 9.01143C21.2303 9.50363 20.8957 10.0763 20.6825 10.6966C20.4693 11.3169 20.3817 11.9727 20.4247 12.6265C21.0984 12.6334 21.7649 12.4888 22.374 12.2037C22.9831 11.9186 23.5189 11.5004 23.941 10.9806Z" fill="#F3F9FF"/>
<path d="M45.9615 27.0384H40.8192L39.5843 30.6482H37.4062L42.2769 17.293H44.5398L49.4105 30.6482H47.1953L45.9615 27.0384ZM41.3518 25.3727H45.4279L43.4185 19.5143H43.3623L41.3518 25.3727Z" fill="#F3F9FF"/>
<path d="M59.929 25.7774C59.929 28.8032 58.2931 30.7473 55.8244 30.7473C55.199 30.7796 54.577 30.637 54.0297 30.3357C53.4824 30.0345 53.0319 29.5867 52.7297 29.0437H52.683V33.8665H50.6641V20.9084H52.6183V22.5279H52.6554C52.9715 21.9875 53.4297 21.542 53.9811 21.2389C54.5326 20.9358 55.1568 20.7864 55.7872 20.8065C58.2835 20.8065 59.929 22.76 59.929 25.7774ZM57.8539 25.7774C57.8539 23.8061 56.8248 22.51 55.2547 22.51C53.7121 22.51 52.6745 23.8334 52.6745 25.7774C52.6745 27.7393 53.7121 29.0532 55.2547 29.0532C56.8248 29.0532 57.8539 27.7666 57.8539 25.7774Z" fill="#F3F9FF"/>
<path d="M70.7572 25.7774C70.7572 28.8032 69.1212 30.7472 66.6525 30.7472C66.0271 30.7796 65.4052 30.637 64.8579 30.3357C64.3106 30.0345 63.86 29.5867 63.5578 29.0437H63.5111V33.8665H61.4922V20.9084H63.4464V22.5279H63.4835C63.7996 21.9875 64.2578 21.542 64.8092 21.2389C65.3607 20.9358 65.9849 20.7864 66.6153 20.8065C69.1117 20.8065 70.7572 22.76 70.7572 25.7774ZM68.682 25.7774C68.682 23.806 67.6529 22.51 66.0828 22.51C64.5402 22.51 63.5026 23.8333 63.5026 25.7774C63.5026 27.7393 64.5402 29.0532 66.0828 29.0532C67.6529 29.0532 68.682 27.7666 68.682 25.7774Z" fill="#F3F9FF"/>
<path d="M77.9104 26.9271C78.06 28.2515 79.3597 29.1211 81.1356 29.1211C82.8373 29.1211 84.0616 28.2515 84.0616 27.0573C84.0616 26.0207 83.3232 25.4 81.5748 24.9746L79.8265 24.5577C77.3492 23.9653 76.1992 22.8184 76.1992 20.9573C76.1992 18.6531 78.2277 17.0703 81.108 17.0703C83.9587 17.0703 85.9129 18.6531 85.9787 20.9573H83.9406C83.8186 19.6246 82.7057 18.8201 81.0794 18.8201C79.453 18.8201 78.3401 19.634 78.3401 20.8187C78.3401 21.7629 79.0509 22.3185 80.7897 22.7438L82.2761 23.1051C85.044 23.7531 86.194 24.8538 86.194 26.8073C86.194 29.3059 84.1836 30.8708 80.986 30.8708C77.9942 30.8708 75.9742 29.3426 75.8438 26.927L77.9104 26.9271Z" fill="#F3F9FF"/>
<path d="M90.5523 18.6094V20.9137H92.4227V22.4964H90.5523V27.8643C90.5523 28.6982 90.9268 29.0868 91.749 29.0868C91.9711 29.083 92.1928 29.0676 92.4132 29.0406V30.6139C92.0435 30.6823 91.6678 30.7132 91.2918 30.7063C89.3004 30.7063 88.5239 29.9659 88.5239 28.0775V22.4964H87.0938V20.9137H88.5238V18.6094H90.5523Z" fill="#F3F9FF"/>
<path d="M93.5 25.7778C93.5 22.7142 95.3226 20.7891 98.1648 20.7891C101.017 20.7891 102.831 22.7142 102.831 25.7778C102.831 28.8499 101.026 30.7666 98.1648 30.7666C95.3046 30.7666 93.5 28.8498 93.5 25.7778ZM100.774 25.7778C100.774 23.6762 99.8008 22.4359 98.1648 22.4359C96.5289 22.4359 95.5571 23.6857 95.5571 25.7778C95.5571 27.8878 96.5289 29.1187 98.1648 29.1187C99.8008 29.1187 100.774 27.8878 100.774 25.7778Z" fill="#F3F9FF"/>
<path d="M104.5 20.9083H106.426V22.5656H106.472C106.603 22.048 106.909 21.5905 107.34 21.2702C107.771 20.9498 108.3 20.786 108.838 20.8064C109.071 20.8056 109.303 20.8306 109.53 20.881V22.7504C109.236 22.6616 108.93 22.6208 108.623 22.6296C108.329 22.6179 108.037 22.6691 107.766 22.7797C107.494 22.8904 107.25 23.0579 107.05 23.2707C106.85 23.4835 106.699 23.7366 106.608 24.0127C106.516 24.2887 106.486 24.5811 106.519 24.8699V30.6453H104.5L104.5 20.9083Z" fill="#F3F9FF"/>
<path d="M118.833 27.7859C118.562 29.5535 116.823 30.7666 114.598 30.7666C111.737 30.7666 109.961 28.8687 109.961 25.824C109.961 22.7699 111.746 20.7891 114.513 20.7891C117.235 20.7891 118.946 22.6396 118.946 25.5919V26.2767H111.999V26.3975C111.967 26.7558 112.012 27.1168 112.132 27.4565C112.252 27.7962 112.443 28.1068 112.693 28.3676C112.943 28.6285 113.247 28.8336 113.583 28.9695C113.92 29.1053 114.282 29.1687 114.645 29.1555C115.122 29.1997 115.601 29.0903 116.01 28.8436C116.419 28.5968 116.737 28.2259 116.916 27.7859L118.833 27.7859ZM112.008 24.8798H116.926C116.944 24.5576 116.895 24.2352 116.781 23.9328C116.667 23.6303 116.492 23.3544 116.265 23.1224C116.038 22.8903 115.766 22.7071 115.464 22.5843C115.163 22.4615 114.839 22.4016 114.513 22.4086C114.185 22.4066 113.859 22.4692 113.554 22.5926C113.25 22.716 112.974 22.8978 112.741 23.1276C112.508 23.3573 112.323 23.6304 112.198 23.9312C112.072 24.232 112.008 24.5544 112.008 24.8798Z" fill="#F3F9FF"/>
<path d="M41.0914 7.23775C41.5147 7.20768 41.9394 7.27098 42.335 7.42309C42.7306 7.5752 43.0871 7.81232 43.3789 8.11735C43.6707 8.42238 43.8904 8.78772 44.0223 9.18701C44.1542 9.5863 44.1949 10.0096 44.1416 10.4264C44.1416 12.4765 43.0223 13.6549 41.0914 13.6549H38.75V7.23775H41.0914ZM39.7568 12.7474H40.979C41.2814 12.7653 41.5841 12.7162 41.865 12.6037C42.1458 12.4912 42.3978 12.3181 42.6026 12.097C42.8074 11.8759 42.9598 11.6124 43.0487 11.3257C43.1376 11.0389 43.1609 10.7362 43.1167 10.4394C43.1577 10.1439 43.1321 9.84297 43.0418 9.55833C42.9515 9.27369 42.7987 9.01235 42.5944 8.79303C42.3901 8.57371 42.1393 8.40184 41.86 8.28973C41.5807 8.17763 41.2799 8.12807 40.979 8.1446H39.7568V12.7474Z" fill="#F3F9FF"/>
<path d="M45.2765 11.2315C45.2458 10.9132 45.2826 10.5921 45.3845 10.2887C45.4865 9.98539 45.6513 9.70648 45.8685 9.46989C46.0857 9.23331 46.3505 9.04427 46.6458 8.91492C46.9412 8.78557 47.2605 8.71875 47.5835 8.71875C47.9064 8.71875 48.2258 8.78557 48.5212 8.91492C48.8165 9.04427 49.0812 9.23331 49.2985 9.46989C49.5157 9.70648 49.6805 9.98539 49.7825 10.2887C49.8844 10.5921 49.9212 10.9132 49.8904 11.2315C49.9218 11.55 49.8854 11.8716 49.7838 12.1754C49.6821 12.4793 49.5173 12.7587 49.3001 12.9958C49.0828 13.2328 48.8178 13.4222 48.5222 13.5519C48.2266 13.6815 47.9068 13.7485 47.5835 13.7485C47.2602 13.7485 46.9404 13.6815 46.6448 13.5519C46.3492 13.4222 46.0842 13.2328 45.8669 12.9958C45.6497 12.7587 45.4849 12.4793 45.3832 12.1754C45.2815 11.8716 45.2452 11.55 45.2765 11.2315ZM48.8974 11.2315C48.8974 10.1817 48.4211 9.56784 47.5851 9.56784C46.7459 9.56784 46.2738 10.1817 46.2738 11.2315C46.2738 12.2896 46.7459 12.8988 47.5851 12.8988C48.4211 12.8988 48.8974 12.2854 48.8974 11.2315Z" fill="#F3F9FF"/>
<path d="M56.022 13.6553H55.0206L54.0095 10.0886H53.9331L52.9263 13.6553H51.9344L50.5859 8.8125H51.5652L52.4415 12.5078H52.5136L53.5194 8.8125H54.4455L55.4513 12.5078H55.5277L56.3997 8.8125H57.3652L56.022 13.6553Z" fill="#F3F9FF"/>
<path d="M58.5078 8.80919H59.4372V9.5785H59.5093C59.6317 9.30219 59.8381 9.07056 60.0998 8.91591C60.3615 8.76125 60.6654 8.69126 60.9691 8.7157C61.2072 8.69799 61.4462 8.73352 61.6684 8.81966C61.8907 8.9058 62.0905 9.04035 62.2532 9.21333C62.4158 9.38631 62.537 9.5933 62.6078 9.81895C62.6786 10.0446 62.6973 10.2831 62.6623 10.5169V13.6519H61.6969V10.7569C61.6969 9.97866 61.3553 9.59163 60.6413 9.59163C60.4797 9.58418 60.3184 9.61141 60.1684 9.67146C60.0184 9.7315 59.8833 9.82294 59.7724 9.9395C59.6614 10.0561 59.5773 10.195 59.5256 10.3468C59.474 10.4986 59.4561 10.6596 59.4732 10.8189V13.652H58.5078L58.5078 8.80919Z" fill="#F3F9FF"/>
<path d="M64.1953 6.92188H65.1607V13.6551H64.1953V6.92188Z" fill="#F3F9FF"/>
<path d="M66.5109 11.2315C66.4802 10.9133 66.517 10.5922 66.6189 10.2888C66.7209 9.98542 66.8858 9.70649 67.103 9.4699C67.3203 9.23331 67.585 9.04428 67.8804 8.91493C68.1757 8.78557 68.4951 8.71875 68.8181 8.71875C69.1411 8.71875 69.4605 8.78557 69.7558 8.91493C70.0512 9.04428 70.316 9.23331 70.5332 9.4699C70.7504 9.70649 70.9153 9.98542 71.0173 10.2888C71.1193 10.5922 71.1561 10.9133 71.1253 11.2315C71.1566 11.5501 71.1203 11.8717 71.0185 12.1755C70.9168 12.4794 70.752 12.7588 70.5348 12.9958C70.3175 13.2329 70.0525 13.4223 69.7568 13.5519C69.4612 13.6816 69.1414 13.7485 68.8181 13.7485C68.4948 13.7485 68.175 13.6816 67.8794 13.5519C67.5837 13.4223 67.3187 13.2329 67.1015 12.9958C66.8842 12.7588 66.7194 12.4794 66.6177 12.1755C66.516 11.8717 66.4796 11.5501 66.5109 11.2315ZM70.1318 11.2315C70.1318 10.1818 69.6554 9.56793 68.8194 9.56793C67.9803 9.56793 67.5082 10.1818 67.5082 11.2316C67.5082 12.2897 67.9803 12.8989 68.8194 12.8989C69.6554 12.8988 70.1318 12.2855 70.1318 11.2315Z" fill="#F3F9FF"/>
<path d="M72.1406 12.2854C72.1406 11.4137 72.7963 10.9112 73.9601 10.8398L75.2852 10.7641V10.3461C75.2852 9.83465 74.9436 9.54583 74.2837 9.54583C73.7447 9.54583 73.3713 9.74171 73.2641 10.0841H72.3295C72.4281 9.25228 73.2185 8.71875 74.3282 8.71875C75.5546 8.71875 76.2464 9.32317 76.2464 10.3461V13.655H75.317V12.9744H75.2406C75.0856 13.2185 74.8679 13.4176 74.6097 13.5511C74.3516 13.6847 74.0622 13.7481 73.7712 13.7348C73.5659 13.7559 73.3583 13.7342 73.162 13.6711C72.9656 13.608 72.7847 13.5048 72.6311 13.3683C72.4775 13.2317 72.3545 13.0648 72.27 12.8783C72.1855 12.6918 72.1414 12.4898 72.1406 12.2854ZM75.2852 11.8716V11.4668L74.0906 11.5424C73.4169 11.587 73.1114 11.8139 73.1114 12.2408C73.1114 12.6767 73.4933 12.9303 74.0185 12.9303C74.1724 12.9457 74.3278 12.9303 74.4755 12.8851C74.6233 12.8398 74.7603 12.7656 74.8785 12.6668C74.9967 12.568 75.0936 12.4467 75.1635 12.3101C75.2333 12.1735 75.2747 12.0244 75.2852 11.8716Z" fill="#F3F9FF"/>
<path d="M77.5078 11.2317C77.5078 9.70142 78.3024 8.73202 79.5384 8.73202C79.8441 8.71808 80.1475 8.79057 80.4132 8.94102C80.6788 9.09147 80.8957 9.31367 81.0385 9.58165H81.1107V6.92188H82.0761V13.6551H81.151V12.89H81.0746C80.9208 13.1562 80.6963 13.3756 80.4255 13.5245C80.1547 13.6735 79.848 13.7462 79.5384 13.7349C78.294 13.735 77.5078 12.7656 77.5078 11.2317ZM78.5051 11.2317C78.5051 12.2588 78.9942 12.8769 79.8122 12.8769C80.6259 12.8769 81.1287 12.2499 81.1287 11.2359C81.1287 10.2266 80.6206 9.59061 79.8122 9.59061C78.9995 9.59061 78.5051 10.2129 78.5051 11.2317Z" fill="#F3F9FF"/>
<path d="M86.0734 11.2315C86.0427 10.9132 86.0794 10.5921 86.1814 10.2887C86.2833 9.98539 86.4482 9.70648 86.6654 9.46989C86.8826 9.23331 87.1474 9.04427 87.4427 8.91492C87.738 8.78557 88.0574 8.71875 88.3804 8.71875C88.7033 8.71875 89.0227 8.78557 89.318 8.91492C89.6134 9.04427 89.8781 9.23331 90.0953 9.46989C90.3125 9.70648 90.4774 9.98539 90.5793 10.2887C90.6813 10.5921 90.7181 10.9132 90.6873 11.2315C90.7187 11.55 90.6823 11.8716 90.5806 12.1754C90.479 12.4793 90.3142 12.7587 90.0969 12.9958C89.8797 13.2328 89.6147 13.4222 89.3191 13.5519C89.0234 13.6815 88.7037 13.7485 88.3804 13.7485C88.057 13.7485 87.7373 13.6815 87.4417 13.5519C87.146 13.4222 86.8811 13.2328 86.6638 12.9958C86.4465 12.7587 86.2818 12.4793 86.1801 12.1754C86.0784 11.8716 86.0421 11.55 86.0734 11.2315ZM89.6943 11.2315C89.6943 10.1817 89.2179 9.56784 88.382 9.56784C87.5428 9.56784 87.0707 10.1817 87.0707 11.2315C87.0707 12.2896 87.5428 12.8988 88.382 12.8988C89.218 12.8988 89.6943 12.2854 89.6943 11.2315Z" fill="#F3F9FF"/>
<path d="M91.9844 8.80919H92.9137V9.5785H92.9859C93.1083 9.30219 93.3147 9.07056 93.5764 8.91591C93.838 8.76125 94.1419 8.69126 94.4457 8.7157C94.6837 8.69799 94.9227 8.73352 95.145 8.81966C95.3673 8.9058 95.5671 9.04035 95.7297 9.21333C95.8923 9.38631 96.0135 9.5933 96.0844 9.81895C96.1552 10.0446 96.1738 10.2831 96.1389 10.5169V13.6519H95.1735V10.7569C95.1735 9.97866 94.8319 9.59163 94.1179 9.59163C93.9563 9.58418 93.7949 9.61141 93.645 9.67146C93.495 9.7315 93.3599 9.82294 93.2489 9.9395C93.138 10.0561 93.0538 10.195 93.0022 10.3468C92.9506 10.4986 92.9327 10.6596 92.9498 10.8189V13.652H91.9844V8.80919Z" fill="#F3F9FF"/>
<path d="M101.587 7.60938V8.83713H102.647V9.64217H101.587V12.1323C101.587 12.6396 101.798 12.8618 102.279 12.8618C102.402 12.8614 102.525 12.854 102.647 12.8397V13.6358C102.473 13.6665 102.298 13.6828 102.122 13.6846C101.048 13.6846 100.62 13.3107 100.62 12.377V9.64212H99.8438V8.83709H100.62V7.60938H101.587Z" fill="#F3F9FF"/>
<path d="M103.969 6.92188H104.926V9.5906H105.002C105.13 9.31171 105.342 9.07877 105.609 8.92353C105.876 8.76829 106.185 8.6983 106.494 8.72309C106.73 8.71033 106.967 8.74947 107.187 8.8377C107.407 8.92593 107.604 9.06109 107.765 9.23353C107.926 9.40597 108.046 9.61144 108.118 9.83528C108.189 10.0591 108.21 10.2958 108.178 10.5285V13.6551H107.212V10.7643C107.212 9.99074 106.848 9.59899 106.166 9.59899C106 9.58552 105.833 9.6081 105.677 9.66516C105.521 9.72222 105.379 9.81237 105.262 9.92932C105.144 10.0463 105.054 10.1872 104.998 10.3422C104.941 10.4972 104.919 10.6626 104.934 10.8268V13.6551H103.969L103.969 6.92188Z" fill="#F3F9FF"/>
<path d="M113.807 12.3475C113.675 12.7901 113.391 13.1729 113.004 13.4291C112.616 13.6852 112.15 13.7983 111.687 13.7485C111.365 13.757 111.044 13.6959 110.748 13.5695C110.452 13.4431 110.188 13.2544 109.972 13.0166C109.757 12.7787 109.597 12.4974 109.503 12.1922C109.409 11.887 109.383 11.5651 109.427 11.2489C109.384 10.9318 109.411 10.6092 109.505 10.3031C109.599 9.9969 109.758 9.7143 109.972 9.47439C110.186 9.23448 110.449 9.04286 110.744 8.91251C111.039 8.78215 111.359 8.7161 111.683 8.71883C113.044 8.71883 113.865 9.63943 113.865 11.1602V11.4936H110.411V11.5472C110.395 11.7249 110.418 11.9038 110.477 12.0724C110.536 12.241 110.629 12.3955 110.752 12.5261C110.875 12.6568 111.024 12.7606 111.189 12.8309C111.355 12.9012 111.533 12.9365 111.713 12.9346C111.944 12.962 112.178 12.9208 112.386 12.8163C112.593 12.7118 112.764 12.5486 112.877 12.3475L113.807 12.3475ZM110.411 10.7868H112.881C112.894 10.6243 112.871 10.461 112.816 10.3075C112.761 10.154 112.673 10.0137 112.56 9.89556C112.447 9.77741 112.309 9.68405 112.157 9.62149C112.005 9.55892 111.842 9.52853 111.677 9.53226C111.51 9.53019 111.345 9.56122 111.19 9.62354C111.035 9.68586 110.895 9.7782 110.777 9.89512C110.659 10.012 110.565 10.1512 110.503 10.3043C110.44 10.4574 110.408 10.6215 110.411 10.7868Z" fill="#F3F9FF"/>
</g>
<defs>
<clipPath id="clip0_2_471">
<rect width="130" height="38" fill="white"/>
</clipPath>
</defs>
</svg>
