<svg width="66" height="66" viewBox="0 0 66 66" fill="none" xmlns="http://www.w3.org/2000/svg">
<path d="M15.6758 59.1829L30.7497 44.1087L41.5169 54.8759L58.7444 37.6484" stroke="#7A6CF0" stroke-width="3.5"/>
<path d="M44.2188 37.6484H58.7458V52.1757" stroke="#7A6CF0" stroke-width="3.5"/>
<path d="M19.613 43.5571C11.7928 41.1489 6.10938 33.866 6.10938 25.2558C6.10938 14.6814 14.6814 6.10938 25.2555 6.10938C35.8299 6.10938 44.4019 14.6814 44.4019 25.2558C44.4019 26.9213 44.1894 28.5373 43.7896 30.0779" stroke="#7A6CF0" stroke-width="3.5"/>
<path d="M25.2539 18.0511V13.2656" stroke="#7A6CF0" stroke-width="3.5"/>
<path d="M25.2539 37.1917V32.4062" stroke="#7A6CF0" stroke-width="3.5"/>
<path d="M30.6342 21.6438V20.4474C30.6342 19.1258 29.563 18.0547 28.2414 18.0547H22.2599C20.9383 18.0547 19.8672 19.1258 19.8672 20.4474V21.519C19.8672 22.6404 20.6461 23.6114 21.7408 23.8547L28.7608 25.4146C29.8555 25.6579 30.6342 26.629 30.6342 27.7505V30.0183C30.6342 31.3398 29.563 32.411 28.2414 32.411H22.2599C20.9383 32.411 19.8672 31.3398 19.8672 30.0183V28.8219" stroke="#7A6CF0" stroke-width="3.5"/>
</svg>
