<svg width="66" height="66" viewBox="0 0 66 66" fill="none" xmlns="http://www.w3.org/2000/svg">
<path d="M6.24219 55.0559C6.2425 51.7037 7.034 48.399 8.55233 45.4103C10.0707 42.4217 12.2729 39.8336 14.9801 37.8566C17.6872 35.8796 20.8228 34.5694 24.1317 34.0326C27.4406 33.4959 30.8296 33.7477 34.0228 34.7676" stroke="#7A6CF0" stroke-width="3.5" stroke-linecap="square" stroke-linejoin="round"/>
<path d="M27.543 33.7579C34.8953 33.7579 40.8556 27.7977 40.8556 20.4454C40.8556 13.093 34.8953 7.13281 27.543 7.13281C20.1907 7.13281 14.2305 13.093 14.2305 20.4454C14.2305 27.7977 20.1907 33.7579 27.543 33.7579Z" stroke="#7A6CF0" stroke-width="3.5" stroke-linecap="round" stroke-linejoin="round"/>
<path d="M59.6045 47.5549C59.6045 54.0621 55.0494 57.3158 49.6354 59.2029C49.3519 59.299 49.0439 59.2944 48.7634 59.1899C43.3363 57.3158 38.7812 54.0621 38.7812 47.5549V38.4447C38.7812 38.0995 38.9184 37.7685 39.1624 37.5244C39.4065 37.2803 39.7375 37.1432 40.0827 37.1432C42.6856 37.1432 45.9392 35.5815 48.2038 33.6033C48.4795 33.3677 48.8302 33.2383 49.1929 33.2383C49.5555 33.2383 49.9063 33.3677 50.182 33.6033C52.4595 35.5945 55.7002 37.1432 58.3031 37.1432C58.6482 37.1432 58.9793 37.2803 59.2233 37.5244C59.4674 37.7685 59.6045 38.0995 59.6045 38.4447V47.5549Z" stroke="#7A6CF0" stroke-width="3" stroke-linecap="round" stroke-linejoin="round"/>
<path d="M45.2852 46.2553L47.8881 48.8582L53.0939 43.6523" stroke="#7A6CF0" stroke-width="3" stroke-linecap="round" stroke-linejoin="round"/>
</svg>
