<svg width="66" height="66" viewBox="0 0 66 66" fill="none" xmlns="http://www.w3.org/2000/svg">
<path d="M27.6172 35.6911C28.7048 37.1452 30.0925 38.3483 31.6861 39.219C33.2796 40.0896 35.0417 40.6073 36.853 40.737C38.6642 40.8667 40.4821 40.6054 42.1835 39.9708C43.8848 39.3361 45.4298 38.343 46.7135 37.0587L54.3115 29.4607C56.6183 27.0724 57.8947 23.8736 57.8658 20.5533C57.837 17.233 56.5052 14.0569 54.1573 11.709C51.8094 9.36112 48.6333 8.02933 45.313 8.00048C41.9927 7.97163 38.7939 9.24802 36.4056 11.5548L32.0494 15.8856" stroke="#7A6CF0" stroke-width="3.5" stroke-linecap="square" stroke-linejoin="round"/>
<path d="M37.7491 30.6252C36.6614 29.1711 35.2738 27.9679 33.6802 27.0973C32.0867 26.2267 30.3246 25.7089 28.5133 25.5792C26.7021 25.4495 24.8842 25.7108 23.1828 26.3455C21.4815 26.9801 19.9365 27.9733 18.6528 29.2575L11.0548 36.8555C8.74802 39.2439 7.47163 42.4427 7.50048 45.7629C7.52933 49.0832 8.86112 52.2594 11.209 54.6073C13.5569 56.9551 16.733 58.2869 20.0533 58.3158C23.3736 58.3446 26.5724 57.0682 28.9607 54.7615L33.2916 50.4306" stroke="#7A6CF0" stroke-width="3.5" stroke-linecap="square" stroke-linejoin="round"/>
</svg>
