<svg width="66" height="66" viewBox="0 0 66 66" fill="none" xmlns="http://www.w3.org/2000/svg">
<path d="M28.1172 35.6911C29.2048 37.1452 30.5925 38.3483 32.1861 39.219C33.7796 40.0896 35.5417 40.6073 37.353 40.737C39.1642 40.8667 40.9821 40.6054 42.6835 39.9708C44.3848 39.3361 45.9298 38.343 47.2135 37.0587L54.8115 29.4607C57.1183 27.0724 58.3947 23.8736 58.3658 20.5533C58.337 17.233 57.0052 14.0569 54.6573 11.709C52.3094 9.36112 49.1333 8.02933 45.813 8.00048C42.4927 7.97163 39.2939 9.24802 36.9056 11.5548L32.5494 15.8856" stroke="#7A6CF0" stroke-width="3.5" stroke-linecap="square" stroke-linejoin="round"/>
<path d="M38.2491 30.6253C37.1614 29.1712 35.7738 27.968 34.1802 27.0974C32.5867 26.2268 30.8246 25.7091 29.0133 25.5794C27.2021 25.4496 25.3842 25.711 23.6828 26.3456C21.9815 26.9803 20.4365 27.9734 19.1528 29.2576L11.5548 36.8556C9.24802 39.244 7.97163 42.4428 8.00048 45.7631C8.02933 49.0834 9.36112 52.2595 11.709 54.6074C14.0569 56.9553 17.233 58.2871 20.5533 58.3159C23.8736 58.3448 27.0724 57.0684 29.4607 54.7616L33.7916 50.4308" stroke="#7A6CF0" stroke-width="3.5" stroke-linecap="square" stroke-linejoin="round"/>
</svg>
