<svg width="66" height="66" viewBox="0 0 66 66" fill="none" xmlns="http://www.w3.org/2000/svg">
<path d="M33.2162 35.9442C40.6793 35.9442 46.7293 29.8941 46.7293 22.4311C46.7293 14.968 40.6793 8.91797 33.2162 8.91797C25.7531 8.91797 19.7031 14.968 19.7031 22.4311C19.7031 29.8941 25.7531 35.9442 33.2162 35.9442Z" stroke="#7A6CF0" stroke-width="3.5" stroke-linecap="round" stroke-linejoin="round"/>
<path d="M54.8366 57.5667C54.8366 51.8324 52.5586 46.3329 48.5038 42.2781C44.449 38.2233 38.9495 35.9453 33.2152 35.9453C27.4808 35.9453 21.9813 38.2233 17.9265 42.2781C13.8717 46.3329 11.5938 51.8324 11.5938 57.5667" stroke="#7A6CF0" stroke-width="3.5" stroke-linecap="square" stroke-linejoin="round"/>
<path d="M36.5648 58.864H29.4297L31.5283 44.5938H34.4663L36.5648 58.864Z" fill="#7A6CF0"/>
<path d="M29.7111 35.8741L36.7227 35.8741L34.6604 41.1328L31.7733 41.1328L29.7111 35.8741Z" fill="#7A6CF0"/>
</svg>
