<svg width="67" height="66" viewBox="0 0 67 66" fill="none" xmlns="http://www.w3.org/2000/svg">
<path d="M57.75 33C57.75 26.4359 55.1424 20.1406 50.5009 15.4991C45.8594 10.8576 39.5641 8.25 33 8.25C26.0809 8.27603 19.4397 10.9759 14.465 15.785L8.25 22" stroke="#7A6CF0" stroke-width="3.5" stroke-linecap="square" stroke-linejoin="round"/>
<path d="M7 14V23H16" stroke="#7A6CF0" stroke-width="3.5" stroke-linecap="square" stroke-linejoin="round"/>
<path d="M8.25 33C8.25 39.5641 10.8576 45.8594 15.4991 50.5009C20.1406 55.1424 26.4359 57.75 33 57.75C39.9191 57.724 46.5603 55.0241 51.535 50.215L57.75 44" stroke="#7A6CF0" stroke-width="3.5" stroke-linecap="square" stroke-linejoin="round"/>
<path d="M50 43H59V52" stroke="#7A6CF0" stroke-width="3.5" stroke-linecap="square" stroke-linejoin="round"/>
<path d="M33.25 26.0511V21.2656" stroke="#7A6CF0" stroke-width="3.5"/>
<path d="M33.25 45.1956V40.4102" stroke="#7A6CF0" stroke-width="3.5"/>
<path d="M38.6342 29.6438V28.4474C38.6342 27.1258 37.563 26.0547 36.2414 26.0547H30.2599C28.9383 26.0547 27.8672 27.1258 27.8672 28.4474V29.519C27.8672 30.6404 28.6461 31.6114 29.7408 31.8547L36.7608 33.4146C37.8555 33.6579 38.6342 34.629 38.6342 35.7505V38.0183C38.6342 39.3398 37.563 40.411 36.2414 40.411H30.2599C28.9383 40.411 27.8672 39.3398 27.8672 38.0183V36.8219" stroke="#7A6CF0" stroke-width="3.5"/>
</svg>
