<svg width="66" height="66" viewBox="0 0 66 66" fill="none" xmlns="http://www.w3.org/2000/svg">
<path d="M39.8563 56.1641H15.1641" stroke="#7A6CF0" stroke-width="3.5" stroke-linecap="square" stroke-linejoin="round"/>
<path d="M46.9039 62.8079C50.4752 62.8079 53.3704 59.9127 53.3704 56.3414C53.3704 52.7701 50.4752 49.875 46.9039 49.875C43.3326 49.875 40.4375 52.7701 40.4375 56.3414C40.4375 59.9127 43.3326 62.8079 46.9039 62.8079Z" stroke="#7A6CF0" stroke-width="3.5" stroke-linecap="round" stroke-linejoin="round"/>
<path d="M54.4071 38.7617H56.1571V35.2617H54.4071V38.7617ZM29.7148 35.2617C28.7483 35.2617 27.9648 36.0452 27.9648 37.0117C27.9648 37.9782 28.7483 38.7617 29.7148 38.7617V35.2617ZM54.4071 35.2617H29.7148V38.7617H54.4071V35.2617Z" fill="#7A6CF0"/>
<path d="M22.1227 42.7922C25.694 42.7922 28.5891 39.8971 28.5891 36.3258C28.5891 32.7545 25.694 29.8594 22.1227 29.8594C18.5514 29.8594 15.6562 32.7545 15.6562 36.3258C15.6562 39.8971 18.5514 42.7922 22.1227 42.7922Z" stroke="#7A6CF0" stroke-width="3.5" stroke-linecap="round" stroke-linejoin="round"/>
<path d="M39.8563 17.1523H15.1641" stroke="#7A6CF0" stroke-width="3.5" stroke-linecap="square" stroke-linejoin="round"/>
<path d="M48.4782 24.011C52.0495 24.011 54.9446 21.1159 54.9446 17.5446C54.9446 13.9732 52.0495 11.0781 48.4782 11.0781C44.9068 11.0781 42.0117 13.9732 42.0117 17.5446C42.0117 21.1159 44.9068 24.011 48.4782 24.011Z" stroke="#7A6CF0" stroke-width="3.5" stroke-linecap="round" stroke-linejoin="round"/>
</svg>
