<svg width="22" height="22" viewBox="0 0 22 22" fill="none" xmlns="http://www.w3.org/2000/svg">
<path d="M12.3508 21.0846H9.8538C9.21353 21.0846 8.70132 20.5456 8.70132 19.8797V12.3331H6.65248C6.01221 12.3331 5.5 11.794 5.5 11.1281V8.94024C5.5 8.27436 6.01221 7.73532 6.65248 7.73532H8.63729V5.73768C8.63729 2.85219 10.366 0.917969 12.9271 0.917969H14.8479C15.4881 0.917969 16.0003 1.45701 16.0003 2.1229V4.69129C16.0003 5.35717 15.4881 5.89622 14.8479 5.89622H13.4713V7.70361H15.296C15.6802 7.73532 16.0003 7.89386 16.2244 8.14753C16.4485 8.43291 16.5446 8.81341 16.4805 9.1622L16.0964 11.3184C16.0323 11.8891 15.5521 12.3014 14.9439 12.3014H13.4713V19.8797C13.4713 20.5139 12.9591 21.0846 12.3508 21.0846ZM9.24554 11.2233C9.56568 11.2233 9.82178 11.4769 9.82178 11.794V19.8797C9.82178 19.9431 9.8538 19.9748 9.8538 19.9748H12.3508C12.3508 19.9748 12.3828 19.9431 12.3828 19.8797V11.7306C12.3828 11.4135 12.6389 11.1598 12.9591 11.1598H14.9759C14.9759 11.1598 15.0079 11.1598 15.0079 11.1281V11.0964L15.3921 8.97195C15.3921 8.90853 15.3921 8.87683 15.3601 8.84512C15.3601 8.84512 15.3281 8.81341 15.296 8.81341H12.9271C12.6069 8.81341 12.3508 8.55974 12.3508 8.24265V5.99134C12.3508 5.42059 12.4469 4.78642 13.5353 4.78642H14.8479C14.8479 4.78642 14.8799 4.75471 14.8799 4.69129V2.1546C14.8799 2.09119 14.8479 2.05948 14.8479 2.05948H12.9591C11.0383 2.05948 9.78977 3.51807 9.78977 5.76938V8.33778C9.78977 8.65487 9.53366 8.90853 9.21353 8.90853H6.65248C6.65248 8.90853 6.62046 8.94024 6.62046 9.00366V11.1916C6.62046 11.255 6.65248 11.2867 6.65248 11.2867L9.24554 11.2233Z" fill="#F6F6F6"/>
</svg>
