<svg width="26" height="26" viewBox="0 0 26 26" fill="none" xmlns="http://www.w3.org/2000/svg">
<path d="M14.5964 24.9193H11.6454C10.8887 24.9193 10.2834 24.2822 10.2834 23.4953V14.5765H7.86202C7.10534 14.5765 6.5 13.9394 6.5 13.1525V10.5668C6.5 9.77986 7.10534 9.1428 7.86202 9.1428H10.2077V6.78195C10.2077 3.37184 12.2507 1.08594 15.2774 1.08594H17.5475C18.3041 1.08594 18.9095 1.72299 18.9095 2.50994V5.54532C18.9095 6.33227 18.3041 6.96932 17.5475 6.96932H15.9206V9.10533H18.0771C18.5311 9.1428 18.9095 9.33017 19.1743 9.62996C19.4392 9.96723 19.5527 10.4169 19.477 10.8291L19.023 13.3773C18.9473 14.0519 18.3798 14.539 17.661 14.539H15.9206V23.4953C15.9206 24.2447 15.3153 24.9193 14.5964 24.9193ZM10.9266 13.2649C11.3049 13.2649 11.6076 13.5647 11.6076 13.9394V23.4953C11.6076 23.5702 11.6454 23.6077 11.6454 23.6077H14.5964C14.5964 23.6077 14.6343 23.5702 14.6343 23.4953V13.8645C14.6343 13.4898 14.9369 13.19 15.3153 13.19H17.6988C17.6988 13.19 17.7366 13.19 17.7366 13.1525V13.115L18.1906 10.6043C18.1906 10.5293 18.1906 10.4919 18.1528 10.4544C18.1528 10.4544 18.115 10.4169 18.0771 10.4169H15.2774C14.8991 10.4169 14.5964 10.1171 14.5964 9.74238V7.08174C14.5964 6.40722 14.7099 5.65774 15.9963 5.65774H17.5475C17.5475 5.65774 17.5853 5.62027 17.5853 5.54532V2.54742C17.5853 2.47247 17.5475 2.43499 17.5475 2.43499H15.3153C13.0452 2.43499 11.5697 4.15879 11.5697 6.81943V9.8548C11.5697 10.2295 11.2671 10.5293 10.8887 10.5293H7.86202C7.86202 10.5293 7.82418 10.5668 7.82418 10.6418V13.2274C7.82418 13.3024 7.86202 13.3399 7.86202 13.3399L10.9266 13.2649Z" fill="#252F4A"/>
</svg>
