<svg width="60" height="60" viewBox="0 0 60 60" fill="none" xmlns="http://www.w3.org/2000/svg">
<rect width="60" height="60" rx="30" fill="#196FF1"/>
<path d="M54.7069 26.7752L49.6449 16.5518C49.4819 16.2224 49.2562 15.9287 48.9807 15.6873C48.7052 15.4459 48.3853 15.2617 48.0393 15.1451C47.6932 15.0285 47.3278 14.9818 46.9639 15.0078C46.6 15.0337 46.2447 15.1317 45.9183 15.2962L40.8464 17.8555L30.3036 15.0399C30.1045 14.9878 29.8955 14.9878 29.6964 15.0399L19.1536 17.8555L14.0837 15.2962C13.7572 15.1314 13.4017 15.0331 13.0376 15.007C12.6735 14.981 12.3078 15.0275 11.9615 15.1442C11.6153 15.2608 11.2952 15.4451 11.0195 15.6867C10.7439 15.9282 10.5181 16.2222 10.3551 16.5518L5.29309 26.7752C4.96376 27.4402 4.90962 28.21 5.14256 28.9153C5.37551 29.6206 5.87647 30.2036 6.53529 30.5362L11.9227 33.2557L22.9576 41.2102C23.0772 41.2972 23.2118 41.361 23.3545 41.3984L36.0542 44.6026C36.1509 44.6271 36.2502 44.6392 36.3499 44.6386C36.6655 44.6384 36.9682 44.5116 37.1912 44.2862L48.1666 33.2097L53.4647 30.5362C54.1235 30.2036 54.6245 29.6206 54.8574 28.9153C55.0904 28.21 55.0362 27.4402 54.7069 26.7752ZM44.19 33.8165L37.086 28.0729C36.8569 27.8879 36.5682 27.7947 36.2752 27.8114C35.9822 27.828 35.7057 27.9532 35.4986 28.1631C31.7978 31.926 27.6605 31.4514 25.0233 29.7491C24.9714 29.7169 24.9277 29.673 24.8953 29.6209C24.863 29.5688 24.8429 29.5099 24.8368 29.4487C24.8297 29.3927 24.8352 29.3357 24.8527 29.282C24.8702 29.2283 24.8993 29.1792 24.938 29.1383L33.6571 20.6072H40.3761L46.0136 31.9861L44.19 33.8165ZM7.40045 28.155C7.36764 28.0546 7.37548 27.9452 7.42228 27.8506L12.4863 17.6252C12.5196 17.5586 12.5707 17.5026 12.6338 17.4637C12.6969 17.4248 12.7695 17.4044 12.8435 17.405C12.9048 17.405 12.9652 17.4194 13.0201 17.447L17.4273 19.6699L12.0061 30.6203L7.59889 28.3974C7.55133 28.3726 7.50923 28.3383 7.47513 28.2967C7.44103 28.255 7.41563 28.2069 7.40045 28.155ZM35.9847 42.1073L24.1581 39.1234L14.0579 31.8419L19.8482 20.1566L30 17.445L32.9368 18.23C32.7122 18.2739 32.5052 18.3832 32.3415 18.5445L23.2731 27.4261C22.9787 27.7231 22.7541 28.083 22.6161 28.4793C22.478 28.8757 22.43 29.2983 22.4755 29.7158C22.521 30.1334 22.659 30.5354 22.8791 30.8919C23.0993 31.2485 23.396 31.5505 23.7474 31.7758C27.7597 34.3632 32.6273 33.8765 36.4074 30.5962L42.5013 35.5267L35.9847 42.1073ZM52.5995 28.155C52.5832 28.205 52.5573 28.2513 52.5232 28.2911C52.4892 28.331 52.4477 28.3637 52.4011 28.3873L47.9939 30.6203L42.5727 19.6699L46.9799 17.447C47.0266 17.4234 47.0774 17.4092 47.1295 17.4055C47.1816 17.4017 47.234 17.4083 47.2835 17.425C47.333 17.4415 47.3789 17.4676 47.4184 17.502C47.4579 17.5364 47.4903 17.5782 47.5137 17.6252L52.5777 27.8506C52.6245 27.9452 52.6324 28.0546 52.5995 28.155ZM30.375 48.5338C30.2986 48.8428 30.1038 49.1086 29.8332 49.2727C29.5627 49.4368 29.2387 49.4858 28.9324 49.4089L20.6518 47.3202C20.509 47.2832 20.3743 47.2193 20.255 47.1319L15.0223 43.365C14.7652 43.1791 14.5918 42.8977 14.5403 42.5828C14.4887 42.2679 14.5632 41.9452 14.7474 41.6858C14.9316 41.4263 15.2104 41.2513 15.5225 41.1993C15.8345 41.1473 16.1542 41.2225 16.4113 41.4084L21.4495 45.0392L29.5079 47.0718C29.66 47.1102 29.8031 47.1785 29.9289 47.2728C30.0548 47.3671 30.161 47.4856 30.2414 47.6214C30.3217 47.7573 30.3748 47.9078 30.3974 48.0643C30.42 48.2209 30.4117 48.3804 30.3731 48.5338H30.375Z" fill="white"/>
</svg>
