<svg width="60" height="60" viewBox="0 0 60 60" fill="none" xmlns="http://www.w3.org/2000/svg">
<rect width="60" height="60" rx="30" fill="#54C447"/>
<path d="M29.9999 19.4458C32.9146 19.4458 35.2775 17.083 35.2775 14.1682C35.2775 11.2535 32.9146 8.89062 29.9999 8.89062C27.0852 8.89062 24.7223 11.2535 24.7223 14.1682C24.7223 17.083 27.0852 19.4458 29.9999 19.4458Z" stroke="white" stroke-width="2" stroke-linecap="round" stroke-linejoin="round"/>
<path d="M26.2018 17.9688L17.9688 26.2018" stroke="white" stroke-width="2" stroke-linecap="round" stroke-linejoin="round"/>
<path d="M14.1665 35.2779C17.0812 35.2779 19.4441 32.915 19.4441 30.0003C19.4441 27.0855 17.0812 24.7227 14.1665 24.7227C11.2518 24.7227 8.88892 27.0855 8.88892 30.0003C8.88892 32.915 11.2518 35.2779 14.1665 35.2779Z" stroke="white" stroke-width="2" stroke-linecap="round" stroke-linejoin="round"/>
<path d="M19.4445 30H40.5548" stroke="white" stroke-width="2" stroke-linecap="round" stroke-linejoin="round"/>
<path d="M45.8331 35.2779C48.7479 35.2779 51.1107 32.915 51.1107 30.0003C51.1107 27.0855 48.7479 24.7227 45.8331 24.7227C42.9184 24.7227 40.5555 27.0855 40.5555 30.0003C40.5555 32.915 42.9184 35.2779 45.8331 35.2779Z" stroke="white" stroke-width="2" stroke-linecap="round" stroke-linejoin="round"/>
<path d="M33.8021 42.0377L42.0352 33.8047" stroke="white" stroke-width="2" stroke-linecap="round" stroke-linejoin="round"/>
<path d="M29.9999 51.1099C32.9146 51.1099 35.2775 48.747 35.2775 45.8323C35.2775 42.9175 32.9146 40.5547 29.9999 40.5547C27.0852 40.5547 24.7223 42.9175 24.7223 45.8323C24.7223 48.747 27.0852 51.1099 29.9999 51.1099Z" stroke="white" stroke-width="2" stroke-linecap="round" stroke-linejoin="round"/>
</svg>
