<svg width="60" height="60" viewBox="0 0 60 60" fill="none" xmlns="http://www.w3.org/2000/svg">
<rect width="60" height="60" rx="30" fill="#F45A69"/>
<mask id="path-2-outside-1_2001_303" maskUnits="userSpaceOnUse" x="12.3334" y="14.5557" width="37" height="31" fill="black">
<rect fill="white" x="12.3334" y="14.5557" width="37" height="31"/>
<path d="M34.08 27.5143C33.9392 27.5134 33.8037 27.5658 33.7031 27.66C33.6025 27.7543 33.545 27.8827 33.5432 28.0173V31.7764C33.545 31.9113 33.6028 32.04 33.7037 32.1343C33.8047 32.2286 33.9407 32.2808 34.0818 32.2794H45.9272C46.0683 32.2808 46.2043 32.2286 46.3052 32.1343C46.4062 32.04 46.4639 31.9113 46.4658 31.7764V28.0173C46.4639 27.8824 46.4062 27.7537 46.3052 27.6594C46.2043 27.5651 46.0683 27.513 45.9272 27.5143H34.08ZM41.344 15.5574C42.9832 15.6321 44.1618 15.9414 44.9085 16.5974C45.6463 17.2466 46.0249 18.1863 46.0996 19.4303V22.9939C46.0958 23.2974 45.9662 23.5871 45.7392 23.7993C45.5122 24.0115 45.2064 24.1289 44.8889 24.1257C44.7316 24.1275 44.5754 24.0997 44.4293 24.0438C44.2832 23.9879 44.1501 23.905 44.0375 23.7999C43.9249 23.6948 43.8351 23.5695 43.7731 23.4312C43.7112 23.2929 43.6783 23.1443 43.6765 22.9939L43.6783 19.4949C43.6392 18.8491 43.4774 18.448 43.2463 18.2441C43.0223 18.047 42.3396 17.8702 41.2854 17.8193H18.0392C17.0845 17.8532 16.464 18.0266 16.1636 18.273C15.9325 18.4616 15.7583 18.9816 15.7565 19.8806L15.7512 39.8825C15.84 40.756 16.0409 41.3389 16.2987 41.6295C16.4943 41.8504 17.1005 42.0714 17.9929 42.1801H41.3103C42.4018 42.2005 43.0454 42.0442 43.2623 41.8351C43.5023 41.6023 43.6765 40.9905 43.6765 39.9896V36.5143C43.6765 35.8907 44.2187 35.3825 44.8889 35.3825C45.5574 35.3825 46.0996 35.8907 46.0996 36.5143V39.9896C46.0996 41.5191 45.7725 42.6627 45.0063 43.4054C44.2169 44.1701 42.9618 44.476 41.2854 44.442L17.8489 44.4369C16.2543 44.2602 15.1112 43.8421 14.4303 43.0723C13.8134 42.3755 13.4703 41.3814 13.3334 39.9913V19.8789C13.3369 18.3903 13.7103 17.2704 14.5672 16.5702C15.3529 15.9244 16.4872 15.61 17.9929 15.5557L41.344 15.5574ZM45.9272 25.2507C47.5627 25.2507 48.8889 26.4896 48.8889 28.0173V31.7764C48.8889 33.3042 47.5627 34.543 45.9272 34.543H34.0818C32.4463 34.543 31.12 33.3025 31.12 31.7764V28.0173C31.12 26.4896 32.4463 25.2507 34.0818 25.2507H45.9272ZM37.0436 28.5476C36.2258 28.5476 35.5627 29.1593 35.5627 29.9122C35.5627 30.665 36.2258 31.2768 37.0436 31.2768C37.8614 31.2768 38.5245 30.665 38.5245 29.9122C38.5245 29.1593 37.8614 28.5459 37.0436 28.5459"/>
</mask>
<path d="M34.08 27.5143C33.9392 27.5134 33.8037 27.5658 33.7031 27.66C33.6025 27.7543 33.545 27.8827 33.5432 28.0173V31.7764C33.545 31.9113 33.6028 32.04 33.7037 32.1343C33.8047 32.2286 33.9407 32.2808 34.0818 32.2794H45.9272C46.0683 32.2808 46.2043 32.2286 46.3052 32.1343C46.4062 32.04 46.4639 31.9113 46.4658 31.7764V28.0173C46.4639 27.8824 46.4062 27.7537 46.3052 27.6594C46.2043 27.5651 46.0683 27.513 45.9272 27.5143H34.08ZM41.344 15.5574C42.9832 15.6321 44.1618 15.9414 44.9085 16.5974C45.6463 17.2466 46.0249 18.1863 46.0996 19.4303V22.9939C46.0958 23.2974 45.9662 23.5871 45.7392 23.7993C45.5122 24.0115 45.2064 24.1289 44.8889 24.1257C44.7316 24.1275 44.5754 24.0997 44.4293 24.0438C44.2832 23.9879 44.1501 23.905 44.0375 23.7999C43.9249 23.6948 43.8351 23.5695 43.7731 23.4312C43.7112 23.2929 43.6783 23.1443 43.6765 22.9939L43.6783 19.4949C43.6392 18.8491 43.4774 18.448 43.2463 18.2441C43.0223 18.047 42.3396 17.8702 41.2854 17.8193H18.0392C17.0845 17.8532 16.464 18.0266 16.1636 18.273C15.9325 18.4616 15.7583 18.9816 15.7565 19.8806L15.7512 39.8825C15.84 40.756 16.0409 41.3389 16.2987 41.6295C16.4943 41.8504 17.1005 42.0714 17.9929 42.1801H41.3103C42.4018 42.2005 43.0454 42.0442 43.2623 41.8351C43.5023 41.6023 43.6765 40.9905 43.6765 39.9896V36.5143C43.6765 35.8907 44.2187 35.3825 44.8889 35.3825C45.5574 35.3825 46.0996 35.8907 46.0996 36.5143V39.9896C46.0996 41.5191 45.7725 42.6627 45.0063 43.4054C44.2169 44.1701 42.9618 44.476 41.2854 44.442L17.8489 44.4369C16.2543 44.2602 15.1112 43.8421 14.4303 43.0723C13.8134 42.3755 13.4703 41.3814 13.3334 39.9913V19.8789C13.3369 18.3903 13.7103 17.2704 14.5672 16.5702C15.3529 15.9244 16.4872 15.61 17.9929 15.5557L41.344 15.5574ZM45.9272 25.2507C47.5627 25.2507 48.8889 26.4896 48.8889 28.0173V31.7764C48.8889 33.3042 47.5627 34.543 45.9272 34.543H34.0818C32.4463 34.543 31.12 33.3025 31.12 31.7764V28.0173C31.12 26.4896 32.4463 25.2507 34.0818 25.2507H45.9272ZM37.0436 28.5476C36.2258 28.5476 35.5627 29.1593 35.5627 29.9122C35.5627 30.665 36.2258 31.2768 37.0436 31.2768C37.8614 31.2768 38.5245 30.665 38.5245 29.9122C38.5245 29.1593 37.8614 28.5459 37.0436 28.5459" fill="white"/>
<path d="M34.08 27.5143L34.0781 27.8143H34.08V27.5143ZM33.5432 28.0173L33.2432 28.0132V28.0173H33.5432ZM33.5432 31.7764H33.2431L33.2432 31.7806L33.5432 31.7764ZM34.0818 32.2794L34.0818 31.9794L34.0789 31.9794L34.0818 32.2794ZM45.9272 32.2794L45.93 31.9794H45.9272V32.2794ZM46.4658 31.7764L46.7658 31.7806V31.7764H46.4658ZM46.4658 28.0173H46.7658L46.7658 28.0132L46.4658 28.0173ZM45.9272 27.5143L45.9272 27.8143L45.93 27.8143L45.9272 27.5143ZM41.344 15.5574L41.3577 15.2574L41.3441 15.2574L41.344 15.5574ZM44.9085 16.5974L45.1067 16.3722L45.1065 16.372L44.9085 16.5974ZM46.0996 19.4303H46.3996V19.4213L46.3991 19.4123L46.0996 19.4303ZM46.0996 22.9939L46.3996 22.9976V22.9939H46.0996ZM44.8889 24.1257L44.8919 23.8257L44.8855 23.8257L44.8889 24.1257ZM43.7731 23.4312L44.0469 23.3086L43.7731 23.4312ZM43.6765 22.9939L43.3765 22.9938L43.3765 22.9976L43.6765 22.9939ZM43.6783 19.4949L43.9783 19.495L43.9783 19.4859L43.9777 19.4767L43.6783 19.4949ZM43.2463 18.2441L43.4448 18.0192L43.4445 18.0189L43.2463 18.2441ZM41.2854 17.8193L41.2999 17.5196L41.2926 17.5193H41.2854V17.8193ZM18.0392 17.8193V17.5191L18.0285 17.5195L18.0392 17.8193ZM16.1636 18.273L16.3533 18.5054L16.3538 18.505L16.1636 18.273ZM15.7565 19.8806L15.4565 19.88L15.4565 19.8806L15.7565 19.8806ZM15.7512 39.8825L15.4512 39.8825L15.4511 39.8977L15.4527 39.9129L15.7512 39.8825ZM16.2987 41.6295L16.5233 41.4307L16.5231 41.4304L16.2987 41.6295ZM17.9929 42.1801L17.9566 42.4779L17.9747 42.4801H17.9929V42.1801ZM41.3103 42.1801L41.3159 41.8801H41.3103V42.1801ZM43.2623 41.8351L43.4704 42.0512L43.4711 42.0505L43.2623 41.8351ZM45.0063 43.4054L45.215 43.6208L45.2151 43.6208L45.0063 43.4054ZM41.2854 44.442L41.2915 44.142L41.2854 44.142L41.2854 44.442ZM17.8489 44.4369L17.8159 44.7351L17.8323 44.7369L17.8489 44.7369L17.8489 44.4369ZM14.4303 43.0723L14.655 42.8735L14.6549 42.8734L14.4303 43.0723ZM13.3334 39.9913H13.0334V40.006L13.0348 40.0207L13.3334 39.9913ZM13.3334 19.8789L13.0334 19.8782V19.8789H13.3334ZM14.5672 16.5702L14.757 16.8025L14.7576 16.802L14.5672 16.5702ZM17.9929 15.5557L17.993 15.2555L17.9821 15.2559L17.9929 15.5557ZM34.082 27.2143C33.8661 27.2129 33.656 27.2931 33.498 27.4411L33.9082 27.879C33.9514 27.8385 34.0123 27.8139 34.0781 27.8143L34.082 27.2143ZM33.498 27.4411C33.3395 27.5896 33.2462 27.7949 33.2432 28.0132L33.8431 28.0215C33.8438 27.9706 33.8655 27.919 33.9082 27.879L33.498 27.4411ZM33.2432 28.0173V31.7764H33.8432V28.0173H33.2432ZM33.2432 31.7806C33.2462 31.9993 33.3399 32.205 33.499 32.3536L33.9085 31.9151C33.8656 31.875 33.8438 31.8233 33.8431 31.7722L33.2432 31.7806ZM33.499 32.3536C33.6576 32.5017 33.8684 32.5815 34.0847 32.5794L34.0789 31.9794C34.0129 31.9801 33.9518 31.9555 33.9085 31.9151L33.499 32.3536ZM34.0818 32.5794H45.9272V31.9794H34.0818V32.5794ZM45.9243 32.5794C46.1406 32.5815 46.3514 32.5017 46.51 32.3536L46.1005 31.9151C46.0571 31.9555 45.996 31.9801 45.93 31.9794L45.9243 32.5794ZM46.51 32.3536C46.669 32.205 46.7628 31.9993 46.7658 31.7806L46.1658 31.7722C46.1651 31.8233 46.1433 31.875 46.1005 31.9151L46.51 32.3536ZM46.7658 31.7764V28.0173H46.1658V31.7764H46.7658ZM46.7658 28.0132C46.7628 27.7944 46.669 27.5887 46.51 27.4402L46.1005 27.8787C46.1433 27.9187 46.1651 27.9704 46.1658 28.0215L46.7658 28.0132ZM46.51 27.4402C46.3514 27.2921 46.1406 27.2122 45.9243 27.2143L45.93 27.8143C45.996 27.8137 46.0571 27.8382 46.1005 27.8787L46.51 27.4402ZM45.9272 27.2143H34.08V27.8143H45.9272V27.2143ZM41.3304 15.8571C42.953 15.9311 44.0436 16.2369 44.7105 16.8228L45.1065 16.372C44.28 15.6459 43.0133 15.3332 41.3577 15.2577L41.3304 15.8571ZM44.7103 16.8226C45.3699 17.403 45.7286 18.2562 45.8001 19.4483L46.3991 19.4123C46.3213 18.1165 45.9227 17.0902 45.1067 16.3722L44.7103 16.8226ZM45.7996 19.4303V22.9939H46.3996V19.4303H45.7996ZM45.7996 22.9902C45.7969 23.2098 45.7032 23.4223 45.5344 23.5801L45.9441 24.0184C46.2292 23.7519 46.3948 23.3851 46.3996 22.9976L45.7996 22.9902ZM45.5344 23.5801C45.365 23.7384 45.1342 23.8282 44.8919 23.8257L44.8859 24.4257C45.2787 24.4296 45.6594 24.2846 45.9441 24.0184L45.5344 23.5801ZM44.8855 23.8257C44.7657 23.8271 44.6471 23.8059 44.5365 23.7636L44.3221 24.3239C44.5037 24.3934 44.6974 24.4279 44.8924 24.4257L44.8855 23.8257ZM44.5365 23.7636C44.426 23.7213 44.3261 23.6589 44.2422 23.5806L43.8328 24.0192C43.9741 24.1511 44.1404 24.2544 44.3221 24.3239L44.5365 23.7636ZM44.2422 23.5806C44.1583 23.5023 44.0922 23.4098 44.0469 23.3086L43.4993 23.5539C43.5779 23.7293 43.6914 23.8872 43.8328 24.0192L44.2422 23.5806ZM44.0469 23.3086C44.0016 23.2075 43.9778 23.0993 43.9765 22.9902L43.3765 22.9976C43.3789 23.1894 43.4207 23.3784 43.4993 23.5539L44.0469 23.3086ZM43.9765 22.9941L43.9783 19.495L43.3783 19.4947L43.3765 22.9938L43.9765 22.9941ZM43.9777 19.4767C43.937 18.8046 43.7664 18.303 43.4448 18.0192L43.0478 18.4691C43.1884 18.5931 43.3413 18.8936 43.3788 19.513L43.9777 19.4767ZM43.4445 18.0189C43.272 17.8671 42.9804 17.761 42.6437 17.6844C42.2917 17.6042 41.8392 17.5457 41.2999 17.5196L41.2709 18.1189C41.7858 18.1438 42.2018 18.1991 42.5106 18.2694C42.8348 18.3432 42.9965 18.424 43.0481 18.4693L43.4445 18.0189ZM41.2854 17.5193H18.0392V18.1193H41.2854V17.5193ZM18.0285 17.5195C17.5367 17.537 17.1209 17.5906 16.7829 17.6755C16.4487 17.7595 16.1711 17.8788 15.9734 18.041L16.3538 18.505C16.4565 18.4208 16.6394 18.3302 16.9291 18.2574C17.2152 18.1856 17.587 18.1356 18.0498 18.1191L18.0285 17.5195ZM15.9739 18.0406C15.7882 18.1922 15.6644 18.4396 15.5846 18.7314C15.5029 19.0306 15.4574 19.4134 15.4565 19.88L16.0565 19.8812C16.0573 19.4489 16.0999 19.1222 16.1634 18.8895C16.229 18.6494 16.3079 18.5425 16.3533 18.5054L15.9739 18.0406ZM15.4565 19.8806L15.4512 39.8825L16.0512 39.8826L16.0565 19.8807L15.4565 19.8806ZM15.4527 39.9129C15.5429 40.7993 15.7507 41.4638 16.0743 41.8286L16.5231 41.4304C16.3312 41.214 16.1372 40.7127 16.0496 39.8522L15.4527 39.9129ZM16.0741 41.8284C16.2266 42.0006 16.4911 42.1314 16.7891 42.2313C17.1004 42.3357 17.4957 42.4217 17.9566 42.4779L18.0292 41.8823C17.5977 41.8297 17.2437 41.7509 16.9799 41.6624C16.7027 41.5695 16.5664 41.4793 16.5233 41.4307L16.0741 41.8284ZM17.9929 42.4801H41.3103V41.8801H17.9929V42.4801ZM41.3047 42.4801C41.8641 42.4905 42.32 42.456 42.6712 42.3882C43.0081 42.3231 43.2966 42.2187 43.4704 42.0512L43.0541 41.6191C43.0111 41.6606 42.8693 41.7389 42.5574 41.7991C42.2596 41.8566 41.848 41.8901 41.3159 41.8802L41.3047 42.4801ZM43.4711 42.0505C43.6516 41.8754 43.7726 41.5983 43.8511 41.2703C43.9317 40.9336 43.9765 40.5057 43.9765 39.9896H43.3765C43.3765 40.4745 43.3341 40.8529 43.2676 41.1306C43.1991 41.4169 43.1129 41.5621 43.0534 41.6198L43.4711 42.0505ZM43.9765 39.9896V36.5143H43.3765V39.9896H43.9765ZM43.9765 36.5143C43.9765 36.0751 44.365 35.6825 44.8889 35.6825V35.0825C44.0725 35.0825 43.3765 35.7062 43.3765 36.5143H43.9765ZM44.8889 35.6825C45.4108 35.6825 45.7996 36.0748 45.7996 36.5143H46.3996C46.3996 35.7065 45.7039 35.0825 44.8889 35.0825V35.6825ZM45.7996 36.5143V39.9896H46.3996V36.5143H45.7996ZM45.7996 39.9896C45.7996 41.4856 45.4783 42.5301 44.7975 43.19L45.2151 43.6208C46.0667 42.7954 46.3996 41.5526 46.3996 39.9896H45.7996ZM44.7975 43.1899C44.0956 43.87 42.9423 44.1755 41.2915 44.1421L41.2793 44.742C42.9813 44.7765 44.3383 44.4702 45.215 43.6208L44.7975 43.1899ZM41.2854 44.142L17.849 44.1369L17.8489 44.7369L41.2853 44.742L41.2854 44.142ZM17.882 44.1387C16.3101 43.9645 15.2606 43.5583 14.655 42.8735L14.2055 43.2711C14.9617 44.126 16.1985 44.5558 17.8159 44.7351L17.882 44.1387ZM14.6549 42.8734C14.0976 42.244 13.7659 41.3225 13.6319 39.9619L13.0348 40.0207C13.1746 41.4403 13.5291 42.5071 14.2056 43.2712L14.6549 42.8734ZM13.6334 39.9913V19.8789H13.0334V39.9913H13.6334ZM13.6334 19.8796C13.6368 18.4341 13.9991 17.4218 14.757 16.8025L14.3773 16.3379C13.4214 17.119 13.037 18.3464 13.0334 19.8782L13.6334 19.8796ZM14.7576 16.802C15.47 16.2165 16.5268 15.9088 18.0038 15.8555L17.9821 15.2559C16.4475 15.3113 15.2359 15.6323 14.3767 16.3384L14.7576 16.802ZM17.9929 15.8557L41.344 15.8574L41.3441 15.2574L17.993 15.2557L17.9929 15.8557ZM45.9272 25.5507C47.4166 25.5507 48.5889 26.6742 48.5889 28.0173H49.1889C49.1889 26.305 47.7088 24.9507 45.9272 24.9507V25.5507ZM48.5889 28.0173V31.7764H49.1889V28.0173H48.5889ZM48.5889 31.7764C48.5889 33.1196 47.4166 34.243 45.9272 34.243V34.843C47.7088 34.843 49.1889 33.4888 49.1889 31.7764H48.5889ZM45.9272 34.243H34.0818V34.843H45.9272V34.243ZM34.0818 34.243C32.5925 34.243 31.42 33.118 31.42 31.7764H30.82C30.82 33.487 32.3 34.843 34.0818 34.843V34.243ZM31.42 31.7764V28.0173H30.82V31.7764H31.42ZM31.42 28.0173C31.42 26.6742 32.5924 25.5507 34.0818 25.5507V24.9507C32.3002 24.9507 30.82 26.305 30.82 28.0173H31.42ZM34.0818 25.5507H45.9272V24.9507H34.0818V25.5507ZM37.0436 28.2476C36.0836 28.2476 35.2627 28.9711 35.2627 29.9122H35.8627C35.8627 29.3475 36.368 28.8476 37.0436 28.8476V28.2476ZM35.2627 29.9122C35.2627 30.8532 36.0836 31.5768 37.0436 31.5768V30.9768C36.368 30.9768 35.8627 30.4768 35.8627 29.9122H35.2627ZM37.0436 31.5768C38.0036 31.5768 38.8245 30.8532 38.8245 29.9122H38.2245C38.2245 30.4768 37.7191 30.9768 37.0436 30.9768V31.5768ZM38.8245 29.9122C38.8245 28.9716 38.0041 28.2459 37.0436 28.2459V28.8459C37.7186 28.8459 38.2245 29.3471 38.2245 29.9122H38.8245Z" fill="white" mask="url(#path-2-outside-1_2001_303)"/>
</svg>
