<svg width="60" height="60" viewBox="0 0 60 60" fill="none" xmlns="http://www.w3.org/2000/svg">
<rect width="60" height="60" rx="30" fill="#54C447"/>
<path d="M26.0781 11.7144L25.8594 12.8572L25.0283 17.033C23.6943 17.5605 22.4915 18.3023 21.398 19.1869L17.3303 17.7803L16.2368 17.4286L15.6682 18.4396L12.8689 23.2748L12.3003 24.2858L13.1313 25.033L16.2805 27.8023C16.1657 28.522 16.0181 29.2418 16.0181 30.0001C16.0181 30.7583 16.1657 31.4781 16.2805 32.1979L13.1313 34.9671L12.3003 35.7144L12.8689 36.7253L15.6682 41.5605L16.2368 42.5715L17.3303 42.2199L21.398 40.8133C22.4915 41.6979 23.6943 42.4396 25.0283 42.9671L25.8594 47.1429L26.0781 48.2858H33.9511L34.1698 47.1429L35.0008 42.9671C36.3349 42.4396 37.5377 41.6979 38.6312 40.8133L42.6989 42.2199L43.7924 42.5715L44.361 41.5605L47.1603 36.7253L47.7289 35.7144L46.8978 34.9671L43.7486 32.1979C43.8634 31.4781 44.0111 30.7583 44.0111 30.0001C44.0111 29.2418 43.8634 28.522 43.7486 27.8023L46.8978 25.033L47.7289 24.2858L47.1603 23.2748L44.361 18.4396L43.7924 17.4286L42.6989 17.7803L38.6312 19.1869C37.5377 18.3023 36.3349 17.5605 35.0008 17.033L34.1698 12.8572L33.9511 11.7144H26.0781ZM28.3525 14.5275H31.6767L32.3765 18.1759L32.5514 19.0111L33.3387 19.2748C34.9297 19.7748 36.3731 20.6209 37.5814 21.7363L38.1938 22.3078L38.9811 22.044L42.5239 20.8133L44.186 23.6704L41.3867 26.1759L40.7306 26.7034L40.9493 27.5385C41.1297 28.3407 41.2118 29.1594 41.2118 30.0001C41.2118 30.8407 41.1297 31.6594 40.9493 32.4616L40.7744 33.2968L41.3867 33.8242L44.186 36.3297L42.5239 39.1869L38.9811 37.9561L38.1938 37.6924L37.5814 38.2638C36.3731 39.3792 34.9297 40.2253 33.3387 40.7253L32.5514 40.9891L32.3765 41.8242L31.6767 45.4726H28.3525L27.6527 41.8242L27.4777 40.9891L26.6904 40.7253C25.0994 40.2253 23.656 39.3792 22.4477 38.2638L21.8354 37.6924L21.0481 37.9561L17.5052 39.1869L15.8432 36.3297L18.6424 33.8242L19.2985 33.2968L19.0798 32.4616C18.8994 31.6594 18.8174 30.8407 18.8174 30.0001C18.8174 29.1594 18.8994 28.3407 19.0798 27.5385L19.2985 26.7034L18.6424 26.1759L15.8432 23.6704L17.5052 20.8133L21.0481 22.044L21.8354 22.3078L22.4477 21.7363C23.656 20.6209 25.0994 19.7748 26.6904 19.2748L27.4777 19.0111L27.6527 18.1759L28.3525 14.5275ZM30.0146 22.9671C26.1655 22.9671 23.0163 26.1319 23.0163 30.0001C23.0163 33.8682 26.1655 37.033 30.0146 37.033C33.8636 37.033 37.0128 33.8682 37.0128 30.0001C37.0128 26.1319 33.8636 22.9671 30.0146 22.9671ZM30.0146 25.7803C32.3491 25.7803 34.2135 27.6539 34.2135 30.0001C34.2135 32.3462 32.3491 34.2199 30.0146 34.2199C27.68 34.2199 25.8156 32.3462 25.8156 30.0001C25.8156 27.6539 27.68 25.7803 30.0146 25.7803Z" fill="white"/>
</svg>
