<svg width="60" height="60" viewBox="0 0 60 60" fill="none" xmlns="http://www.w3.org/2000/svg">
<rect width="60" height="60" rx="30" fill="#FFC107"/>
<path d="M44.5833 12.4392L42.4251 14.005C42.4251 14.005 39.7327 16.0045 35.8659 17.9828C31.9991 19.9612 26.9633 21.8761 22.5358 21.8761H9.375V34.2328L9.41732 34.4444L12.1257 43.9236L12.4219 44.8969H20.6315L20.166 43.1619L17.9655 35.4177H22.5358C26.9051 35.4177 31.9409 37.3696 35.8236 39.3533C39.7062 41.3369 42.4251 43.2888 42.4251 43.2888L44.5833 44.8546V32.4555C46.1491 31.8895 47.2917 30.3978 47.2917 28.6469C47.2917 26.896 46.1491 25.4043 44.5833 24.8383V12.4392ZM41.875 17.475V39.7765C40.7536 39.02 39.8649 38.3324 37.0508 36.8988C33.0729 34.8676 27.9366 32.8099 22.9167 32.7094V24.5844C27.9842 24.4839 33.1258 22.3839 37.0931 20.3526C39.9019 18.9138 40.7642 18.2314 41.875 17.475ZM12.0833 24.5844H20.2083V32.7094H12.0833V24.5844ZM12.5488 35.4177H15.1302L17.0345 42.1886H14.4531L12.5488 35.4177Z" fill="white"/>
</svg>
