<svg width="60" height="60" viewBox="0 0 60 60" fill="none" xmlns="http://www.w3.org/2000/svg">
<rect width="60" height="60" rx="30" fill="#7A6CF0"/>
<path d="M15.2342 27.154L44.72 13.7444" stroke="white" stroke-width="2.3" stroke-linecap="round" stroke-linejoin="round"/>
<path d="M39.2099 11.6665L44.7225 13.7433L42.6713 19.2559" stroke="white" stroke-width="2.3" stroke-linecap="round" stroke-linejoin="round"/>
<path d="M46.0278 44.9979H39.6179V27.0501C39.6179 26.71 39.753 26.384 39.9933 26.1436C40.2338 25.9031 40.5599 25.7681 40.8999 25.7681H44.7459C45.0858 25.7681 45.412 25.9031 45.6525 26.1436C45.8927 26.384 46.0278 26.71 46.0278 27.0501V44.9979Z" stroke="white" stroke-width="2.3" stroke-linecap="round" stroke-linejoin="round"/>
<path d="M33.2067 44.9996H26.7967V30.8977C26.7967 30.5577 26.9318 30.2316 27.1722 29.9912C27.4126 29.7508 27.7387 29.6157 28.0787 29.6157H31.9247C32.2647 29.6157 32.5908 29.7508 32.8312 29.9912C33.0716 30.2316 33.2067 30.5577 33.2067 30.8977V44.9996Z" stroke="white" stroke-width="2.3" stroke-linecap="round" stroke-linejoin="round"/>
<path d="M20.3855 45.0003H13.9755V34.7444C13.9755 34.4044 14.1106 34.0783 14.351 33.8379C14.5914 33.5975 14.9175 33.4624 15.2575 33.4624H19.1035C19.4435 33.4624 19.7696 33.5975 20.01 33.8379C20.2504 34.0783 20.3855 34.4044 20.3855 34.7444V45.0003Z" stroke="white" stroke-width="2.3" stroke-linecap="round" stroke-linejoin="round"/>
</svg>
