<svg width="60" height="60" viewBox="0 0 60 60" fill="none" xmlns="http://www.w3.org/2000/svg">
<rect width="60" height="60" rx="30" fill="#54C447"/>
<path d="M29.9998 19.4453C32.9145 19.4453 35.2774 17.0825 35.2774 14.1677C35.2774 11.253 32.9145 8.89014 29.9998 8.89014C27.085 8.89014 24.7222 11.253 24.7222 14.1677C24.7222 17.0825 27.085 19.4453 29.9998 19.4453Z" stroke="white" stroke-width="2" stroke-linecap="round" stroke-linejoin="round"/>
<path d="M26.2018 17.9702L17.9688 26.2033" stroke="white" stroke-width="2" stroke-linecap="round" stroke-linejoin="round"/>
<path d="M14.1663 35.2774C17.081 35.2774 19.4439 32.9145 19.4439 29.9998C19.4439 27.085 17.081 24.7222 14.1663 24.7222C11.2515 24.7222 8.88867 27.085 8.88867 29.9998C8.88867 32.9145 11.2515 35.2774 14.1663 35.2774Z" stroke="white" stroke-width="2" stroke-linecap="round" stroke-linejoin="round"/>
<path d="M19.4443 30H40.5547" stroke="white" stroke-width="2" stroke-linecap="round" stroke-linejoin="round"/>
<path d="M45.8328 35.2774C48.7475 35.2774 51.1104 32.9145 51.1104 29.9998C51.1104 27.085 48.7475 24.7222 45.8328 24.7222C42.918 24.7222 40.5552 27.085 40.5552 29.9998C40.5552 32.9145 42.918 35.2774 45.8328 35.2774Z" stroke="white" stroke-width="2" stroke-linecap="round" stroke-linejoin="round"/>
<path d="M33.8018 42.0353L42.0348 33.8022" stroke="white" stroke-width="2" stroke-linecap="round" stroke-linejoin="round"/>
<path d="M29.9998 51.1109C32.9145 51.1109 35.2774 48.748 35.2774 45.8333C35.2774 42.9185 32.9145 40.5557 29.9998 40.5557C27.085 40.5557 24.7222 42.9185 24.7222 45.8333C24.7222 48.748 27.085 51.1109 29.9998 51.1109Z" stroke="white" stroke-width="2" stroke-linecap="round" stroke-linejoin="round"/>
</svg>
