<svg width="60" height="60" viewBox="0 0 60 60" fill="none" xmlns="http://www.w3.org/2000/svg">
<rect width="60" height="60" rx="30" fill="#FFC107"/>
<path d="M43.7477 25.7068L44.4768 25.5448L47.1505 25.2207C47.2844 24.6641 47.3389 24.0913 47.3125 23.5193C47.3389 22.9474 47.2844 22.3746 47.1505 21.818L44.4768 21.4939L43.7477 21.3318L43.2616 20.1976L43.6667 19.5494L45.287 17.3619C44.63 16.462 43.8374 15.6694 42.9375 15.0124L40.75 16.6328L40.1018 17.0379L38.9676 16.5518L38.8055 15.8226L38.4815 13.149C37.9248 13.0151 37.352 12.9605 36.7801 12.9869C36.2082 12.9605 35.6354 13.0151 35.0787 13.149L34.7546 15.8226L34.5926 16.5518L33.4583 17.0379L32.8102 16.6328L30.6227 15.0124C29.7227 15.6694 28.9301 16.462 28.2731 17.3619L29.8935 19.5494L30.2986 20.1976L29.8125 21.3318L29.0833 21.4939L26.4097 21.818C26.2758 22.3746 26.2213 22.9474 26.2477 23.5193C26.2213 24.0913 26.2758 24.6641 26.4097 25.2207L29.0833 25.5448L29.8125 25.7068L30.2986 26.8411L29.8935 27.4893L28.2731 29.6768C28.9301 30.5767 29.7227 31.3693 30.6227 32.0263L32.8102 30.4059L33.4583 30.0008L34.5926 30.4869L34.7546 31.2161L35.0787 33.8897C35.6354 34.0236 36.2082 34.0782 36.7801 34.0518C37.352 34.0782 37.9248 34.0236 38.4815 33.8897L38.8055 31.2161L38.9676 30.4869L40.1018 30.0008L40.75 30.4059L42.9375 32.0263C43.8374 31.3693 44.63 30.5767 45.287 29.6768L43.6667 27.4893L43.2616 26.8411L43.7477 25.7068ZM36.7801 26.7601C36.1391 26.7601 35.5126 26.57 34.9796 26.2139C34.4467 25.8578 34.0313 25.3517 33.786 24.7595C33.5407 24.1674 33.4766 23.5157 33.6016 22.8871C33.7267 22.2585 34.0353 21.681 34.4885 21.2278C34.9418 20.7746 35.5192 20.4659 36.1479 20.3409C36.7765 20.2158 37.4281 20.28 38.0203 20.5253C38.6124 20.7706 39.1186 21.1859 39.4747 21.7189C39.8308 22.2518 40.0208 22.8784 40.0208 23.5193C40.0208 24.3788 39.6794 25.2031 39.0716 25.8109C38.4639 26.4186 37.6396 26.7601 36.7801 26.7601Z" fill="white"/>
<path d="M24.6266 38.9126V43.7737H18.1452V38.9126H24.6266ZM26.247 35.6719H16.5248C16.095 35.6719 15.6829 35.8426 15.379 36.1465C15.0751 36.4503 14.9044 36.8625 14.9044 37.2922V45.3941C14.9044 45.8238 15.0751 46.236 15.379 46.5399C15.6829 46.8437 16.095 47.0145 16.5248 47.0145H26.247C26.6768 47.0145 27.0889 46.8437 27.3928 46.5399C27.6967 46.236 27.8674 45.8238 27.8674 45.3941V37.2922C27.8674 36.8625 27.6967 36.4503 27.3928 36.1465C27.0889 35.8426 26.6768 35.6719 26.247 35.6719Z" fill="white"/>
<path d="M26.247 16.2258C26.247 15.7961 26.0763 15.3839 25.7724 15.0801C25.4685 14.7762 25.0564 14.6055 24.6266 14.6055H16.5248C16.095 14.6055 15.6829 14.7762 15.379 15.0801C15.0751 15.3839 14.9044 15.7961 14.9044 16.2258V30.8092C14.9044 31.2389 15.0751 31.6511 15.379 31.9549C15.6829 32.2588 16.095 32.4295 16.5248 32.4295H24.6266C25.0564 32.4295 25.4685 32.2588 25.7724 31.9549C26.0763 31.6511 26.247 31.2389 26.247 30.8092C26.247 30.3794 26.0763 29.9673 25.7724 29.6634C25.4685 29.3595 25.0564 29.1888 24.6266 29.1888H18.1452V17.8462H24.6266C25.0564 17.8462 25.4685 17.6755 25.7724 17.3716C26.0763 17.0677 26.247 16.6556 26.247 16.2258Z" fill="white"/>
<path d="M40.8332 37.2922V43.7737H34.3517V37.2922C34.3517 36.8625 34.181 36.4503 33.8771 36.1465C33.5732 35.8426 33.1611 35.6719 32.7313 35.6719C32.3016 35.6719 31.8894 35.8426 31.5856 36.1465C31.2817 36.4503 31.111 36.8625 31.111 37.2922V45.3941C31.111 45.8238 31.2817 46.236 31.5856 46.5399C31.8894 46.8437 32.3016 47.0145 32.7313 47.0145H42.4536C42.8833 47.0145 43.2955 46.8437 43.5993 46.5399C43.9032 46.236 44.0739 45.8238 44.0739 45.3941V37.2922C44.0739 36.8625 43.9032 36.4503 43.5993 36.1465C43.2955 35.8426 42.8833 35.6719 42.4536 35.6719C42.0238 35.6719 41.6117 35.8426 41.3078 36.1465C41.0039 36.4503 40.8332 36.8625 40.8332 37.2922Z" fill="white"/>
</svg>
