<svg width="60" height="60" viewBox="0 0 60 60" fill="none" xmlns="http://www.w3.org/2000/svg">
<rect width="60" height="60" rx="30" fill="#FFC107"/>
<path d="M26.0786 11.7144L25.8599 12.8572L25.0288 17.033C23.6948 17.5605 22.492 18.3023 21.3985 19.1869L17.3308 17.7803L16.2373 17.4286L15.6687 18.4396L12.8694 23.2748L12.3008 24.2858L13.1318 25.033L16.281 27.8023C16.1662 28.522 16.0186 29.2418 16.0186 30.0001C16.0186 30.7583 16.1662 31.4781 16.281 32.1979L13.1318 34.9671L12.3008 35.7144L12.8694 36.7253L15.6687 41.5605L16.2373 42.5715L17.3308 42.2199L21.3985 40.8133C22.492 41.6979 23.6948 42.4396 25.0288 42.9671L25.8599 47.1429L26.0786 48.2858H33.9516L34.1703 47.1429L35.0013 42.9671C36.3353 42.4396 37.5382 41.6979 38.6316 40.8133L42.6994 42.2199L43.7928 42.5715L44.3615 41.5605L47.1607 36.7253L47.7294 35.7144L46.8983 34.9671L43.7491 32.1979C43.8639 31.4781 44.0115 30.7583 44.0115 30.0001C44.0115 29.2418 43.8639 28.522 43.7491 27.8023L46.8983 25.033L47.7294 24.2858L47.1607 23.2748L44.3615 18.4396L43.7928 17.4286L42.6994 17.7803L38.6316 19.1869C37.5382 18.3023 36.3353 17.5605 35.0013 17.033L34.1703 12.8572L33.9516 11.7144H26.0786ZM28.353 14.5275H31.6771L32.377 18.1759L32.5519 19.0111L33.3392 19.2748C34.9302 19.7748 36.3736 20.6209 37.5819 21.7363L38.1943 22.3078L38.9816 22.044L42.5244 20.8133L44.1865 23.6704L41.3872 26.1759L40.7311 26.7034L40.9498 27.5385C41.1302 28.3407 41.2122 29.1594 41.2122 30.0001C41.2122 30.8407 41.1302 31.6594 40.9498 32.4616L40.7749 33.2968L41.3872 33.8242L44.1865 36.3297L42.5244 39.1869L38.9816 37.9561L38.1943 37.6924L37.5819 38.2638C36.3736 39.3792 34.9302 40.2253 33.3392 40.7253L32.5519 40.9891L32.377 41.8242L31.6771 45.4726H28.353L27.6532 41.8242L27.4782 40.9891L26.6909 40.7253C25.0999 40.2253 23.6565 39.3792 22.4482 38.2638L21.8359 37.6924L21.0486 37.9561L17.5057 39.1869L15.8436 36.3297L18.6429 33.8242L19.299 33.2968L19.0803 32.4616C18.8999 31.6594 18.8179 30.8407 18.8179 30.0001C18.8179 29.1594 18.8999 28.3407 19.0803 27.5385L19.299 26.7034L18.6429 26.1759L15.8436 23.6704L17.5057 20.8133L21.0486 22.044L21.8359 22.3078L22.4482 21.7363C23.6565 20.6209 25.0999 19.7748 26.6909 19.2748L27.4782 19.0111L27.6532 18.1759L28.353 14.5275ZM30.0151 22.9671C26.166 22.9671 23.0168 26.1319 23.0168 30.0001C23.0168 33.8682 26.166 37.033 30.0151 37.033C33.8641 37.033 37.0133 33.8682 37.0133 30.0001C37.0133 26.1319 33.8641 22.9671 30.0151 22.9671ZM30.0151 25.7803C32.3496 25.7803 34.214 27.6539 34.214 30.0001C34.214 32.3462 32.3496 34.2199 30.0151 34.2199C27.6805 34.2199 25.8161 32.3462 25.8161 30.0001C25.8161 27.6539 27.6805 25.7803 30.0151 25.7803Z" fill="white"/>
</svg>
