<svg width="57" height="57" viewBox="0 0 57 57" fill="none" xmlns="http://www.w3.org/2000/svg">
<g filter="url(#filter0_b_808_6510)">
<rect width="57" height="57" rx="28.5" fill="#FBFBFB" fill-opacity="0.2"/>
<path d="M29.9389 27.9204C29.865 27.7908 29.7728 27.6717 29.6649 27.5665L28.4335 26.3963C28.307 26.2722 28.1577 26.1719 27.993 26.1006C27.734 25.9893 27.4461 25.9561 27.1671 26.0054C26.8881 26.0547 26.6311 26.1842 26.4299 26.3769C26.0029 26.7818 25.2213 27.5206 23.8113 28.8629C21.1148 31.4331 16.1079 35.7408 13.8439 37.5781C13.7298 37.67 13.6368 37.7838 13.5707 37.9122C13.5047 38.0406 13.467 38.1808 13.4601 38.324C13.4533 38.4671 13.4773 38.6101 13.5308 38.7438C13.5842 38.8776 13.6659 38.9991 13.7707 39.1009L16.3893 41.6516C16.4947 41.7535 16.6209 41.8334 16.7599 41.886C16.8989 41.9387 17.0477 41.9631 17.197 41.9577C17.3462 41.9523 17.4927 41.9172 17.6272 41.8546C17.7617 41.792 17.8814 41.7033 17.9786 41.5941C19.9418 39.3706 24.4445 34.5428 27.1101 32.005C28.4792 30.7073 29.2466 29.962 29.681 29.5506C29.8965 29.3395 30.0373 29.0683 30.0836 28.7757C30.1299 28.483 30.0793 28.1837 29.9389 27.9204ZM43.4354 24.9446L41.1317 22.7451C41.0965 22.7113 41.0546 22.6847 41.0084 22.667C40.9622 22.6493 40.9128 22.6409 40.8631 22.6423C40.8135 22.6415 40.7643 22.6502 40.7182 22.6678C40.6721 22.6855 40.6301 22.7118 40.5945 22.7451C40.5117 22.8254 40.4107 22.8862 40.2995 22.9229C40.1883 22.9596 40.0699 22.9711 39.9533 22.9567C39.6525 22.925 39.3322 22.835 39.1254 22.6423C38.6554 22.1985 39.1986 21.3252 38.785 20.7662C38.3127 20.1546 37.7947 19.5769 37.2354 19.0377C36.7613 18.5849 34.8981 16.8725 31.7598 15.6395C30.7583 15.2442 29.6863 15.0412 28.604 15.0417C26.8348 15.0417 25.4745 15.8025 24.9783 16.2392C24.5835 16.5833 24.1726 17.13 24.1726 17.13C24.4098 17.0466 24.6522 16.9774 24.8984 16.923C25.4117 16.8169 25.9384 16.7845 26.4615 16.8266C27.5062 16.91 28.7652 17.3823 29.4407 17.8933C30.529 18.7343 30.997 19.8593 31.0702 21.3109C31.1239 22.3906 30.0476 23.7536 29.0264 24.865C28.9365 24.9628 28.8892 25.0901 28.8942 25.2205C28.8992 25.351 28.9561 25.4746 29.0532 25.5656L30.4794 26.939C30.5787 27.0336 30.7124 27.0871 30.852 27.0883C30.9916 27.0895 31.1262 27.0383 31.2273 26.9455C32.1627 26.0715 33.3148 25.1037 33.9681 24.7162C34.6215 24.3287 35.1485 24.2194 35.4017 24.1929C35.8991 24.1465 36.3991 24.2509 36.8318 24.4918C36.908 24.5333 36.9776 24.5852 37.0386 24.6457C37.4724 25.0701 37.4462 25.7636 37.0051 26.1815L36.8708 26.3038C36.8358 26.3369 36.8081 26.3763 36.7892 26.4199C36.7703 26.4634 36.7605 26.5101 36.7605 26.5573C36.7605 26.6045 36.7703 26.6513 36.7892 26.6948C36.8081 26.7384 36.8358 26.7778 36.8708 26.8109L39.1745 29.0104C39.2098 29.044 39.2518 29.0703 39.298 29.0879C39.3441 29.1054 39.3934 29.1138 39.443 29.1126C39.543 29.114 39.6396 29.0773 39.7116 29.0104L43.4354 25.4621C43.5041 25.3922 43.5423 25.2996 43.5423 25.2034C43.5423 25.1071 43.5041 25.0145 43.4354 24.9446Z" stroke="#196FF1" stroke-width="1.5" stroke-linecap="round" stroke-linejoin="round"/>
</g>
<defs>
<filter id="filter0_b_808_6510" x="-20" y="-20" width="97" height="97" filterUnits="userSpaceOnUse" color-interpolation-filters="sRGB">
<feFlood flood-opacity="0" result="BackgroundImageFix"/>
<feGaussianBlur in="BackgroundImageFix" stdDeviation="10"/>
<feComposite in2="SourceAlpha" operator="in" result="effect1_backgroundBlur_808_6510"/>
<feBlend mode="normal" in="SourceGraphic" in2="effect1_backgroundBlur_808_6510" result="shape"/>
</filter>
</defs>
</svg>
