<svg width="57" height="57" viewBox="0 0 57 57" fill="none" xmlns="http://www.w3.org/2000/svg">
<g filter="url(#filter0_b_808_6472)">
<rect width="57" height="57" rx="28.5" fill="#FBFBFB" fill-opacity="0.2"/>
<path d="M43.8143 27.8083L29.193 13.187C29.0103 13.0055 28.7633 12.9036 28.5058 12.9036C28.2483 12.9036 28.0012 13.0055 27.8186 13.187L13.1973 27.8083C13.0376 27.9948 12.9541 28.2346 12.9636 28.48C12.9731 28.7253 13.0748 28.958 13.2484 29.1316C13.422 29.3052 13.6547 29.4069 13.9 29.4164C14.1453 29.4258 14.3852 29.3424 14.5717 29.1827L28.5009 15.2535L42.4301 29.1925C42.6166 29.3521 42.8564 29.4356 43.1018 29.4261C43.3471 29.4166 43.5798 29.3149 43.7534 29.1413C43.927 28.9677 44.0287 28.735 44.0382 28.4897C44.0476 28.2444 43.9642 28.0045 43.8045 27.8181L43.8143 27.8083Z" fill="#196FF1"/>
<path d="M38.2492 42.1468H33.3755V32.3993H23.628V42.1468H18.7542V28.5003L16.8047 30.4498V42.1468C16.8047 42.6639 17.0101 43.1597 17.3757 43.5253C17.7413 43.891 18.2372 44.0963 18.7542 44.0963H25.5775V34.3488H31.426V44.0963H38.2492C38.7663 44.0963 39.2622 43.891 39.6278 43.5253C39.9934 43.1597 40.1988 42.6639 40.1988 42.1468V30.2159L38.2492 28.2664V42.1468Z" fill="#196FF1"/>
</g>
<defs>
<filter id="filter0_b_808_6472" x="-20" y="-20" width="97" height="97" filterUnits="userSpaceOnUse" color-interpolation-filters="sRGB">
<feFlood flood-opacity="0" result="BackgroundImageFix"/>
<feGaussianBlur in="BackgroundImageFix" stdDeviation="10"/>
<feComposite in2="SourceAlpha" operator="in" result="effect1_backgroundBlur_808_6472"/>
<feBlend mode="normal" in="SourceGraphic" in2="effect1_backgroundBlur_808_6472" result="shape"/>
</filter>
</defs>
</svg>
