<svg width="22" height="22" viewBox="0 0 22 22" fill="none" xmlns="http://www.w3.org/2000/svg">
<path d="M11.0026 14.6654C11.9751 14.6654 12.9077 14.2791 13.5953 13.5914C14.283 12.9038 14.6693 11.9712 14.6693 10.9987C14.6693 10.0262 14.283 9.09361 13.5953 8.40597C12.9077 7.71834 11.9751 7.33203 11.0026 7.33203C10.0301 7.33203 9.09751 7.71834 8.40988 8.40597C7.72225 9.09361 7.33594 10.0262 7.33594 10.9987C7.33594 11.9712 7.72225 12.9038 8.40988 13.5914C9.09751 14.2791 10.0301 14.6654 11.0026 14.6654Z" stroke="#F6F6F6" stroke-width="1.5" stroke-linecap="round" stroke-linejoin="round"/>
<path d="M2.75 14.6667V7.33333C2.75 6.11776 3.23289 4.95197 4.09243 4.09243C4.95197 3.23289 6.11776 2.75 7.33333 2.75H14.6667C15.8822 2.75 17.048 3.23289 17.9076 4.09243C18.7671 4.95197 19.25 6.11776 19.25 7.33333V14.6667C19.25 15.8822 18.7671 17.048 17.9076 17.9076C17.048 18.7671 15.8822 19.25 14.6667 19.25H7.33333C6.11776 19.25 4.95197 18.7671 4.09243 17.9076C3.23289 17.048 2.75 15.8822 2.75 14.6667Z" stroke="#F6F6F6" stroke-width="1.5"/>
<path d="M16.0391 5.9662L16.0474 5.95703" stroke="#F6F6F6" stroke-width="1.5" stroke-linecap="round" stroke-linejoin="round"/>
</svg>
