<svg width="26" height="26" viewBox="0 0 26 26" fill="none" xmlns="http://www.w3.org/2000/svg">
<path d="M13.0067 17.3307C14.1559 17.3307 15.2581 16.8742 16.0708 16.0615C16.8835 15.2489 17.34 14.1467 17.34 12.9974C17.34 11.8481 16.8835 10.7459 16.0708 9.93327C15.2581 9.12061 14.1559 8.66406 13.0067 8.66406C11.8574 8.66406 10.7552 9.12061 9.94254 9.93327C9.12989 10.7459 8.67334 11.8481 8.67334 12.9974C8.67334 14.1467 9.12989 15.2489 9.94254 16.0615C10.7552 16.8742 11.8574 17.3307 13.0067 17.3307Z" stroke="#252F4A" stroke-width="1.5" stroke-linecap="round" stroke-linejoin="round"/>
<path d="M3.25 17.3333V8.66667C3.25 7.23008 3.82068 5.85233 4.8365 4.8365C5.85233 3.82068 7.23008 3.25 8.66667 3.25H17.3333C18.7699 3.25 20.1477 3.82068 21.1635 4.8365C22.1793 5.85233 22.75 7.23008 22.75 8.66667V17.3333C22.75 18.7699 22.1793 20.1477 21.1635 21.1635C20.1477 22.1793 18.7699 22.75 17.3333 22.75H8.66667C7.23008 22.75 5.85233 22.1793 4.8365 21.1635C3.82068 20.1477 3.25 18.7699 3.25 17.3333Z" stroke="#252F4A" stroke-width="1.5"/>
<path d="M18.9517 7.05098L18.9625 7.03906" stroke="#252F4A" stroke-width="1.5" stroke-linecap="round" stroke-linejoin="round"/>
</svg>
