<svg width="57" height="57" viewBox="0 0 57 57" fill="none" xmlns="http://www.w3.org/2000/svg">
<g filter="url(#filter0_b_808_6755)">
<rect width="57" height="57" rx="28.5" fill="#FBFBFB" fill-opacity="0.2"/>
<path d="M28.4988 17.4167V44.3334M28.4988 17.4167C29.1287 17.4167 29.7328 17.1665 30.1782 16.7211C30.6236 16.2757 30.8738 15.6716 30.8738 15.0417C30.8738 14.4119 30.6236 13.8078 30.1782 13.3624C29.7328 12.917 29.1287 12.6667 28.4988 12.6667C27.869 12.6667 27.2649 12.917 26.8195 13.3624C26.3741 13.8078 26.1238 14.4119 26.1238 15.0417C26.1238 15.6716 26.3741 16.2757 26.8195 16.7211C27.2649 17.1665 27.869 17.4167 28.4988 17.4167ZM28.4988 44.3334H23.7488M28.4988 44.3334H33.2488M42.7488 30.0834L38.7905 22.1667L34.8322 30.0834M22.1655 30.0834L18.2072 22.1667L14.2488 30.0834M15.8322 22.1667H17.4915C19.4928 22.1667 21.434 21.3292 22.9952 19.7917C26.2125 16.6251 30.7852 16.6251 34.0025 19.7917C35.5637 21.3292 37.5048 22.1667 39.5062 22.1667H41.1655M38.7905 36.4167C40.9359 36.4167 42.8027 35.0962 43.7733 33.1472C44.2973 32.0942 44.5586 31.5686 44.082 30.826C43.6038 30.0834 42.8122 30.0834 41.2288 30.0834H36.349C34.7673 30.0834 33.9756 30.0834 33.499 30.826C33.0208 31.5686 33.2821 32.0942 33.8062 33.1472C34.7783 35.0962 36.6451 36.4167 38.7905 36.4167ZM18.2072 36.4167C20.3526 36.4167 22.2193 35.0962 23.1899 33.1472C23.714 32.0942 23.9753 31.5686 23.4987 30.826C23.0205 30.0834 22.2288 30.0834 20.6455 30.0834H15.7673C14.1855 30.0834 13.3938 30.0834 12.9173 30.826C12.4391 31.5686 12.7003 32.0942 13.2244 33.1472C14.195 35.0962 16.0618 36.4167 18.2072 36.4167Z" stroke="#196FF1" stroke-width="1.5" stroke-linecap="round" stroke-linejoin="round"/>
</g>
<defs>
<filter id="filter0_b_808_6755" x="-20" y="-20" width="97" height="97" filterUnits="userSpaceOnUse" color-interpolation-filters="sRGB">
<feFlood flood-opacity="0" result="BackgroundImageFix"/>
<feGaussianBlur in="BackgroundImageFix" stdDeviation="10"/>
<feComposite in2="SourceAlpha" operator="in" result="effect1_backgroundBlur_808_6755"/>
<feBlend mode="normal" in="SourceGraphic" in2="effect1_backgroundBlur_808_6755" result="shape"/>
</filter>
</defs>
</svg>
