<svg width="158" height="28" viewBox="0 0 158 28" fill="none" xmlns="http://www.w3.org/2000/svg">
<g clip-path="url(#clip0_2001_677)">
<path d="M8.60263 1.39431C11.7381 0.289527 15.3135 0.380083 18.394 1.61165C20.3559 2.39043 22.0978 3.74878 23.2346 5.50557C24.2614 7.02691 24.7015 8.87426 24.8299 10.6854C22.7946 10.6854 20.7776 10.6854 18.7423 10.6854C18.7423 9.38138 18.3206 8.00492 17.2938 7.13558C16.0103 6.03079 14.1951 5.77724 12.5265 5.90402C10.7663 6.06702 9.04269 6.99069 8.1259 8.51204C6.6957 10.7397 6.53068 13.5289 6.9524 16.0825C7.31912 18.0204 8.30925 19.9946 10.1062 21.0088C11.5364 21.8781 13.2966 21.9506 14.9102 21.7151C16.5971 21.4978 18.2656 20.6828 19.2558 19.2882C19.3291 18.6724 19.2741 18.0386 19.2924 17.4228C17.2388 17.3866 15.2219 17.4047 13.1866 17.3866C13.1866 15.6298 13.1866 13.8911 13.1866 12.1343C17.1655 12.1343 21.1443 12.1343 25.1232 12.1343C25.1232 16.9519 25.1232 21.7695 25.1232 26.5871C23.583 26.5871 22.0245 26.5871 20.4843 26.6052C20.3009 26.2067 20.1542 25.8083 19.9342 25.4279C17.9906 26.5871 15.6803 27.0942 13.4066 27.0217C10.7296 27.1304 7.99754 26.3516 5.79724 24.8303C3.34024 23.1097 1.76335 20.393 1.08493 17.5314C0.681538 15.9014 0.699874 14.199 0.736546 12.5327C0.828225 10.3413 1.50665 8.16792 2.58847 6.26624C3.98199 4.03856 6.10895 2.24554 8.60263 1.39431Z" fill="#FFC107"/>
<path d="M28.9453 1.17631C35.0878 1.14009 41.2487 1.17631 47.3912 1.1582C47.3912 2.87877 47.3912 4.59934 47.3912 6.31991C43.2106 6.31991 39.0484 6.31991 34.8678 6.31991C34.8495 7.89559 34.8678 9.45316 34.8678 11.0288C38.4983 11.0469 42.1471 11.0107 45.7776 11.0469C45.7776 12.7675 45.7776 14.4881 45.7776 16.2087C42.1471 16.2268 38.4983 16.2087 34.8678 16.2087C34.8678 19.6679 34.8861 23.1272 34.8678 26.6045C32.9059 26.5864 30.9256 26.6045 28.9636 26.6045C28.9453 18.1284 28.9453 9.65238 28.9453 1.17631Z" fill="#252F4A"/>
<path d="M54.6406 26.6058V1.05078H60.8932V21.5889H71.6563V26.6058L54.6406 26.6058Z" fill="#252F4A"/>
<path d="M83.9659 26.9675C81.9306 26.9675 80.1887 26.569 78.7219 25.7721C77.255 24.9752 76.1182 23.8342 75.3297 22.3672C74.5413 20.8821 74.1562 19.1253 74.1562 17.0968C74.1562 15.1227 74.5596 13.384 75.3481 11.8989C76.1365 10.4138 77.255 9.25467 78.7035 8.42155C80.1521 7.58843 81.839 7.17188 83.8009 7.17188C85.1761 7.17188 86.4413 7.38921 87.5964 7.80577C88.7332 8.22233 89.7234 8.85622 90.5668 9.68934C91.3919 10.5225 92.052 11.5548 92.5104 12.7683C92.9688 13.9817 93.2072 15.3763 93.2072 16.952V18.4733H76.3382V14.9597H87.4497C87.4497 14.3077 87.2847 13.7282 86.9913 13.221C86.6796 12.7139 86.2762 12.3155 85.7445 12.0257C85.2128 11.7359 84.6077 11.591 83.9293 11.591C83.2325 11.591 82.6274 11.7359 82.0773 12.0438C81.5273 12.3517 81.0872 12.7683 80.7755 13.2754C80.4638 13.8006 80.2804 14.3802 80.2621 15.0322V18.6544C80.2621 19.4332 80.4088 20.1214 80.7205 20.701C81.0322 21.2805 81.4723 21.7514 82.0407 22.0593C82.6091 22.3853 83.2875 22.5483 84.0943 22.5483C84.6444 22.5483 85.1394 22.4759 85.5795 22.331C86.0196 22.1861 86.4046 21.9688 86.7346 21.6609C87.0464 21.3711 87.3031 21.0089 87.4497 20.5923L93.1155 20.7553C92.8772 22.005 92.3637 23.1098 91.5753 24.0335C90.7869 24.9571 89.7417 25.6816 88.4399 26.1887C87.138 26.7139 85.6528 26.9675 83.9659 26.9675Z" fill="#252F4A"/>
<path d="M101.8 26.9318C100.553 26.9318 99.4714 26.7326 98.5179 26.316C97.5645 25.8994 96.8127 25.2837 96.2626 24.4505C95.7125 23.6174 95.4375 22.567 95.4375 21.2992C95.4375 20.2306 95.6209 19.3432 96.0059 18.6006C96.391 17.8762 96.9044 17.2785 97.5645 16.8076C98.2245 16.3548 98.9946 16.0107 99.8564 15.7571C100.718 15.5217 101.653 15.3587 102.643 15.2681C103.744 15.1595 104.642 15.0689 105.302 14.9421C105.981 14.8335 106.457 14.6705 106.769 14.4531C107.081 14.2358 107.227 13.946 107.227 13.5476V13.4932C107.227 12.8593 107.007 12.3522 106.549 12.0081C106.109 11.664 105.504 11.4829 104.734 11.4829C103.909 11.4829 103.267 11.664 102.772 12.0081C102.277 12.3522 101.965 12.8412 101.818 13.457L96.1159 13.2578C96.2809 12.0987 96.721 11.0482 97.4178 10.1245C98.1145 9.20087 99.0863 8.47642 100.315 7.95119C101.543 7.42597 103.029 7.1543 104.77 7.1543C106.017 7.1543 107.154 7.29919 108.199 7.58897C109.244 7.87875 110.161 8.29531 110.931 8.83864C111.701 9.38198 112.306 10.0521 112.728 10.849C113.15 11.6459 113.37 12.5333 113.37 13.5476V26.5696H107.557V23.9072H107.411C107.062 24.5592 106.622 25.1026 106.091 25.5553C105.559 26.0081 104.935 26.3341 104.202 26.5696C103.469 26.805 102.698 26.9318 101.8 26.9318ZM103.707 22.9292C104.367 22.9292 104.972 22.8024 105.504 22.5308C106.036 22.2591 106.457 21.8969 106.787 21.426C107.099 20.9551 107.264 20.4117 107.264 19.7778V17.9667C107.081 18.0573 106.879 18.1478 106.622 18.2203C106.366 18.2927 106.109 18.3652 105.816 18.4376C105.522 18.5101 105.21 18.5644 104.899 18.6187C104.587 18.6731 104.294 18.7093 104 18.7636C103.414 18.8542 102.919 18.9991 102.515 19.1802C102.112 19.3794 101.8 19.6148 101.58 19.9227C101.36 20.2306 101.25 20.5928 101.25 21.0094C101.25 21.6433 101.488 22.1323 101.947 22.4583C102.423 22.7662 103.01 22.9292 103.707 22.9292Z" fill="#252F4A"/>
<path d="M124.24 26.8774C122.81 26.8774 121.508 26.5152 120.335 25.7726C119.161 25.0482 118.226 23.9434 117.53 22.4764C116.833 21.0094 116.484 19.1983 116.484 17.0249C116.484 14.7791 116.851 12.9137 117.566 11.4648C118.281 10.0159 119.235 8.92918 120.408 8.24095C121.582 7.53461 122.847 7.1905 124.204 7.1905C125.231 7.1905 126.092 7.37161 126.826 7.71572C127.559 8.05984 128.146 8.51262 128.623 9.03784C129.099 9.58118 129.448 10.1426 129.705 10.7222H129.833V1.05078H136.012V26.6058H129.906V23.4906H129.723C129.466 24.0883 129.099 24.6316 128.604 25.1569C128.128 25.664 127.523 26.0805 126.807 26.4065C126.074 26.7144 125.231 26.8774 124.24 26.8774ZM126.386 22.1323C127.137 22.1323 127.779 21.9149 128.311 21.4984C128.843 21.0818 129.246 20.4842 129.539 19.7235C129.833 18.9628 129.961 18.0572 129.961 17.0249C129.961 15.9745 129.815 15.0689 129.539 14.3263C129.264 13.5657 128.843 12.9861 128.311 12.5876C127.779 12.1892 127.137 11.9719 126.386 11.9719C125.616 11.9719 124.974 12.1711 124.442 12.5876C123.91 13.0042 123.507 13.5838 123.232 14.3444C122.957 15.1051 122.829 15.9926 122.829 17.0249C122.829 18.0572 122.975 18.9628 123.25 19.7235C123.525 20.4842 123.929 21.0818 124.46 21.4984C124.974 21.9149 125.634 22.1323 126.386 22.1323Z" fill="#252F4A"/>
<path d="M156.861 13.2949L151.195 13.4398C151.14 13.0413 150.975 12.6791 150.719 12.3712C150.462 12.0633 150.114 11.8098 149.71 11.6287C149.289 11.4476 148.812 11.357 148.262 11.357C147.547 11.357 146.942 11.5019 146.428 11.7736C145.933 12.0633 145.676 12.4437 145.695 12.9146C145.695 13.2949 145.841 13.6209 146.153 13.8926C146.465 14.1642 147.033 14.3816 147.858 14.5627L151.599 15.269C153.542 15.6313 154.973 16.247 155.926 17.0983C156.88 17.9495 157.356 19.0724 157.356 20.467C157.356 21.7891 156.953 22.9301 156.183 23.89C155.413 24.868 154.349 25.6106 152.992 26.1539C151.654 26.6972 150.095 26.9508 148.372 26.9508C145.603 26.9508 143.421 26.3893 141.826 25.2664C140.231 24.1435 139.314 22.6222 139.094 20.7386L145.2 20.5937C145.328 21.3001 145.676 21.8253 146.245 22.1875C146.813 22.5498 147.528 22.7309 148.408 22.7309C149.197 22.7309 149.839 22.586 150.334 22.2962C150.829 22.0064 151.085 21.6261 151.085 21.1371C151.085 20.7024 150.884 20.3583 150.499 20.0866C150.114 19.8331 149.527 19.6157 148.72 19.4708L145.328 18.8369C143.384 18.4928 141.936 17.8408 140.982 16.899C140.029 15.9573 139.552 14.7438 139.57 13.2949C139.57 12.009 139.901 10.9223 140.597 9.99865C141.294 9.09309 142.284 8.38675 143.586 7.91586C144.87 7.42685 146.391 7.19141 148.152 7.19141C150.774 7.19141 152.846 7.73474 154.367 8.82142C155.871 9.9081 156.696 11.3932 156.861 13.2949Z" fill="#252F4A"/>
</g>
<defs>
<clipPath id="clip0_2001_677">
<rect width="158" height="28" fill="white"/>
</clipPath>
</defs>
</svg>
