<svg width="24" height="24" viewBox="0 0 24 24" fill="none" xmlns="http://www.w3.org/2000/svg">
<path d="M10 9C10 9.26522 9.89464 9.51957 9.70711 9.70711C9.51957 9.89464 9.26522 10 9 10C8.73478 10 8.48043 9.89464 8.29289 9.70711C8.10536 9.51957 8 9.26522 8 9C8 8.73478 8.10536 8.48043 8.29289 8.29289C8.48043 8.10536 8.73478 8 9 8C9.26522 8 9.51957 8.10536 9.70711 8.29289C9.89464 8.48043 10 8.73478 10 9Z" stroke="#252F4A" stroke-width="2" stroke-linejoin="round"/>
<path d="M14.5 9.5C14.5 12.538 12.5 16 9 20C5.5 16 3.5 12.538 3.5 9.5C3.5 8.04131 4.07946 6.64236 5.11091 5.61091C6.14236 4.57946 7.54131 4 9 4C10.4587 4 11.8576 4.57946 12.8891 5.61091C13.9205 6.64236 14.5 8.04131 14.5 9.5Z" stroke="#252F4A" stroke-width="1.5" stroke-linejoin="round"/>
</svg>
