<svg width="36" height="36" viewBox="0 0 36 36" fill="none" xmlns="http://www.w3.org/2000/svg">
<rect x="0.5" y="0.5" width="35" height="35" rx="17.5" stroke="#DBDFE9"/>
<path d="M26.7741 21.0274L22.3453 19.0428C22.1447 18.9568 21.9257 18.9222 21.7083 18.9422C21.4909 18.9622 21.282 19.036 21.1003 19.1571C21.0819 19.169 21.0644 19.1822 21.0478 19.1965L18.7331 21.1653C18.7091 21.1784 18.6824 21.1857 18.655 21.1867C18.6277 21.1876 18.6005 21.1822 18.5756 21.1709C17.0878 20.4528 15.5466 18.9209 14.8256 17.4537C14.8136 17.4292 14.8074 17.4022 14.8074 17.3749C14.8074 17.3476 14.8136 17.3207 14.8256 17.2962L16.8009 14.9524C16.8151 14.9351 16.8283 14.917 16.8403 14.8981C16.9598 14.7157 17.0319 14.5065 17.0502 14.2893C17.0685 14.0721 17.0325 13.8538 16.9453 13.654L14.9747 9.23276C14.8628 8.97177 14.6692 8.75411 14.4231 8.61246C14.177 8.4708 13.8916 8.41279 13.6097 8.44713C12.3846 8.60819 11.2601 9.20983 10.4462 10.1396C9.63238 11.0694 9.18494 12.2637 9.18751 13.4993C9.18751 20.8399 15.1594 26.8118 22.5 26.8118C23.7356 26.8142 24.9298 26.3667 25.8595 25.5529C26.7893 24.7391 27.3909 23.6147 27.5522 22.3896C27.5865 22.1091 27.5292 21.8249 27.389 21.5795C27.2488 21.3341 27.0332 21.1404 26.7741 21.0274ZM22.5 25.6868C15.78 25.6868 10.3125 20.2193 10.3125 13.4993C10.3094 12.5374 10.6566 11.6072 11.2892 10.8826C11.9219 10.158 12.7968 9.68847 13.7503 9.56182H13.7719C13.8097 9.56253 13.8464 9.57463 13.8771 9.59655C13.9079 9.61846 13.9314 9.64917 13.9444 9.68463L15.9225 14.1012C15.9338 14.1258 15.9396 14.1525 15.9396 14.1795C15.9396 14.2065 15.9338 14.2332 15.9225 14.2578L13.9434 16.6071C13.9288 16.624 13.9153 16.6418 13.9031 16.6606C13.7793 16.8496 13.7064 17.0675 13.6914 17.293C13.6765 17.5185 13.72 17.744 13.8178 17.9478C14.6494 19.6503 16.365 21.3528 18.0863 22.1843C18.2912 22.2816 18.5178 22.3241 18.7441 22.3076C18.9703 22.2912 19.1885 22.2164 19.3772 22.0906C19.395 22.0784 19.4128 22.0653 19.4297 22.0512L21.7434 20.0824C21.7663 20.0702 21.7915 20.063 21.8174 20.0614C21.8433 20.0597 21.8692 20.0637 21.8934 20.0731L26.3231 22.0578C26.3593 22.0732 26.3897 22.0996 26.4101 22.1332C26.4305 22.1669 26.4397 22.2061 26.4366 22.2453C26.3106 23.1993 25.8415 24.0748 25.1171 24.7081C24.3926 25.3415 23.4623 25.6894 22.5 25.6868Z" fill="#252F4A"/>
</svg>
