<svg width="24" height="24" viewBox="0 0 24 24" fill="none" xmlns="http://www.w3.org/2000/svg">
<path d="M20.7741 15.0274L16.3453 13.0428C16.1447 12.9568 15.9257 12.9222 15.7083 12.9422C15.4909 12.9622 15.282 13.036 15.1003 13.1571C15.0819 13.169 15.0644 13.1822 15.0478 13.1965L12.7331 15.1653C12.7091 15.1784 12.6824 15.1857 12.655 15.1867C12.6277 15.1876 12.6005 15.1822 12.5756 15.1709C11.0878 14.4528 9.54657 12.9209 8.82564 11.4537C8.81363 11.4292 8.80739 11.4022 8.80739 11.3749C8.80739 11.3476 8.81363 11.3207 8.82564 11.2962L10.8009 8.95245C10.8151 8.93512 10.8283 8.91696 10.8403 8.89807C10.9598 8.71573 11.0319 8.50652 11.0502 8.28932C11.0685 8.07213 11.0325 7.85379 10.9453 7.65401L8.9747 3.23276C8.86279 2.97177 8.66925 2.75411 8.42313 2.61246C8.17701 2.4708 7.89159 2.41279 7.6097 2.44713C6.3846 2.60819 5.26006 3.20983 4.44622 4.1396C3.63238 5.06938 3.18494 6.26368 3.18751 7.49932C3.18751 14.8399 9.15939 20.8118 16.5 20.8118C17.7356 20.8142 18.9298 20.3667 19.8595 19.5529C20.7893 18.7391 21.3909 17.6147 21.5522 16.3896C21.5865 16.1091 21.5292 15.8249 21.389 15.5795C21.2488 15.3341 21.0332 15.1404 20.7741 15.0274ZM16.5 19.6868C9.78001 19.6868 4.31251 14.2193 4.31251 7.49932C4.30938 6.53738 4.65658 5.6072 5.28924 4.88258C5.9219 4.15796 6.79675 3.68847 7.75032 3.56182H7.77189C7.80967 3.56253 7.84635 3.57463 7.87713 3.59655C7.90791 3.61846 7.93136 3.64917 7.94439 3.68463L9.92251 8.1012C9.93379 8.12575 9.93963 8.15245 9.93963 8.17948C9.93963 8.2065 9.93379 8.2332 9.92251 8.25776L7.94345 10.6071C7.92876 10.624 7.91528 10.6418 7.90314 10.6606C7.7793 10.8496 7.70637 11.0675 7.69143 11.293C7.67648 11.5185 7.72002 11.744 7.81782 11.9478C8.64939 13.6503 10.365 15.3528 12.0863 16.1843C12.2912 16.2816 12.5178 16.3241 12.7441 16.3076C12.9703 16.2912 13.1885 16.2164 13.3772 16.0906C13.395 16.0784 13.4128 16.0653 13.4297 16.0512L15.7434 14.0824C15.7663 14.0702 15.7915 14.063 15.8174 14.0614C15.8433 14.0597 15.8692 14.0637 15.8934 14.0731L20.3231 16.0578C20.3593 16.0732 20.3897 16.0996 20.4101 16.1332C20.4305 16.1669 20.4397 16.2061 20.4366 16.2453C20.3106 17.1993 19.8415 18.0748 19.1171 18.7081C18.3926 19.3415 17.4623 19.6894 16.5 19.6868Z" fill="#252F4A" fill-opacity="0.8"/>
</svg>
