<svg width="130" height="38" viewBox="0 0 130 38" fill="none" xmlns="http://www.w3.org/2000/svg">
<g clip-path="url(#clip0_2_506)">
<rect x="0.5" y="0.5" width="129" height="36.7627" rx="7.5" stroke="#DBDBDB"/>
<path d="M102.975 28.5005H104.772V16.6237H102.975V28.5005ZM119.16 20.9023L117.1 26.0512H117.038L114.901 20.9023H112.965L116.172 28.0986L114.343 32.1018H116.217L121.158 20.9027L119.16 20.9023ZM108.969 27.1514C108.382 27.1514 107.56 26.8608 107.56 26.1428C107.56 25.2262 108.583 24.8748 109.465 24.8748C110.255 24.8748 110.627 25.0425 111.107 25.2718C110.967 26.3721 110.007 27.1514 108.969 27.1514ZM109.187 20.6426C107.886 20.6426 106.539 21.2081 105.981 22.4609L107.576 23.1177C107.917 22.4609 108.551 22.2472 109.218 22.2472C110.147 22.2472 111.091 22.7968 111.107 23.775V23.897C110.781 23.7137 110.084 23.4388 109.233 23.4388C107.513 23.4388 105.763 24.3705 105.763 26.1124C105.763 27.7014 107.173 28.7252 108.752 28.7252C109.96 28.7252 110.627 28.1904 111.044 27.5637H111.107V28.481H112.842V23.9274C112.842 21.8189 111.246 20.6426 109.187 20.6426ZM98.0819 22.3481H95.5262V18.2773H98.0819C99.4252 18.2773 100.188 19.3743 100.188 20.3127C100.188 21.233 99.4251 22.3481 98.0819 22.3481ZM98.0356 16.624H93.7302V28.5008H95.5263V24.0014H98.0357C100.027 24.0014 101.985 22.5794 101.985 20.3131C101.985 18.0473 100.027 16.624 98.0356 16.624ZM74.5584 27.1534C73.317 27.1534 72.2781 26.1277 72.2781 24.7202C72.2781 23.2963 73.317 22.2562 74.5584 22.2562C75.7839 22.2562 76.7457 23.2964 76.7457 24.7202C76.7457 26.1277 75.7839 27.1534 74.5584 27.1534ZM76.6215 21.5672H76.5594C76.1562 21.0928 75.3802 20.6643 74.4034 20.6643C72.3552 20.6643 70.4782 22.4399 70.4782 24.7202C70.4782 26.985 72.3552 28.745 74.4034 28.745C75.3802 28.745 76.1562 28.3164 76.5594 27.8269H76.6215V28.4081C76.6215 29.9544 75.7839 30.7804 74.4342 30.7804C73.3332 30.7804 72.6505 30 72.371 29.342L70.8045 29.9847C71.254 31.0556 72.4482 32.3723 74.4343 32.3723C76.5445 32.3723 78.3285 31.1477 78.3285 28.1631V20.9091H76.6216L76.6215 21.5672ZM79.5698 28.5001H81.3686V16.6234H79.5698V28.5001ZM84.0216 24.5822C83.9753 23.021 85.2478 22.2254 86.1626 22.2254C86.8765 22.2254 87.4809 22.5775 87.6834 23.0822L84.0216 24.5822ZM89.6062 23.2351C89.2651 22.3327 88.2258 20.6643 86.1005 20.6643C83.9903 20.6643 82.2375 22.3018 82.2375 24.7047C82.2375 26.9698 83.9753 28.7451 86.3018 28.7451C88.1788 28.7451 89.2651 27.6129 89.7153 26.9546L88.319 26.0361C87.8534 26.7097 87.2177 27.1535 86.3018 27.1535C85.387 27.1535 84.7351 26.7401 84.3169 25.929L89.7924 23.6946L89.6062 23.2351ZM45.9775 21.904V23.6181H50.135C50.0109 24.5823 49.6851 25.2862 49.1886 25.776C48.5834 26.3727 47.637 27.031 45.9774 27.031C43.4177 27.031 41.4166 24.9956 41.4166 22.4703C41.4166 19.9451 43.4177 17.9094 45.9774 17.9094C47.3582 17.9094 48.3663 18.4452 49.111 19.1339L50.3369 17.9246C49.2972 16.9452 47.9167 16.1953 45.9774 16.1953C42.4709 16.1953 39.5234 19.0114 39.5234 22.4703C39.5234 25.9289 42.4709 28.7451 45.9774 28.7451C47.8698 28.7451 49.2973 28.1328 50.414 26.9851C51.5621 25.8525 51.919 24.2609 51.919 22.9751C51.919 22.5776 51.8877 22.2103 51.8257 21.904H45.9775ZM56.6462 27.1534C55.4048 27.1534 54.3343 26.1433 54.3343 24.7047C54.3343 23.2507 55.4048 22.2562 56.6462 22.2562C57.887 22.2562 58.9575 23.2507 58.9575 24.7047C58.9575 26.1433 57.887 27.1534 56.6462 27.1534ZM56.6462 20.6643C54.3806 20.6643 52.5348 22.363 52.5348 24.7047C52.5348 27.031 54.3806 28.7451 56.6462 28.7451C58.9109 28.7451 60.7571 27.031 60.7571 24.7047C60.7571 22.363 58.9109 20.6643 56.6462 20.6643ZM65.614 27.1534C64.3735 27.1534 63.3027 26.1433 63.3027 24.7047C63.3027 23.2507 64.3736 22.2562 65.614 22.2562C66.8554 22.2562 67.9255 23.2507 67.9255 24.7047C67.9255 26.1433 66.8554 27.1534 65.614 27.1534ZM65.614 20.6643C63.3493 20.6643 61.5035 22.363 61.5035 24.7047C61.5035 27.031 63.3493 28.7451 65.614 28.7451C67.8796 28.7451 69.7254 27.031 69.7254 24.7047C69.7254 22.363 67.8796 20.6643 65.614 20.6643Z" fill="#F3F9FF"/>
<path d="M19.9543 18.4533L9.70312 29.1878C9.70351 29.1901 9.70428 29.1919 9.70464 29.1942C10.019 30.3598 11.0982 31.2181 12.379 31.2181C12.891 31.2181 13.3717 31.0816 13.784 30.8418L13.8167 30.8229L25.3564 24.2536L19.9543 18.4533Z" fill="#EB3131"/>
<path d="M30.3235 16.6255L30.3137 16.6188L25.3316 13.7695L19.7188 18.6969L25.3511 24.2528L30.3069 21.4319C31.1757 20.9691 31.7656 20.0655 31.7656 19.0235C31.7656 17.9889 31.1837 17.0897 30.3235 16.6255Z" fill="#F6B60B"/>
<path d="M9.70339 8.8125C9.64177 9.0367 9.60938 9.27153 9.60938 9.51539V28.4844C9.60938 28.7278 9.64138 28.9634 9.70378 29.1868L20.3089 18.7266L9.70339 8.8125Z" fill="#5778C5"/>
<path d="M20.0309 19.0021L25.3373 13.7687L13.8106 7.1756C13.3917 6.92803 12.9027 6.78516 12.3794 6.78516C11.0986 6.78516 10.018 7.64501 9.70351 8.81202C9.70313 8.81316 9.70312 8.81394 9.70312 8.81494L20.0309 19.0021Z" fill="#3BAD49"/>
<path d="M45.6323 9.29141H42.8232V9.9772H44.9282C44.871 10.5368 44.6453 10.9762 44.2646 11.2953C43.884 11.6145 43.398 11.7748 42.8232 11.7748C42.1928 11.7748 41.6587 11.5581 41.2209 11.1277C40.792 10.6883 40.5739 10.145 40.5739 9.4904C40.5739 8.83587 40.792 8.29254 41.2209 7.85321C41.6587 7.42277 42.1928 7.20751 42.8232 7.20751C43.1468 7.20751 43.4552 7.26242 43.738 7.38269C44.0209 7.50286 44.2481 7.67063 44.4256 7.88589L44.9598 7.35894C44.7175 7.08725 44.4106 6.87948 44.0298 6.72806C43.6492 6.57663 43.252 6.50396 42.8232 6.50396C41.9821 6.50396 41.269 6.79189 40.6867 7.36637C40.1044 7.94225 39.8125 8.6518 39.8125 9.49042C39.8125 10.329 40.1044 11.0401 40.6867 11.6146C41.269 12.189 41.9821 12.477 42.8232 12.477C43.7064 12.477 44.4105 12.1979 44.9522 11.6309C45.4291 11.1589 45.6729 10.5206 45.6729 9.72205C45.6729 9.58696 45.6564 9.44284 45.6323 9.29141ZM46.7205 6.63149V12.3493H50.1043V11.6471H47.4653V9.83331H49.8456V9.14752H47.4653V7.33512H50.1043V6.63147L46.7205 6.63149ZM54.8492 7.33514V6.63149H50.8665V7.33514H52.4855V12.3492H53.2302V7.33514H54.8492ZM58.4549 6.63149H57.7101V12.3493H58.4549V6.63149ZM63.3707 7.33514V6.63149H59.3881V7.33514H61.007V12.3492H61.7517V7.33514H63.3707ZM70.8862 7.37523C70.3114 6.79185 69.6073 6.50391 68.7662 6.50391C67.9236 6.50391 67.2195 6.79184 66.6447 7.36632C66.0699 7.93337 65.7871 8.64434 65.7871 9.49037C65.7871 10.3364 66.07 11.0475 66.6447 11.6146C67.2195 12.1889 67.9236 12.477 68.7662 12.477C69.5997 12.477 70.3114 12.1889 70.8862 11.6146C71.461 11.0475 71.7437 10.3365 71.7437 9.49037C71.7437 8.65175 71.4609 7.94217 70.8862 7.37523ZM67.1789 7.85316C67.6077 7.42272 68.1343 7.20746 68.7662 7.20746C69.3966 7.20746 69.9232 7.42273 70.3445 7.85316C70.7733 8.27619 70.9839 8.8283 70.9839 9.49035C70.9839 10.1539 70.7733 10.7045 70.3445 11.1276C69.9232 11.5581 69.3966 11.7747 68.7662 11.7747C68.1343 11.7747 67.6077 11.558 67.1789 11.1276C66.759 10.6957 66.5484 10.1539 66.5484 9.49035C66.5484 8.82831 66.759 8.28508 67.1789 7.85316ZM73.5132 8.78832L73.4816 7.68537H73.5132L76.4592 12.3492H77.237V6.63143H76.4923V9.97714L76.5238 11.0801H76.4923L73.6757 6.63143H72.7684V12.3492H73.5132V8.78832Z" fill="#F3F9FF" stroke="#F3F9FF" stroke-width="0.26666" stroke-miterlimit="10"/>
</g>
<defs>
<clipPath id="clip0_2_506">
<rect width="130" height="38" fill="white"/>
</clipPath>
</defs>
</svg>
