<svg width="136" height="40" viewBox="0 0 136 40" fill="none" xmlns="http://www.w3.org/2000/svg">
<g clip-path="url(#clip0_55_1889)">
<rect x="0.5" y="0.5" width="135" height="38.7502" rx="7.5" stroke="#DBDBDB"/>
<path d="M107.727 29.9997H109.606V17.4979H107.727V29.9997ZM124.658 22.0016L122.503 27.4215H122.439L120.202 22.0016H118.177L121.532 29.5767L119.619 33.7906H121.579L126.748 22.002L124.658 22.0016ZM113.997 28.5796C113.382 28.5796 112.523 28.2737 112.523 27.5179C112.523 26.553 113.593 26.1831 114.516 26.1831C115.342 26.1831 115.732 26.3597 116.233 26.6011C116.087 27.7593 115.083 28.5796 113.997 28.5796ZM114.225 21.7282C112.864 21.7282 111.454 22.3235 110.871 23.6423L112.539 24.3337C112.896 23.6423 113.56 23.4173 114.257 23.4173C115.229 23.4173 116.217 23.9958 116.233 25.0255V25.154C115.893 24.961 115.163 24.6716 114.273 24.6716C112.474 24.6716 110.643 25.6523 110.643 27.4859C110.643 29.1585 112.118 30.2362 113.77 30.2362C115.034 30.2362 115.732 29.6733 116.168 29.0136H116.233V29.9792H118.049V25.1859C118.049 22.9664 116.378 21.7282 114.225 21.7282ZM102.607 23.5235H99.9335V19.2385H102.607C104.012 19.2385 104.81 20.3932 104.81 21.3809C104.81 22.3497 104.012 23.5235 102.607 23.5235ZM102.559 17.4982H98.0546V30H99.9336V25.2638H102.559C104.642 25.2638 106.69 23.7669 106.69 21.3814C106.69 18.9963 104.642 17.4982 102.559 17.4982ZM77.9979 28.5817C76.6993 28.5817 75.6124 27.502 75.6124 26.0205C75.6124 24.5216 76.6993 23.4267 77.9979 23.4267C79.2801 23.4267 80.2862 24.5217 80.2862 26.0205C80.2862 27.502 79.2801 28.5817 77.9979 28.5817ZM80.1563 22.7015H80.0914C79.6696 22.2022 78.8577 21.7511 77.8358 21.7511C75.6931 21.7511 73.7295 23.6201 73.7295 26.0205C73.7295 28.4044 75.6931 30.2571 77.8358 30.2571C78.8577 30.2571 79.6695 29.8059 80.0914 29.2907H80.1563V29.9024C80.1563 31.5301 79.2801 32.3996 77.8681 32.3996C76.7162 32.3996 76.0021 31.5781 75.7097 30.8855L74.0708 31.562C74.541 32.6893 75.7904 34.0753 77.8681 34.0753C80.0757 34.0753 81.9421 32.7862 81.9421 29.6445V22.0087H80.1564L80.1563 22.7015ZM83.2407 29.9993H85.1225V17.4975H83.2407V29.9993ZM87.8979 25.8752C87.8495 24.2318 89.1807 23.3943 90.1378 23.3943C90.8846 23.3943 91.517 23.765 91.7287 24.2963L87.8979 25.8752ZM93.7403 24.4572C93.3834 23.5073 92.2962 21.7511 90.0728 21.7511C87.8652 21.7511 86.0315 23.4748 86.0315 26.0041C86.0315 28.3884 87.8495 30.2572 90.2834 30.2572C92.247 30.2572 93.3835 29.0654 93.8544 28.3724L92.3937 27.4056C91.9066 28.1146 91.2416 28.5818 90.2834 28.5818C89.3264 28.5818 88.6444 28.1467 88.2069 27.2928L93.9351 24.9409L93.7403 24.4572ZM48.098 23.0561V24.8603H52.4473C52.3175 25.8753 51.9767 26.6162 51.4572 27.1318C50.8241 27.7599 49.8341 28.4529 48.0979 28.4529C45.42 28.4529 43.3266 26.3103 43.3266 23.6522C43.3266 20.994 45.42 18.8512 48.0979 18.8512C49.5424 18.8512 50.597 19.4151 51.3761 20.1401L52.6586 18.8671C51.5709 17.8363 50.1267 17.0469 48.0979 17.0469C44.4295 17.0469 41.346 20.0112 41.346 23.6522C41.346 27.2928 44.4295 30.2572 48.0979 30.2572C50.0776 30.2572 51.571 29.6127 52.7393 28.4045C53.9403 27.2123 54.3137 25.5369 54.3137 24.1835C54.3137 23.7651 54.281 23.3784 54.2161 23.0561H48.098ZM59.259 28.5817C57.9604 28.5817 56.8405 27.5184 56.8405 26.0041C56.8405 24.4736 57.9604 23.4268 59.259 23.4268C60.5572 23.4268 61.677 24.4736 61.677 26.0041C61.677 27.5184 60.5572 28.5817 59.259 28.5817ZM59.259 21.7511C56.8889 21.7511 54.9579 23.5392 54.9579 26.0041C54.9579 28.4529 56.8889 30.2572 59.259 30.2572C61.6283 30.2572 63.5597 28.4529 63.5597 26.0041C63.5597 23.5392 61.6283 21.7511 59.259 21.7511ZM68.6408 28.5817C67.343 28.5817 66.2228 27.5184 66.2228 26.0041C66.2228 24.4736 67.3431 23.4268 68.6408 23.4268C69.9394 23.4268 71.0589 24.4736 71.0589 26.0041C71.0589 27.5184 69.9394 28.5817 68.6408 28.5817ZM68.6408 21.7511C66.2715 21.7511 64.3405 23.5392 64.3405 26.0041C64.3405 28.4529 66.2715 30.2572 68.6408 30.2572C71.0109 30.2572 72.9419 28.4529 72.9419 26.0041C72.9419 23.5392 71.0109 21.7511 68.6408 21.7511Z" fill="#252F4A"/>
<path d="M20.8709 19.424L10.1465 30.7235C10.1469 30.7259 10.1477 30.7278 10.1481 30.7302C10.477 31.9572 11.606 32.8607 12.9459 32.8607C13.4816 32.8607 13.9844 32.7169 14.4157 32.4646L14.45 32.4447L26.5222 25.5296L20.8709 19.424Z" fill="#EB3131"/>
<path d="M31.718 17.5004L31.7077 17.4934L26.4957 14.4941L20.6238 19.6809L26.5161 25.5292L31.7006 22.5598C32.6095 22.0727 33.2266 21.1215 33.2266 20.0246C33.2266 18.9356 32.6179 17.9891 31.718 17.5004Z" fill="#F6B60B"/>
<path d="M10.1464 9.27734C10.0819 9.51334 10.048 9.76053 10.048 10.0172V29.9846C10.048 30.2408 10.0815 30.4889 10.1468 30.724L21.2414 19.7132L10.1464 9.27734Z" fill="#5778C5"/>
<path d="M20.951 20.0006L26.5023 14.4917L14.4436 7.55162C14.0053 7.29102 13.4937 7.14062 12.9463 7.14062C11.6064 7.14062 10.4759 8.04573 10.1469 9.27416C10.1465 9.27536 10.1465 9.27619 10.1465 9.27724L20.951 20.0006Z" fill="#3BAD49"/>
<path d="M47.744 9.77992H44.8053V10.5018H47.0075C46.9476 11.0909 46.7115 11.5534 46.3133 11.8893C45.915 12.2253 45.4066 12.394 44.8053 12.394C44.1458 12.394 43.587 12.1659 43.129 11.7128C42.6804 11.2503 42.4522 10.6784 42.4522 9.98939C42.4522 9.3004 42.6804 8.72848 43.129 8.26602C43.587 7.81293 44.1458 7.58634 44.8053 7.58634C45.1438 7.58634 45.4665 7.64414 45.7623 7.77074C46.0583 7.89723 46.2959 8.07383 46.4817 8.30043L47.0405 7.74574C46.787 7.45975 46.466 7.24105 46.0676 7.08165C45.6694 6.92226 45.2539 6.84576 44.8052 6.84576C43.9254 6.84576 43.1794 7.14885 42.5702 7.75356C41.961 8.35975 41.6556 9.10664 41.6556 9.9894C41.6556 10.8722 41.961 11.6207 42.5702 12.2254C43.1793 12.83 43.9254 13.1332 44.8052 13.1332C45.7292 13.1332 46.4659 12.8394 47.0325 12.2425C47.5315 11.7457 47.7865 11.0738 47.7865 10.2332C47.7865 10.091 47.7692 9.93931 47.744 9.77992ZM48.8825 6.98V12.9987H52.4224V12.2596H49.6616V10.3503H52.1518V9.62845H49.6616V7.72067H52.4224V6.97998L48.8825 6.98ZM57.3863 7.72069V6.98H53.2198V7.72069H54.9135V12.9987H55.6926V7.72069H57.3863ZM61.1584 6.98H60.3793V12.9987H61.1584V6.98ZM66.3012 7.72069V6.98H62.1347V7.72069H63.8283V12.9987H64.6074V7.72069H66.3012ZM74.1635 7.76288C73.5622 7.1488 72.8255 6.8457 71.9456 6.8457C71.0642 6.8457 70.3276 7.1488 69.7263 7.75351C69.1249 8.3504 68.8291 9.09879 68.8291 9.98935C68.8291 10.8799 69.125 11.6284 69.7263 12.2253C70.3276 12.8299 71.0642 13.1331 71.9456 13.1331C72.8176 13.1331 73.5621 12.8299 74.1635 12.2253C74.7648 11.6284 75.0606 10.88 75.0606 9.98935C75.0606 9.10659 74.7648 8.35966 74.1635 7.76288ZM70.2851 8.26597C70.7337 7.81288 71.2846 7.58629 71.9456 7.58629C72.6052 7.58629 73.1561 7.81289 73.5968 8.26597C74.0454 8.71127 74.2657 9.29243 74.2657 9.98933C74.2657 10.6878 74.0454 11.2674 73.5968 11.7128C73.1561 12.1659 72.6051 12.394 71.9456 12.394C71.2846 12.394 70.7336 12.1659 70.2851 11.7128C69.8458 11.2581 69.6255 10.6878 69.6255 9.98933C69.6255 9.29244 69.8458 8.72063 70.2851 8.26597ZM76.9117 9.25035L76.8787 8.08935H76.9117L79.9937 12.9987H80.8075V6.97994H80.0283V10.5017L80.0613 11.6627H80.0283L77.0817 6.97994H76.1326V12.9987H76.9117V9.25035Z" fill="#252F4A" stroke="#252F4A" stroke-width="0.26666" stroke-miterlimit="10"/>
</g>
<defs>
<clipPath id="clip0_55_1889">
<rect width="136" height="40" fill="white"/>
</clipPath>
</defs>
</svg>
