<svg width="34" height="34" viewBox="0 0 34 34" fill="none" xmlns="http://www.w3.org/2000/svg">
<rect width="34" height="34" rx="17" transform="matrix(-1 0 0 1 34 0)" fill="#F3F9FF"/>
<path d="M15.944 10.5081C16.0649 10.3987 16.2237 10.3409 16.3866 10.3469C16.5495 10.353 16.7036 10.4225 16.816 10.5405C16.9284 10.6586 16.9902 10.8159 16.9883 10.9789C16.9864 11.1419 16.9208 11.2977 16.8057 11.4131L11.5965 16.3747L23.8748 16.3747C24.0406 16.3747 24.1996 16.4406 24.3168 16.5578C24.434 16.675 24.4998 16.834 24.4998 16.9997C24.4998 17.1655 24.434 17.3245 24.3168 17.4417C24.1996 17.5589 24.0406 17.6247 23.8748 17.6247L11.5965 17.6247L16.8057 22.5872C16.9208 22.7026 16.9864 22.8584 16.9883 23.0214C16.9902 23.1844 16.9284 23.3417 16.816 23.4598C16.7036 23.5778 16.5495 23.6473 16.3866 23.6534C16.2237 23.6594 16.0649 23.6016 15.944 23.4922L9.76067 17.6031C9.6256 17.4745 9.53758 17.3043 9.51067 17.1197C9.49633 17.0401 9.49661 16.9585 9.51151 16.8789C9.53859 16.6947 9.6266 16.5248 9.76151 16.3964L15.944 10.5081Z" fill="#252F4A"/>
</svg>
