<svg width="34" height="34" viewBox="0 0 34 34" fill="none" xmlns="http://www.w3.org/2000/svg">
<rect width="34" height="34" rx="17" transform="matrix(1 0 0 -1 0 34)" fill="#F3F9FF"/>
<path d="M18.056 23.4919C17.9351 23.6013 17.7763 23.6591 17.6134 23.6531C17.4505 23.647 17.2964 23.5775 17.184 23.4595C17.0716 23.3414 17.0098 23.1841 17.0117 23.0211C17.0136 22.8581 17.0792 22.7023 17.1943 22.5869L22.4035 17.6253L10.1252 17.6253C9.9594 17.6253 9.80043 17.5594 9.68322 17.4422C9.56601 17.325 9.50016 17.166 9.50016 17.0003C9.50016 16.8345 9.56601 16.6755 9.68322 16.5583C9.80043 16.4411 9.9594 16.3753 10.1252 16.3753L22.4035 16.3753L17.1943 11.4128C17.0792 11.2974 17.0136 11.1416 17.0117 10.9786C17.0098 10.8156 17.0716 10.6583 17.184 10.5402C17.2964 10.4222 17.4505 10.3527 17.6134 10.3466C17.7763 10.3406 17.9351 10.3984 18.056 10.5078L24.2393 16.3969C24.3744 16.5255 24.4624 16.6957 24.4893 16.8803C24.5037 16.9599 24.5034 17.0415 24.4885 17.1211C24.4614 17.3053 24.3734 17.4752 24.2385 17.6036L18.056 23.4919Z" fill="#252F4A"/>
</svg>
