<svg width="31" height="31" viewBox="0 0 31 31" fill="none" xmlns="http://www.w3.org/2000/svg">
<path d="M5.91971 22.3737C4.58929 20.9606 3.875 19.3758 3.875 16.8066C3.875 12.2858 7.04862 8.23384 11.6637 6.23047L12.8172 8.01039C8.5095 10.3406 7.66733 13.3643 7.3315 15.2708C8.02513 14.9118 8.93317 14.7865 9.82312 14.8691C12.1533 15.0848 13.99 16.9978 13.99 19.3758C13.99 20.5748 13.5137 21.7247 12.6659 22.5725C11.8181 23.4203 10.6682 23.8966 9.46921 23.8966C8.80613 23.8909 8.15082 23.7533 7.54143 23.4918C6.93205 23.2304 6.38077 22.8503 5.91971 22.3737ZM18.8364 22.3737C17.506 20.9606 16.7917 19.3758 16.7917 16.8066C16.7917 12.2858 19.9653 8.23384 24.5804 6.23047L25.7339 8.01039C21.4262 10.3406 20.584 13.3643 20.2482 15.2708C20.9418 14.9118 21.8498 14.7865 22.7398 14.8691C25.07 15.0848 26.9067 16.9978 26.9067 19.3758C26.9067 20.5748 26.4304 21.7247 25.5826 22.5725C24.7348 23.4203 23.5849 23.8966 22.3859 23.8966C21.7228 23.8909 21.0675 23.7533 20.4581 23.4918C19.8487 23.2304 19.2974 22.8503 18.8364 22.3737Z" fill="#196FF1" fill-opacity="0.5"/>
</svg>
