<svg width="60" height="60" viewBox="0 0 60 60" fill="none" xmlns="http://www.w3.org/2000/svg">
<g clip-path="url(#clip0_2001_450)">
<path d="M6.90234 18.832L11.4609 18.8203C11.8594 18.8203 12.1875 18.5039 12.1875 18.1055L12.1758 16.4883L22.7578 16.4531L22.7695 18.0703C22.7695 18.457 23.0977 18.7734 23.4961 18.7734L28.0547 18.7617C28.4531 18.7617 28.7813 18.4453 28.7813 18.0469L28.7695 16.4297L35.3906 16.4062C39.5625 16.3945 42.9609 19.6875 42.9844 23.7656L43.0078 30.2695L41.3555 30.2812C40.957 30.2812 40.6289 30.5977 40.6289 30.9961L40.6406 35.4492C40.6406 35.8359 40.9688 36.1523 41.3672 36.1523L43.0195 36.1406L43.0547 46.4648L41.4023 46.4766C41.0039 46.4766 40.6758 46.793 40.6758 47.1914L40.6875 51.6445C40.6875 52.0313 41.0156 52.3477 41.4141 52.3477L58.6172 52.2891C59.0156 52.2891 59.3437 51.9727 59.3437 51.5742L59.332 47.1211C59.332 46.7344 59.0039 46.418 58.6055 46.418L56.9531 46.4062L56.918 36.082L58.5703 36.0703C58.9687 36.0703 59.2969 35.7539 59.2969 35.3555L59.2852 30.9023C59.2852 30.5156 58.957 30.1992 58.5586 30.1992L56.9062 30.2109L56.8828 23.707C56.8242 12.1523 47.1914 2.82422 35.3555 2.85937L28.7344 2.88281L28.7227 1.26562C28.7227 0.878906 28.3945 0.5625 27.9961 0.5625L23.4375 0.574219C23.0391 0.574219 22.7109 0.890625 22.7109 1.28906L22.7227 2.90625L12.1406 2.94141L12.1289 1.32422C12.1289 0.9375 11.8008 0.621094 11.4023 0.621094L6.84375 0.632812C6.44531 0.632812 6.11719 0.949219 6.11719 1.34766L6.17578 18.1289C6.17578 18.5156 6.50391 18.832 6.90234 18.832ZM12.1758 15.0703L12.1641 12.4453L22.7461 12.4102L22.7578 15.0352L12.1758 15.0703ZM35.3906 14.9883L28.7695 15.0117L28.7578 12.3867L35.3789 12.3633C41.8477 12.3516 47.0977 17.4375 47.1328 23.7422L47.1562 30.2461L44.4609 30.2578L44.4375 23.7539C44.4141 18.9023 40.3711 14.9766 35.3906 14.9883ZM44.4844 36.1289L47.1797 36.1172L47.2148 46.4414L44.5195 46.4531L44.4844 36.1289ZM57.9023 50.8594L42.1523 50.918L42.1406 47.8828L57.8906 47.8242L57.9023 50.8594ZM55.5117 46.418L48.668 46.4414L48.6328 36.1172L55.4766 36.0938L55.5117 46.418ZM57.8438 34.6641L42.0938 34.7227L42.082 31.6875L57.832 31.6289L57.8438 34.6641ZM35.3555 4.26563C46.3945 4.23047 55.3711 12.9375 55.4297 23.707L55.4531 30.2109L48.6094 30.2344L48.5859 23.7305C48.5508 16.6406 42.6445 10.9219 35.3789 10.9336L28.7578 10.957L28.7344 4.27734L35.3555 4.26563ZM24.1641 1.98047L27.2695 1.96875L27.3281 17.3438L24.2227 17.3555L24.1641 1.98047ZM22.7227 4.3125L22.7461 10.9922L12.1641 11.0273L12.1406 4.34766L22.7227 4.3125ZM7.57031 2.05078L10.6758 2.03906L10.7344 17.4141L7.62891 17.4258L7.57031 2.05078Z" fill="#196FF1" stroke="#196FF1" stroke-miterlimit="10"/>
<path d="M36.8595 23.8473C34.8673 21.609 31.4337 21.3981 29.1954 23.3902L25.879 26.3317L25.7032 26.1324C24.5665 24.8551 22.6212 24.7379 21.3438 25.8746C20.0665 27.0113 19.9493 28.9567 21.086 30.234L21.2618 30.4332L20.8048 30.8434L20.2774 30.2457C20.1017 30.0465 19.8087 30.0348 19.6095 30.2106L17.7462 31.8746C17.547 32.0504 17.5353 32.3434 17.711 32.5426L18.2384 33.1402L8.39463 41.8824C8.19541 42.0582 8.18369 42.3512 8.35947 42.5504L9.71885 44.0856C9.89463 44.2848 10.1876 44.2965 10.3868 44.1207L17.8985 37.441L18.2618 39.5387L1.63291 54.3043C0.461032 55.3707 0.390719 57.1871 1.45713 58.359C2.50009 59.4957 4.26963 59.6012 5.4415 58.5934L31.4337 35.4957C31.6095 35.6012 31.8321 35.5895 31.9962 35.4488L34.4923 33.2223C34.6915 33.0465 34.7032 32.7535 34.5274 32.5543L31.2228 28.8395C31.047 28.6402 30.754 28.6285 30.5548 28.8043L29.1602 30.0348L29.0079 29.8707L31.1524 27.9606L31.2813 27.8434C31.504 27.6442 31.8438 27.6676 32.0431 27.8902L35.4415 31.7223C35.6173 31.9215 35.9103 31.9332 36.1095 31.7574L36.3907 31.5113C38.6524 29.5309 38.8517 26.0973 36.8595 23.8473ZM19.8907 31.2301L22.3048 33.9488L21.1446 34.9801L18.7306 32.2613L19.8907 31.2301ZM23.3243 33.6793L22.797 33.0817L23.254 32.6715L24.461 34.0192L21.4376 36.7027L20.8282 36.0231C21.004 36.152 21.2501 36.1402 21.4259 35.9996L23.2892 34.3473C23.4767 34.1715 23.5001 33.8785 23.3243 33.6793ZM21.4376 31.5582L21.8946 31.1481L22.6212 31.9684L22.1642 32.3785L21.4376 31.5582ZM10.1056 43.0895L9.379 42.2692L10.1759 41.566L11.1603 42.1637L10.1056 43.0895ZM11.8985 41.4957L10.9142 40.8981L11.8517 40.066L12.836 40.6637L11.8985 41.4957ZM13.586 40.0074L12.6017 39.4098L13.5392 38.5777L14.5235 39.1754L13.586 40.0074ZM15.2618 38.5192L14.2774 37.9215L15.2149 37.0895L16.1993 37.6871L15.2618 38.5192ZM16.9376 37.0192L15.9532 36.4215L16.8907 35.5895L17.8751 36.1871L16.9376 37.0192ZM17.629 34.9332L18.8595 33.8317L19.586 34.652L18.6134 35.5192L17.629 34.9332ZM30.836 29.8356L33.5079 32.8473L31.7149 34.441L29.0431 31.4293L30.836 29.8356ZM30.7892 34.816L4.80869 57.8902C4.00009 58.5816 2.79306 58.4879 2.10166 57.6793C1.43369 56.8942 1.504 55.7223 2.254 55.0191L19.0821 40.066C19.1993 39.9606 19.2579 39.7965 19.2345 39.6324L18.7306 36.7027L19.5274 35.9879L21.0392 37.6988C21.2149 37.8981 21.5079 37.9098 21.7071 37.734L25.4337 34.4293C25.6329 34.2535 25.6446 33.9606 25.4688 33.7613L21.7892 29.6129C21.004 28.7223 21.086 27.3746 21.9649 26.5895C22.8556 25.8043 24.2032 25.8863 24.9884 26.7652L28.4571 30.6676L28.047 31.0309C27.8477 31.2067 27.836 31.4996 28.0118 31.6988L30.7892 34.816ZM35.8517 30.7496L32.7696 27.2809C32.6407 27.1402 32.5001 27.0231 32.336 26.941L32.8165 26.5074C33.0392 26.3082 33.379 26.3317 33.5782 26.5543L36.5665 29.9176C36.3556 30.2223 36.1212 30.5035 35.8517 30.7496ZM34.2813 25.9332C33.7306 25.3238 32.7931 25.2652 32.1837 25.8043L28.3985 29.1793L26.5118 27.0582L29.8282 24.1168C31.6798 22.4762 34.5157 22.6402 36.1681 24.4918C37.2579 25.7223 37.5978 27.4684 37.0235 29.0152L34.2813 25.9332Z" fill="#196FF1" stroke="#196FF1" stroke-miterlimit="10"/>
</g>
<defs>
<clipPath id="clip0_2001_450">
<rect width="60" height="60" fill="white"/>
</clipPath>
</defs>
</svg>
