<svg width="20" height="20" viewBox="0 0 20 20" fill="none" xmlns="http://www.w3.org/2000/svg">
<path d="M10.7909 1.41594C10.7378 1.24671 10.6321 1.09884 10.4892 0.993818C10.3463 0.888802 10.1736 0.832124 9.99621 0.832031C9.81885 0.831938 9.64609 0.888435 9.50305 0.993302C9.36001 1.09817 9.25416 1.24594 9.2009 1.41511L7.3809 7.18178L1.6634 7.17761C1.48515 7.17719 1.31147 7.23394 1.16785 7.33953C1.02424 7.44511 0.918261 7.59396 0.865487 7.76422C0.812712 7.93447 0.815921 8.11717 0.874642 8.28547C0.933363 8.45377 1.0445 8.5988 1.19174 8.69928L5.7734 11.8343L4.0509 17.2884C3.99893 17.4549 4.00051 17.6336 4.05542 17.7991C4.11034 17.9647 4.21582 18.1088 4.357 18.2113C4.49818 18.3137 4.66794 18.3692 4.84236 18.3701C5.01678 18.3709 5.18708 18.317 5.32924 18.2159L9.9959 14.8776L14.6576 18.2168C14.7998 18.3187 14.9704 18.3732 15.1453 18.3727C15.3202 18.3722 15.4906 18.3167 15.6322 18.214C15.7738 18.1113 15.8795 17.9666 15.9343 17.8005C15.9891 17.6344 15.9902 17.4552 15.9376 17.2884L14.2151 11.8343L18.8001 8.69928C18.9473 8.5988 19.0584 8.45377 19.1172 8.28547C19.1759 8.11717 19.1791 7.93447 19.1263 7.76422C19.0735 7.59396 18.9676 7.44511 18.824 7.33953C18.6803 7.23394 18.5067 7.17719 18.3284 7.17761L12.6067 7.18178L10.7909 1.41594Z" fill="#FFC107"/>
</svg>
