<svg width="22" height="22" viewBox="0 0 22 22" fill="none" xmlns="http://www.w3.org/2000/svg">
<path d="M19.1442 4C19.7297 4 20.1713 4.51552 19.9351 5.47439L17.0692 19.0326C16.8689 19.9966 16.2886 20.2286 15.4873 19.7801L8.65138 14.7125C8.62487 14.6934 8.60327 14.6683 8.58837 14.6392C8.57347 14.61 8.5657 14.5777 8.5657 14.545C8.5657 14.5122 8.57347 14.48 8.58837 14.4508C8.60327 14.4217 8.62487 14.3965 8.65138 14.3774L16.5454 7.22201C16.9049 6.90239 16.4683 6.74773 15.9958 7.03642L6.08853 13.3103C6.05849 13.33 6.02437 13.3425 5.98878 13.347C5.95318 13.3515 5.91704 13.3477 5.88309 13.3361L1.67674 12.0009C0.741994 11.7277 0.741994 11.0833 1.88731 10.6244L18.7179 4.10826C18.8515 4.0445 18.9964 4.00772 19.1442 4Z" stroke="#F6F6F6" stroke-width="1.2" stroke-linecap="round" stroke-linejoin="round"/>
</svg>
