<svg width="26" height="26" viewBox="0 0 26 26" fill="none" xmlns="http://www.w3.org/2000/svg">
<path d="M22.6213 4.72852C23.3133 4.72852 23.8353 5.33777 23.5561 6.47098L20.1691 22.4943C19.9324 23.6336 19.2465 23.9078 18.2996 23.3777L10.2208 17.3888C10.1894 17.3662 10.1639 17.3365 10.1463 17.3021C10.1287 17.2676 10.1195 17.2295 10.1195 17.1908C10.1195 17.1521 10.1287 17.1139 10.1463 17.0795C10.1639 17.0451 10.1894 17.0153 10.2208 16.9928L19.55 8.53634C19.9749 8.15861 19.459 7.97583 18.9005 8.31701L7.19194 15.7316C7.15643 15.7549 7.11612 15.7697 7.07405 15.775C7.03198 15.7802 6.98927 15.7758 6.94915 15.7621L1.97801 14.1841C0.873306 13.8612 0.873306 13.0996 2.22687 12.5574L22.1175 4.85646C22.2755 4.78111 22.4467 4.73764 22.6213 4.72852Z" stroke="#252F4A" stroke-width="1.2" stroke-linecap="round" stroke-linejoin="round"/>
</svg>
