<svg width="23" height="22" viewBox="0 0 23 22" fill="none" xmlns="http://www.w3.org/2000/svg">
<path d="M15.5304 9.94768L10.7312 6.4128C10.6408 6.34616 10.5357 6.30791 10.4272 6.30212C10.3186 6.29634 10.2107 6.32324 10.1149 6.37995C10.0191 6.43667 9.9391 6.52106 9.88335 6.62413C9.8276 6.7272 9.79824 6.84506 9.7984 6.96512V14.0349C9.79824 14.1549 9.8276 14.2728 9.88335 14.3759C9.9391 14.4789 10.0191 14.5633 10.1149 14.62C10.2107 14.6768 10.3186 14.7037 10.4272 14.6979C10.5357 14.6921 10.6408 14.6538 10.7312 14.5872L15.5304 11.0523C15.6129 10.9919 15.6805 10.9098 15.7273 10.8134C15.7741 10.717 15.7986 10.6094 15.7986 10.5C15.7986 10.3906 15.7741 10.283 15.7273 10.1866C15.6805 10.0902 15.6129 10.0081 15.5304 9.94768ZM10.9982 12.7966V8.20344L14.1156 10.5L10.9982 12.7966ZM22.4361 4.09304C22.3493 3.72044 22.1837 3.37594 21.9528 3.08788C21.722 2.79981 21.4326 2.57642 21.1083 2.43607C17.697 0.976824 12.225 1.00002 11.998 1.00002C11.771 1.00002 6.29904 0.976824 2.88366 2.43607C2.56017 2.57699 2.27154 2.80064 2.04143 3.08867C1.81132 3.3767 1.6463 3.7209 1.5599 4.09304C1.30494 5.18554 1 7.18605 1 10.5C1 13.8139 1.30494 15.8145 1.5599 16.907C1.6467 17.2796 1.81233 17.6241 2.04316 17.9121C2.27399 18.2002 2.56343 18.4236 2.88766 18.5639C6.29904 20.0232 11.77 20 11.998 20H12.069C12.7599 20 17.8679 19.9514 21.1123 18.5639C21.4366 18.4236 21.726 18.2002 21.9568 17.9121C22.1877 17.6241 22.3533 17.2796 22.4401 16.907C22.6951 15.8167 23 13.8217 23 10.5C23 7.17832 22.6961 5.18554 22.4361 4.09304ZM21.2743 16.5756C21.2358 16.7454 21.1613 16.9026 21.057 17.0344C20.9527 17.1661 20.8216 17.2686 20.6744 17.3334C17.475 18.6954 12.056 18.6744 11.998 18.6744C11.94 18.6744 6.528 18.6965 3.32458 17.33C3.1774 17.2653 3.04625 17.1628 2.94195 17.031C2.83766 16.8993 2.76319 16.742 2.72469 16.5723C2.48373 15.5571 2.19978 13.6792 2.19978 10.5C2.19978 7.32082 2.48373 5.44292 2.72169 4.42443C2.76019 4.25464 2.83466 4.0974 2.93896 3.96564C3.04325 3.83389 3.1744 3.73141 3.32158 3.66664C6.40502 2.35432 11.5511 2.3256 11.974 2.3256H11.998C12.052 2.3256 17.468 2.30351 20.6714 3.66996C20.8186 3.73472 20.9497 3.83721 21.054 3.96896C21.1583 4.10071 21.2328 4.25796 21.2713 4.42775C21.5093 5.44292 21.7932 7.32082 21.7932 10.5033C21.7932 13.6858 21.5123 15.5571 21.2743 16.5756Z" fill="#F6F6F6"/>
</svg>
