<svg width="57" height="57" viewBox="0 0 57 57" fill="none" xmlns="http://www.w3.org/2000/svg">
<g filter="url(#filter0_b_808_6457)">
<rect width="57" height="57" rx="28.5" fill="#FBFBFB" fill-opacity="0.2"/>
<path d="M33.7404 27.7578L26.6154 23.0078C26.4812 22.9183 26.3252 22.8669 26.164 22.8591C26.0029 22.8513 25.8426 22.8875 25.7004 22.9637C25.5582 23.0399 25.4394 23.1533 25.3566 23.2918C25.2738 23.4303 25.2302 23.5887 25.2305 23.75V33.25C25.2302 33.4114 25.2738 33.5698 25.3566 33.7082C25.4394 33.8467 25.5582 33.9601 25.7004 34.0364C25.8426 34.1126 26.0029 34.1487 26.164 34.1409C26.3252 34.1332 26.4812 34.0818 26.6154 33.9922L33.7404 29.2422C33.8629 29.161 33.9633 29.0507 34.0328 28.9212C34.1023 28.7917 34.1387 28.647 34.1387 28.5C34.1387 28.3531 34.1023 28.2084 34.0328 28.0789C33.9633 27.9494 33.8629 27.8391 33.7404 27.7578ZM27.0117 31.586V25.414L31.64 28.5L27.0117 31.586ZM43.993 19.8907C43.8641 19.39 43.6182 18.9271 43.2755 18.54C42.9328 18.1529 42.5031 17.8527 42.0217 17.6641C36.957 15.7032 28.833 15.7344 28.4961 15.7344C28.1591 15.7344 20.0352 15.7032 14.9645 17.6641C14.4843 17.8535 14.0557 18.154 13.7141 18.541C13.3725 18.9281 13.1275 19.3906 12.9992 19.8907C12.6207 21.3587 12.168 24.0469 12.168 28.5C12.168 32.9532 12.6207 35.6414 12.9992 37.1094C13.1281 37.6101 13.374 38.073 13.7167 38.4601C14.0594 38.8472 14.4891 39.1474 14.9705 39.336C20.0352 41.2968 28.1577 41.2657 28.4961 41.2657H28.6015C29.6272 41.2657 37.2109 41.2003 42.0277 39.336C42.509 39.1474 42.9387 38.8472 43.2814 38.4601C43.6241 38.073 43.87 37.6101 43.9989 37.1094C44.3774 35.6443 44.8302 32.9635 44.8302 28.5C44.8302 24.0365 44.3789 21.3587 43.993 19.8907ZM42.2681 36.6641C42.211 36.8922 42.1004 37.1036 41.9456 37.2806C41.7907 37.4576 41.596 37.5953 41.3775 37.6824C36.6275 39.5126 28.5822 39.4844 28.4961 39.4844C28.41 39.4844 20.3751 39.5141 15.6191 37.6779C15.4006 37.5909 15.2059 37.4532 15.0511 37.2761C14.8962 37.0991 14.7857 36.8878 14.7285 36.6596C14.3708 35.2955 13.9492 32.7721 13.9492 28.5C13.9492 24.228 14.3708 21.7046 14.7241 20.336C14.7812 20.1078 14.8918 19.8965 15.0466 19.7195C15.2015 19.5424 15.3962 19.4047 15.6147 19.3177C20.1925 17.5542 27.8326 17.5157 28.4605 17.5157H28.4961C28.5763 17.5157 36.6171 17.486 41.373 19.3221C41.5916 19.4092 41.7863 19.5469 41.9411 19.7239C42.096 19.901 42.2065 20.1123 42.2637 20.3404C42.617 21.7046 43.0385 24.228 43.0385 28.5045C43.0385 32.781 42.6214 35.2955 42.2681 36.6641Z" fill="#196FF1"/>
</g>
<defs>
<filter id="filter0_b_808_6457" x="-20" y="-20" width="97" height="97" filterUnits="userSpaceOnUse" color-interpolation-filters="sRGB">
<feFlood flood-opacity="0" result="BackgroundImageFix"/>
<feGaussianBlur in="BackgroundImageFix" stdDeviation="10"/>
<feComposite in2="SourceAlpha" operator="in" result="effect1_backgroundBlur_808_6457"/>
<feBlend mode="normal" in="SourceGraphic" in2="effect1_backgroundBlur_808_6457" result="shape"/>
</filter>
</defs>
</svg>
