<svg width="26" height="26" viewBox="0 0 26 26" fill="none" xmlns="http://www.w3.org/2000/svg">
<path d="M17.5304 11.9477L12.7312 8.4128C12.6408 8.34616 12.5357 8.30791 12.4272 8.30212C12.3186 8.29634 12.2107 8.32324 12.1149 8.37995C12.0191 8.43667 11.9391 8.52106 11.8834 8.62413C11.8276 8.7272 11.7982 8.84506 11.7984 8.96512V16.0349C11.7982 16.1549 11.8276 16.2728 11.8834 16.3759C11.9391 16.4789 12.0191 16.5633 12.1149 16.62C12.2107 16.6768 12.3186 16.7037 12.4272 16.6979C12.5357 16.6921 12.6408 16.6538 12.7312 16.5872L17.5304 13.0523C17.6129 12.9919 17.6805 12.9098 17.7273 12.8134C17.7741 12.717 17.7986 12.6094 17.7986 12.5C17.7986 12.3906 17.7741 12.283 17.7273 12.1866C17.6805 12.0902 17.6129 12.0081 17.5304 11.9477ZM12.9982 14.7966V10.2034L16.1156 12.5L12.9982 14.7966ZM24.4361 6.09304C24.3493 5.72044 24.1837 5.37594 23.9528 5.08788C23.722 4.79981 23.4326 4.57642 23.1083 4.43607C19.697 2.97682 14.225 3.00002 13.998 3.00002C13.771 3.00002 8.29904 2.97682 4.88366 4.43607C4.56017 4.57699 4.27154 4.80064 4.04143 5.08867C3.81132 5.3767 3.6463 5.7209 3.5599 6.09304C3.30494 7.18554 3 9.18605 3 12.5C3 15.8139 3.30494 17.8145 3.5599 18.907C3.6467 19.2796 3.81233 19.6241 4.04316 19.9121C4.27399 20.2002 4.56343 20.4236 4.88766 20.5639C8.29904 22.0232 13.77 22 13.998 22H14.069C14.7599 22 19.8679 21.9514 23.1123 20.5639C23.4366 20.4236 23.726 20.2002 23.9568 19.9121C24.1877 19.6241 24.3533 19.2796 24.4401 18.907C24.6951 17.8167 25 15.8217 25 12.5C25 9.17832 24.6961 7.18554 24.4361 6.09304ZM23.2743 18.5756C23.2358 18.7454 23.1613 18.9026 23.057 19.0344C22.9527 19.1661 22.8216 19.2686 22.6744 19.3334C19.475 20.6954 14.056 20.6744 13.998 20.6744C13.94 20.6744 8.528 20.6965 5.32458 19.33C5.1774 19.2653 5.04625 19.1628 4.94195 19.031C4.83766 18.8993 4.76319 18.742 4.72469 18.5723C4.48373 17.5571 4.19978 15.6792 4.19978 12.5C4.19978 9.32082 4.48373 7.44292 4.72169 6.42443C4.76019 6.25464 4.83466 6.0974 4.93896 5.96564C5.04325 5.83389 5.1744 5.73141 5.32158 5.66664C8.40502 4.35432 13.5511 4.3256 13.974 4.3256H13.998C14.052 4.3256 19.468 4.30351 22.6714 5.66996C22.8186 5.73472 22.9497 5.83721 23.054 5.96896C23.1583 6.10071 23.2328 6.25796 23.2713 6.42775C23.5093 7.44292 23.7932 9.32082 23.7932 12.5033C23.7932 15.6858 23.5123 17.5571 23.2743 18.5756Z" fill="#252F4A"/>
</svg>
