<svg width="24" height="24" viewBox="0 0 24 24" fill="none" xmlns="http://www.w3.org/2000/svg">
<path d="M12.5 9C12.5 9.26522 12.3946 9.51957 12.2071 9.70711C12.0196 9.89464 11.7652 10 11.5 10C11.2348 10 10.9804 9.89464 10.7929 9.70711C10.6054 9.51957 10.5 9.26522 10.5 9C10.5 8.73478 10.6054 8.48043 10.7929 8.29289C10.9804 8.10536 11.2348 8 11.5 8C11.7652 8 12.0196 8.10536 12.2071 8.29289C12.3946 8.48043 12.5 8.73478 12.5 9Z" stroke="#252F4A" stroke-width="2" stroke-linejoin="round"/>
<path d="M17 9.5C17 12.538 15 16 11.5 20C8 16 6 12.538 6 9.5C6 8.04131 6.57946 6.64236 7.61091 5.61091C8.64236 4.57946 10.0413 4 11.5 4C12.9587 4 14.3576 4.57946 15.3891 5.61091C16.4205 6.64236 17 8.04131 17 9.5Z" stroke="#252F4A" stroke-width="1.2" stroke-linejoin="round"/>
</svg>
