<svg width="22" height="22" viewBox="0 0 22 22" fill="none" xmlns="http://www.w3.org/2000/svg">
<path d="M19.0429 13.7752L14.9832 11.9559C14.7993 11.877 14.5986 11.8454 14.3993 11.8637C14.2 11.882 14.0085 11.9497 13.842 12.0607C13.8251 12.0716 13.809 12.0837 13.7938 12.0968L11.672 13.9015C11.65 13.9135 11.6255 13.9202 11.6005 13.9211C11.5754 13.922 11.5505 13.917 11.5277 13.9066C10.1638 13.2484 8.75103 11.8441 8.09017 10.4992C8.07916 10.4767 8.07344 10.4521 8.07344 10.427C8.07344 10.402 8.07916 10.3773 8.09017 10.3548L9.90087 8.20641C9.91388 8.19053 9.92593 8.17388 9.93696 8.15657C10.0464 7.98942 10.1126 7.79764 10.1294 7.59855C10.1462 7.39945 10.1131 7.1993 10.0332 7.01617L8.22681 2.96336C8.12422 2.72412 7.94681 2.5246 7.7212 2.39475C7.49559 2.2649 7.23395 2.21173 6.97556 2.24321C5.85255 2.39084 4.82172 2.94234 4.0757 3.79464C3.32969 4.64693 2.91953 5.74171 2.92189 6.87438C2.92189 13.6033 8.3961 19.0775 15.125 19.0775C16.2576 19.0797 17.3523 18.6695 18.2046 17.9235C19.0568 17.1775 19.6084 16.1468 19.7562 15.0238C19.7876 14.7666 19.7351 14.5062 19.6066 14.2812C19.4781 14.0562 19.2804 13.8787 19.0429 13.7752ZM15.125 18.0463C8.96501 18.0463 3.95314 13.0344 3.95314 6.87438C3.95026 5.9926 4.26853 5.13994 4.84847 4.4757C5.42841 3.81146 6.23035 3.38109 7.10446 3.265H7.12423C7.15886 3.26565 7.19249 3.27674 7.22071 3.29683C7.24892 3.31692 7.27041 3.34507 7.28235 3.37758L9.09563 7.4261C9.10598 7.44861 9.11133 7.47308 9.11133 7.49785C9.11133 7.52262 9.10598 7.5471 9.09563 7.56961L7.28149 9.72321C7.26803 9.73863 7.25568 9.755 7.24454 9.77219C7.13102 9.94549 7.06418 10.1452 7.05047 10.3519C7.03677 10.5586 7.07668 10.7653 7.16634 10.9521C7.9286 12.5127 9.50126 14.0734 11.0791 14.8356C11.2669 14.9248 11.4747 14.9637 11.6821 14.9487C11.8895 14.9336 12.0894 14.8651 12.2624 14.7497C12.2788 14.7385 12.2951 14.7265 12.3106 14.7136L14.4315 12.9089C14.4524 12.8977 14.4756 12.8911 14.4993 12.8896C14.523 12.8881 14.5468 12.8918 14.569 12.9003L18.6295 14.7196C18.6627 14.7337 18.6906 14.7579 18.7093 14.7888C18.7279 14.8196 18.7364 14.8556 18.7335 14.8915C18.618 15.766 18.1881 16.5685 17.524 17.1491C16.8599 17.7297 16.0071 18.0486 15.125 18.0463Z" fill="#252F4A"/>
</svg>
